<svg xmlns="http://www.w3.org/2000/svg" width="812" height="375">
    <defs>
        <radialGradient id="prefix__b" cx=".5" cy=".5" r="1.224"
            gradientTransform="matrix(.561 .828 -.507 .343 .473 -.085)" gradientUnits="objectBoundingBox">
            <stop offset="0" stop-color="#441b5e" />
            <stop offset="0" stop-color="#a335af" />
            <stop offset=".259" stop-color="#7c2987" />
            <stop offset="1" stop-color="#0e0513" />
        </radialGradient>
        <clipPath id="prefix__a">
            <path d="M0 0h812v375H0z" />
        </clipPath>
    </defs>
    <g data-name="iPhone X, XS, 11 Pro – 2" clip-path="url(#prefix__a)">
        <path fill="url(#prefix__b)" d="M0 0h812v375H0z" />
        <path data-name="Path 20"
            d="M330.382 209.304c-4.825 17.994-26.868 27.72-49.238 21.722 0 0-175.07-47.034-252.71-67.993-19.722-5.326-38.1 5.751-37.486 22.435.005.177.01.352.02.53.458 11.679 10.58 22.453 24.396 26.157l170.28 45.655c21.572 5.784 36.9 23.929 33.649 41.622-3.56 19.382-26.469 30.146-49.73 23.91l-89.39-23.968c-27.055-7.254-47.847 15.694-32.339 35.982 32.077 41.959 76.39 78.265 129.604 104.33a413.972 413.972 0 01-78.955-13.175C-80.47 378.535-194.249 222.943-155.653 78.99S59.298-142.764 238.25-94.784a414.227 414.227 0 0174.956 28.09c-59.118-4.046-115.648 5.22-164.414 25.5-23.58 9.806-17.054 40.08 10.002 47.334l88.002 23.595c20.373 5.462 35.525 21.978 34.01 38.967-1.87 21.043-25.79 33.084-50.095 26.567L59.046 49.243c-13.813-3.704-27.974.56-34.21 10.444-.092.15-.184.3-.28.449-8.88 14.137 1.492 32.92 21.234 38.179 77.709 20.688 252.825 67.545 252.825 67.545 22.368 6.005 36.59 25.454 31.767 43.444z"
            fill="#be4178" />
        <path data-name="Path 16"
            d="M138.48 126.892l-2.694 1.473a2.849 2.849 0 00-1.132 1.132l-1.473 2.694a2.847 2.847 0 01-5 0l-1.473-2.694a2.849 2.849 0 00-1.132-1.132l-2.694-1.473a2.846 2.846 0 010-4.995l2.694-1.473a2.849 2.849 0 001.132-1.132l1.473-2.694a2.847 2.847 0 015 0l1.473 2.694a2.849 2.849 0 001.132 1.132l2.694 1.473a2.846 2.846 0 010 4.995zm17.079 98.956l-2.694-1.473a2.845 2.845 0 01-1.132-1.132l-1.473-2.694a2.847 2.847 0 00-5 0l-1.473 2.694a2.849 2.849 0 01-1.132 1.132l-2.694 1.473a2.847 2.847 0 000 5l2.694 1.473a2.849 2.849 0 011.132 1.132l1.473 2.694a2.847 2.847 0 005 0l1.473-2.694a2.848 2.848 0 011.132-1.132l2.694-1.473a2.847 2.847 0 000-5z"
            fill="#b4d7dc" />
        <path data-name="Path 17"
            d="M375.863 88.897l-2.682 1.464a2.833 2.833 0 00-1.13 1.128l-1.467 2.677a2.836 2.836 0 01-4.973 0l-1.46-2.677a2.833 2.833 0 00-1.127-1.124l-2.682-1.464a2.825 2.825 0 010-4.962l2.682-1.464a2.834 2.834 0 001.127-1.125l1.467-2.677a2.836 2.836 0 014.973 0l1.467 2.677a2.833 2.833 0 001.127 1.125l2.682 1.464a2.825 2.825 0 01-.004 4.958zm-51.007 51.6l-2.682-1.464a2.833 2.833 0 01-1.127-1.125l-1.467-2.677a2.836 2.836 0 00-4.973 0l-1.467 2.677a2.833 2.833 0 01-1.127 1.125l-2.682 1.464a2.825 2.825 0 000 4.962l2.682 1.464a2.833 2.833 0 011.127 1.125l1.467 2.677a2.836 2.836 0 004.973 0l1.467-2.677a2.833 2.833 0 011.127-1.125l2.682-1.464a2.825 2.825 0 000-4.96z"
            fill="#d29137" />
        <g data-name="Group 2">
            <path data-name="Path 18"
                d="M323.045 196.514a34.158 34.158 0 11-34.159 34.158 34.159 34.159 0 0134.159-34.158z" fill="#dca041" />
            <path data-name="Path 19"
                d="M331.157 263.853a34.158 34.158 0 110-66.362 34.227 34.227 0 00-24.132 21.892 8.536 8.536 0 11-1.506 16.531 34.187 34.187 0 0025.638 27.939zm-8.682-50.26a5.693 5.693 0 105.693-5.693 5.693 5.693 0 00-5.693 5.693zm11.386 28.465a5.693 5.693 0 105.693 5.693 5.693 5.693 0 00-5.693-5.692z"
                fill="#b97d23" />
        </g>
    </g>
</svg>