<svg xmlns="http://www.w3.org/2000/svg" xmlns:xlink="http://www.w3.org/1999/xlink" width="812" height="375"
    viewBox="0 0 812 375">
    <defs>
        <radialGradient id="radial-gradient" cx="0.5" cy="0.5" r="1.224"
            gradientTransform="matrix(0.561, 0.828, -0.507, 0.343, 0.473, -0.085)" gradientUnits="objectBoundingBox">
            <stop offset="0" stop-color="#441b5e" />
            <stop offset="0" stop-color="#a335af" />
            <stop offset="0.259" stop-color="#7c2987" />
            <stop offset="1" stop-color="#0e0513" />
        </radialGradient>
        <clipPath id="clip-iPhone_X_XS_11_Pro_2">
            <rect width="812" height="375" />
        </clipPath>
    </defs>
    <g id="iPhone_X_XS_11_Pro_2" data-name="iPhone X, XS, 11 Pro – 2" clip-path="url(#clip-iPhone_X_XS_11_Pro_2)">
        <rect width="812" height="375" fill="url(#radial-gradient)" />
        <path id="Path_20" data-name="Path 20"
            d="M883.142,469.823c0,18.628-18.771,33.728-41.928,33.728,0,0-181.256-.091-261.665-.229-20.427-.037-35.308,15.42-30.394,31.374.05.169.1.337.155.506,3.467,11.161,16.033,18.945,30.335,18.945H755.919c22.331,0,41.832,13.555,43.274,31.485,1.58,19.64-17.757,35.967-41.836,35.967H664.821c-28.008,0-42.146,27.546-21.916,43.124,41.844,32.217,94.041,55.806,152.183,67.2a413.923,413.923,0,0,1-79.664,7.72C530.173,739.647,380,618.843,380,469.823S530.173,200,715.424,200a414.178,414.178,0,0,1,79.664,7.72c-58.142,11.4-110.338,34.986-152.183,67.2-20.234,15.576-6.092,43.124,21.916,43.124h91.1c21.09,0,40,12.027,42.935,28.827,3.644,20.807-16.339,38.629-41.5,38.629H579.648c-14.3,0-26.872,7.784-30.335,18.945-.05.169-.1.337-.155.506-4.914,15.953,9.966,31.407,30.394,31.374,80.406-.142,261.661-.233,261.661-.233C864.37,436.1,883.142,451.2,883.142,469.823Z"
            transform="matrix(0.966, 0.259, -0.259, 0.966, -401.049, -473.279)" fill="#be4178" />
        <path id="Path_16" data-name="Path 16"
            d="M297.073,39.183l-2.694,1.473a2.849,2.849,0,0,0-1.132,1.132l-1.473,2.694a2.847,2.847,0,0,1-5,0l-1.473-2.694a2.849,2.849,0,0,0-1.132-1.132l-2.694-1.473a2.846,2.846,0,0,1,0-4.995l2.694-1.473a2.849,2.849,0,0,0,1.132-1.132l1.473-2.694a2.847,2.847,0,0,1,5,0l1.473,2.694a2.849,2.849,0,0,0,1.132,1.132l2.694,1.473A2.846,2.846,0,0,1,297.073,39.183Zm17.079,98.956-2.694-1.473a2.845,2.845,0,0,1-1.132-1.132l-1.473-2.694a2.847,2.847,0,0,0-5,0l-1.473,2.694a2.849,2.849,0,0,1-1.132,1.132l-2.694,1.473a2.847,2.847,0,0,0,0,5l2.694,1.473a2.849,2.849,0,0,1,1.132,1.132l1.473,2.694a2.847,2.847,0,0,0,5,0l1.473-2.694a2.848,2.848,0,0,1,1.132-1.132l2.694-1.473A2.847,2.847,0,0,0,314.152,138.139Z"
            transform="translate(-158.593 87.709)" fill="#b4d7dc" />
        <path id="Path_17" data-name="Path 17"
            d="M325.412,69.108l-2.682,1.464A2.833,2.833,0,0,0,321.6,71.7l-1.467,2.677a2.836,2.836,0,0,1-4.973,0L313.7,71.7a2.833,2.833,0,0,0-1.127-1.124l-2.682-1.464a2.825,2.825,0,0,1,0-4.962l2.682-1.464a2.834,2.834,0,0,0,1.127-1.125l1.467-2.677a2.836,2.836,0,0,1,4.973,0l1.467,2.677a2.833,2.833,0,0,0,1.127,1.125l2.682,1.464A2.825,2.825,0,0,1,325.412,69.108Zm-51.007,51.6-2.682-1.464a2.833,2.833,0,0,1-1.127-1.125l-1.467-2.677a2.836,2.836,0,0,0-4.973,0l-1.467,2.677a2.833,2.833,0,0,1-1.127,1.125l-2.682,1.464a2.825,2.825,0,0,0,0,4.962l2.682,1.464a2.833,2.833,0,0,1,1.127,1.125l1.467,2.677a2.836,2.836,0,0,0,4.973,0l1.467-2.677a2.833,2.833,0,0,1,1.127-1.125l2.682-1.464A2.825,2.825,0,0,0,274.405,120.71Z"
            transform="translate(50.451 19.789)" fill="#d29137" />
        <g id="Group_2" data-name="Group 2">
            <path id="Path_18" data-name="Path 18"
                d="M155.159,0A34.158,34.158,0,1,1,121,34.158,34.159,34.159,0,0,1,155.159,0Z"
                transform="translate(167.886 196.514)" fill="#dca041" />
            <path id="Path_19" data-name="Path 19"
                d="M163.271,67.339a34.158,34.158,0,1,1,0-66.362,34.227,34.227,0,0,0-24.132,21.892A8.536,8.536,0,1,1,137.633,39.4,34.187,34.187,0,0,0,163.271,67.339Zm-8.682-50.26a5.693,5.693,0,1,0,5.693-5.693A5.693,5.693,0,0,0,154.589,17.079Zm11.386,28.465a5.693,5.693,0,1,0,5.693,5.693A5.693,5.693,0,0,0,165.975,45.545Z"
                transform="translate(167.886 196.514)" fill="#b97d23" />
        </g>
    </g>
</svg>