<svg id="Capa_1" enable-background="new 0 0 510 510" height="512" viewBox="0 0 510 510" width="512" xmlns="http://www.w3.org/2000/svg" xmlns:xlink="http://www.w3.org/1999/xlink"><linearGradient id="lg1"><stop offset="0" stop-color="#60b7ff"/><stop offset=".5857" stop-color="#0182fc"/><stop offset="1" stop-color="#2740b0"/></linearGradient><linearGradient id="SVGID_1_" gradientTransform="matrix(0 1 -1 0 599.004 3007.781)" gradientUnits="userSpaceOnUse" x1="-2853.068" x2="-2718.728" xlink:href="#lg1" y1="310.516" y2="310.516"/><linearGradient id="SVGID_2_" gradientTransform="matrix(0 1 -1 0 599.004 3007.781)" gradientUnits="userSpaceOnUse" x1="-2787.314" x2="-2652.974" xlink:href="#lg1" y1="376.27" y2="376.27"/><linearGradient id="lg2"><stop offset="0" stop-color="#fd8087"/><stop offset=".5213" stop-color="#fb2b3a"/><stop offset="1" stop-color="#d90d80"/></linearGradient><linearGradient id="SVGID_3_" gradientTransform="matrix(.707 .707 -.707 .707 1011.675 1206.295)" gradientUnits="userSpaceOnUse" x1="-1254.466" x2="-1133.855" xlink:href="#lg2" y1="-.093" y2="-.093"/><linearGradient id="SVGID_4_" gradientTransform="matrix(.707 .707 -.707 .707 856.496 1466.199)" gradientUnits="userSpaceOnUse" x1="-1399.658" x2="-1221.09" xlink:href="#lg2" y1="-293.604" y2="-293.604"/><linearGradient id="lg3"><stop offset="0" stop-color="#eaf6ff"/><stop offset=".5213" stop-color="#d8ecfe"/><stop offset="1" stop-color="#b3dafe"/></linearGradient><linearGradient id="SVGID_5_" gradientUnits="userSpaceOnUse" x1="300.611" x2="342.718" xlink:href="#lg3" y1="161.807" y2="161.807"/><linearGradient id="SVGID_6_" gradientTransform="matrix(.707 .707 -.707 .707 856.496 1466.199)" gradientUnits="userSpaceOnUse" x1="-1348.158" x2="-1205.144" xlink:href="#lg3" y1="-430.514" y2="-430.514"/><linearGradient id="SVGID_7_" gradientTransform="matrix(.707 .707 -.707 .707 856.496 1466.199)" gradientUnits="userSpaceOnUse" x1="-1438.825" x2="-1234.119" xlink:href="#lg3" y1="-431.125" y2="-431.125"/><linearGradient id="SVGID_8_" gradientTransform="matrix(.707 .707 -.707 .707 856.496 1466.199)" gradientUnits="userSpaceOnUse" x1="-1390.59" x2="-1159.452" xlink:href="#lg3" y1="-644.343" y2="-644.343"/><linearGradient id="SVGID_9_" gradientTransform="matrix(.707 .707 -.707 .707 856.496 1466.199)" gradientUnits="userSpaceOnUse" x1="-1403.59" x2="-1208.587" xlink:href="#lg3" y1="-644.342" y2="-644.342"/><linearGradient id="SVGID_10_" gradientTransform="matrix(.707 .707 -.707 .707 856.496 1466.199)" gradientUnits="userSpaceOnUse" x1="-1402.679" x2="-1152.648" xlink:href="#lg1" y1="-677.43" y2="-677.43"/><linearGradient id="SVGID_11_" gradientTransform="matrix(.707 .707 -.707 .707 856.496 1466.199)" gradientUnits="userSpaceOnUse" x1="-1453.59" x2="-1190.163" xlink:href="#lg1" y1="-677.458" y2="-677.458"/><linearGradient id="lg4"><stop offset="0" stop-color="#fef056"/><stop offset=".5213" stop-color="#f4d902"/><stop offset="1" stop-color="#fe9738"/></linearGradient><linearGradient id="SVGID_12_" gradientUnits="userSpaceOnUse" x1="349.866" x2="494.644" xlink:href="#lg4" y1="87.439" y2="87.439"/><linearGradient id="SVGID_13_" gradientUnits="userSpaceOnUse" x1="347.564" x2="441.815" xlink:href="#lg4" y1="58.647" y2="58.647"/><linearGradient id="SVGID_14_" gradientUnits="userSpaceOnUse" x1="331.675" x2="464.201" xlink:href="#lg4" y1="87.439" y2="87.439"/><linearGradient id="lg5"><stop offset="0" stop-color="#814aa0"/><stop offset="1" stop-color="#192a7d"/></linearGradient><linearGradient id="SVGID_15_" gradientUnits="userSpaceOnUse" x1="446.228" x2="542.269" xlink:href="#lg5" y1="26.674" y2="26.674"/><linearGradient id="SVGID_16_" gradientTransform="matrix(.578 .578 -.707 .707 649.144 1257.982)" gradientUnits="userSpaceOnUse" x1="-1116.831" x2="-852.042" xlink:href="#lg5" y1="-430.514" y2="-430.514"/><linearGradient id="SVGID_17_" gradientTransform="matrix(.707 .707 -.707 .707 856.496 1466.199)" gradientUnits="userSpaceOnUse" x1="-1212.215" x2="-1010.492" xlink:href="#lg3" y1="-431.125" y2="-431.125"/><linearGradient id="lg6"><stop offset="0" stop-color="#d8ecfe"/><stop offset=".5667" stop-color="#b3dafe"/><stop offset=".9955" stop-color="#8ac9fe"/></linearGradient><linearGradient id="SVGID_18_" gradientTransform="matrix(.707 .707 -.707 .707 856.496 1466.199)" gradientUnits="userSpaceOnUse" x1="-1308.356" x2="-1049.021" xlink:href="#lg6" y1="-431.125" y2="-431.125"/><linearGradient id="SVGID_19_" gradientTransform="matrix(.707 .707 -.707 .707 856.496 1466.199)" gradientUnits="userSpaceOnUse" x1="-1260.522" x2="-1061.867" xlink:href="#lg5" y1="-478.211" y2="-478.211"/><linearGradient id="SVGID_20_" gradientTransform="matrix(.707 .707 -.707 .707 856.496 1466.199)" gradientUnits="userSpaceOnUse" x1="-1260.522" x2="-1061.916" xlink:href="#lg5" y1="-478.211" y2="-478.211"/><linearGradient id="SVGID_21_" gradientTransform="matrix(.707 .707 -.707 .707 856.496 1466.199)" gradientUnits="userSpaceOnUse" x1="-1260.522" x2="-1061.916" xlink:href="#lg5" y1="-384.039" y2="-384.039"/><linearGradient id="SVGID_23_" gradientTransform="matrix(.578 .578 -.707 .707 649.144 1257.982)" gradientUnits="userSpaceOnUse" x1="-1533.608" x2="-1268.819" xlink:href="#lg5" y1="-430.514" y2="-430.514"/><linearGradient id="SVGID_24_" gradientTransform="matrix(.707 .707 -.707 .707 856.496 1466.199)" gradientUnits="userSpaceOnUse" x1="-1553.046" x2="-1351.323" xlink:href="#lg3" y1="-431.125" y2="-431.125"/><linearGradient id="SVGID_25_" gradientTransform="matrix(.707 .707 -.707 .707 856.496 1466.199)" gradientUnits="userSpaceOnUse" x1="-1649.187" x2="-1389.853" xlink:href="#lg6" y1="-431.125" y2="-431.125"/><linearGradient id="SVGID_26_" gradientTransform="matrix(.707 .707 -.707 .707 856.496 1466.199)" gradientUnits="userSpaceOnUse" x1="-1601.354" x2="-1402.698" xlink:href="#lg5" y1="-478.211" y2="-478.211"/><linearGradient id="SVGID_27_" gradientTransform="matrix(.707 .707 -.707 .707 856.496 1466.199)" gradientUnits="userSpaceOnUse" x1="-1601.354" x2="-1402.747" xlink:href="#lg5" y1="-478.211" y2="-478.211"/><linearGradient id="SVGID_28_" gradientTransform="matrix(.707 .707 -.707 .707 856.496 1466.199)" gradientUnits="userSpaceOnUse" x1="-1601.354" x2="-1402.747" xlink:href="#lg5" y1="-384.04" y2="-384.04"/><g><g><path d="m222.734 175.12 113.368 113.368 18.14-18.14-113.368-113.368c-6.14 5.95-12.19 12-18.14 18.14z" fill="url(#SVGID_1_)"/><path d="m156.98 240.874 113.368 113.368 18.14-18.14-113.368-113.368c-6.14 5.95-12.19 12-18.14 18.14z" fill="url(#SVGID_2_)"/></g><path d="m173.192 316.35c-23.167 4.038-46.745 12.512-69.479 24.717-6.586 3.536-9.69 11.777-5.889 15.577l56.754 56.754c3.8 3.8 12.041.697 15.577-5.889 12.205-22.734 20.68-46.312 24.717-69.479 2.707-14.63-7.049-24.386-21.68-21.68z" fill="url(#SVGID_3_)"/><path d="m154.577 413.393-17.685-17.685c3.804 3.804 12.042.7 15.578-5.89.023-.042.046-.085.068-.127 3.96-7.388 2.542-16.51-3.385-22.437l-32.626-32.626c8.337-3.91 16.758-7.311 25.201-10.168 10.493-3.564 21.015-6.293 31.459-8.11 1.527-.283 3.012-.424 4.441-.438 5.339-.078 9.793 1.662 12.905 4.773 3.932 3.931 5.685 10.027 4.335 17.345-1.817 10.444-4.54 20.973-8.103 31.466-2.857 8.443-6.258 16.865-10.168 25.201-2.015 4.292-4.165 8.563-6.442 12.806-3.536 6.591-11.774 9.695-15.578 5.89z" fill="url(#SVGID_4_)"/><circle cx="349.416" cy="161.806" fill="url(#SVGID_5_)" r="26.063"/><path d="m346.115 232.442-134.18 134.18c-7.746 7.746-20.304 7.746-28.05 0l-39.285-39.285c-7.746-7.746-7.746-20.304 0-28.05l134.18-134.18c18.594-18.594 48.741-18.594 67.335 0 18.594 18.594 18.594 48.741 0 67.335z" fill="url(#SVGID_6_)"/><path d="m346.547 164.675c-5.055-5.055-10.968-8.725-17.267-11.031 5.381 14.695 3.287 31.508-6.292 44.547l-17.925-17.925c-2.696-2.696-7.036-3.163-10.05-.827-3.645 2.826-3.891 8.099-.736 11.254l4.847 4.847c7.538 7.538 7.538 19.759 0 27.297l-33.273 33.273-18.316-18.316c-2.696-2.696-7.036-3.163-10.05-.827-3.645 2.826-3.891 8.099-.736 11.254l4.847 4.847c7.538 7.538 7.538 19.759 0 27.297l-33.273 33.273-18.316-18.316c-2.696-2.696-7.036-3.163-10.05-.827-3.645 2.826-3.891 8.099-.736 11.254l4.847 4.847c7.538 7.538 7.538 19.759 0 27.297-7.746 7.746-20.304 7.746-28.05 0l28.298 28.298c7.746 7.746 20.304 7.746 28.05 0l134.18-134.18c18.596-18.595 18.596-48.742.001-67.336z" fill="url(#SVGID_7_)"/><g><g><path d="m501.777 153.583c-43.99 43.99-112.054 47.248-152.026 7.277s-36.713-108.036 7.277-152.026 188.739 100.759 144.749 144.749z" fill="url(#SVGID_8_)"/><path d="m453.331 39.595c31.362 34.66 50.96 76.103 30.76 96.303-40.695 40.695-101.99 46.526-142.59 15.527 2.51 3.287 5.256 6.442 8.25 9.435 39.971 39.971 108.035 36.713 152.025-7.277 23.791-23.791-7.622-77.05-48.445-113.988z" fill="url(#SVGID_9_)"/><path d="m501.724 153.509c-11.501 11.501-26.41 6.623-46.511-2.503-21.539-9.779-48.524-24.953-67.634-46.112-9.319-10.319-17.588-21.234-24.078-32.007-2.216-3.679.461-7.342-1.31-10.959-2.103-4.295-8.563-8.525-9.947-12.641-5.49-16.327-4.938-30.86 4.729-40.527 43.993-43.99 188.742 100.759 144.751 144.749z" fill="url(#SVGID_10_)"/><path d="m453.331 39.595c31.362 34.66 50.96 76.103 30.76 96.303-20.199 20.199-60.642-.398-95.303-31.76 5.644 6.237 10.669 13.255 16.912 18.89 10.305 9.301 21.203 17.559 31.959 24.038 3.675 2.214 11.431.122 15.044 1.891 4.295 2.103 4.43 7.959 8.547 9.343 16.328 5.491 30.86 4.95 40.527-4.718 23.79-23.79-7.623-77.049-48.446-113.987z" fill="url(#SVGID_11_)"/></g><g><path d="m490.28 20.331c-3.21-3.21-7.88-4.48-12.27-3.35l-39.57 10.19-86.13 22.19c2.54 7.58 6.39 15.54 11.24 23.59l75.39-19.42-51.36 51.36c5.7 6.33 11.81 12.44 18.14 18.14l.6-.6 50.76-50.76-19.42 75.39c8.05 4.85 16.01 8.7 23.59 11.24l22.19-86.13 10.19-39.57c1.13-4.4-.14-9.06-3.35-12.27z" fill="url(#SVGID_12_)"/><g><path d="m448.22 44.331-9.2 9.2-75.46 19.43c-.01 0-.01-.01-.01-.01-1.2-1.98-2.33-3.96-3.4-5.94z" fill="url(#SVGID_13_)"/><path d="m493.63 32.601-10.19 39.57-22.19 86.13c-7.58-2.54-15.54-6.39-23.59-11.24l19.42-75.39-.03.03-51.33 51.33c-4.62-4.16-9.13-8.54-13.44-13.07l65.88-65.88 5.61-5.61c1.62-1.62 2.78-3.65 3.35-5.87 1.1-4.29-.09-8.81-3.12-12.01l14.01-3.61c4.39-1.13 9.06.14 12.27 3.35s4.48 7.87 3.35 12.27z" fill="url(#SVGID_14_)"/></g></g><circle cx="483.938" cy="26.674" fill="url(#SVGID_15_)" r="26.063"/></g><g><g><path d="m498.174 357.113-104.282-104.283c-8.774-8.774-24.642-7.184-35.372 3.546l-102.144 102.144c-10.73 10.73-12.32 26.598-3.546 35.372l104.283 104.283c8.774 8.775 24.642 7.184 35.372-3.546l102.144-102.144c10.729-10.73 12.32-26.598 3.545-35.372z" fill="url(#SVGID_16_)"/><path d="m504.06 356.23-109.286-109.286c-9.195-9.195-25.825-7.529-37.069 3.716l-107.045 107.045c-11.244 11.244-12.911 27.874-3.716 37.069l109.286 109.287c9.195 9.195 25.825 7.529 37.069-3.716l107.046-107.045c11.244-11.245 12.911-27.874 3.715-37.07zm-17.934 27.325-35.982 35.982c-4.406 4.406-10.899 5.057-14.503 1.454l-40.299-40.299c-3.603-3.603-2.952-10.096 1.454-14.503l35.982-35.982c4.406-4.406 10.899-5.057 14.503-1.454l40.299 40.299c3.603 3.604 2.953 10.097-1.454 14.503zm-104.174-120.131 40.299 40.299c3.603 3.603 2.952 10.096-1.454 14.503l-35.982 35.982c-4.406 4.406-10.899 5.057-14.503 1.454l-40.299-40.299c-3.603-3.603-2.952-10.096 1.454-14.503l35.982-35.982c4.407-4.406 10.9-5.057 14.503-1.454zm-117.074 104.025 35.982-35.982c4.406-4.406 10.899-5.057 14.503-1.454l40.299 40.299c3.603 3.603 2.952 10.096-1.454 14.503l-35.982 35.982c-4.406 4.406-10.899 5.057-14.503 1.454l-40.299-40.299c-3.603-3.603-2.952-10.096 1.454-14.503zm104.174 120.131-40.299-40.299c-3.603-3.603-2.952-10.096 1.454-14.503l35.982-35.982c4.406-4.406 10.899-5.057 14.503-1.454l40.299 40.299c3.603 3.603 2.952 10.096-1.454 14.503l-35.982 35.982c-4.406 4.407-10.899 5.058-14.503 1.454z" fill="url(#SVGID_17_)"/></g><g><path d="m504.06 356.23-12.035-12.035c9.195 9.195 7.529 25.825-3.716 37.069l-1.262 1.262c-.288.352-.591.698-.921 1.028l-35.982 35.982c-.331.331-.676.633-1.028.921l-28.658 28.658c-.288.352-.591.698-.921 1.028l-35.982 35.982c-.331.331-.676.633-1.028.921l-1.262 1.262c-11.244 11.244-27.874 12.911-37.069 3.716l12.035 12.035c9.196 9.196 25.825 7.529 37.069-3.716l107.045-107.043c11.244-11.245 12.911-27.874 3.715-37.07z" fill="url(#SVGID_18_)"/></g><g><path d="m487.58 369.052-40.299-40.299 22.614 22.614c3.603 3.603 2.952 10.096-1.454 14.503l-35.982 35.982c-4.406 4.406-10.899 5.057-14.503 1.454l17.685 17.685c3.603 3.603 10.097 2.952 14.503-1.454l35.982-35.982c4.407-4.406 5.057-10.899 1.454-14.503z" fill="url(#SVGID_19_)"/><path d="m422.251 303.723-17.685-17.685c3.603 3.603 2.952 10.096-1.454 14.503l-35.982 35.982c-4.406 4.406-10.899 5.057-14.503 1.454l17.685 17.685c3.603 3.603 10.097 2.952 14.503-1.454l35.982-35.982c4.406-4.406 5.057-10.899 1.454-14.503z" fill="url(#SVGID_20_)"/><g fill="url(#SVGID_21_)"><path d="m355.661 370.313-17.685-17.685c3.603 3.603 2.952 10.096-1.454 14.503l-35.982 35.982c-4.406 4.406-10.899 5.057-14.503 1.454l17.685 17.685c3.603 3.603 10.097 2.953 14.503-1.454l35.982-35.982c4.407-4.407 5.058-10.9 1.454-14.503z"/><path d="m420.991 435.642-17.685-17.685c3.603 3.603 2.952 10.096-1.454 14.503l-35.982 35.982c-4.406 4.406-10.899 5.057-14.503 1.454l17.685 17.685c3.603 3.603 10.097 2.953 14.503-1.454l35.982-35.982c4.406-4.407 5.057-10.9 1.454-14.503z"/></g></g></g><g><g><path d="m257.17 116.108-104.283-104.282c-8.774-8.774-24.642-7.184-35.372 3.546l-102.144 102.143c-10.73 10.73-12.32 26.597-3.546 35.372l104.283 104.283c8.774 8.774 24.642 7.184 35.372-3.546l102.144-102.144c10.73-10.729 12.321-26.597 3.546-35.372z" fill="url(#SVGID_23_)"/><path d="m263.056 115.226-109.286-109.286c-9.195-9.196-25.825-7.529-37.069 3.716l-107.045 107.044c-11.245 11.245-12.912 27.874-3.716 37.07l109.286 109.286c9.196 9.195 25.825 7.529 37.069-3.716l107.045-107.045c11.245-11.244 12.912-27.874 3.716-37.069zm-17.934 27.325-35.982 35.982c-4.406 4.406-10.899 5.057-14.503 1.454l-40.299-40.299c-3.603-3.603-2.952-10.096 1.454-14.503l35.982-35.982c4.406-4.406 10.899-5.057 14.503-1.454l40.299 40.299c3.603 3.603 2.952 10.096-1.454 14.503zm-104.174-120.131 40.299 40.299c3.603 3.603 2.952 10.096-1.454 14.503l-35.982 35.982c-4.406 4.406-10.899 5.057-14.503 1.454l-40.298-40.3c-3.603-3.603-2.952-10.096 1.454-14.503l35.982-35.982c4.405-4.406 10.898-5.056 14.502-1.453zm-117.074 104.025 35.982-35.982c4.406-4.406 10.899-5.057 14.503-1.454l40.299 40.299c3.603 3.603 2.952 10.096-1.454 14.503l-35.982 35.982c-4.406 4.406-10.899 5.057-14.503 1.454l-40.299-40.299c-3.603-3.604-2.952-10.097 1.454-14.503zm104.174 120.131-40.299-40.299c-3.603-3.603-2.952-10.096 1.454-14.503l35.982-35.982c4.406-4.406 10.899-5.057 14.503-1.454l40.299 40.299c3.603 3.603 2.952 10.096-1.454 14.503l-35.982 35.982c-4.407 4.406-10.9 5.057-14.503 1.454z" fill="url(#SVGID_24_)"/></g><g><path d="m263.056 115.226-12.035-12.035c9.195 9.195 7.529 25.825-3.716 37.069l-1.262 1.262c-.288.352-.591.698-.921 1.028l-35.982 35.982c-.331.331-.676.633-1.028.921l-28.658 28.658c-.288.352-.591.698-.921 1.028l-35.982 35.982c-.331.331-.676.633-1.028.921l-1.262 1.262c-11.244 11.244-27.874 12.911-37.069 3.716l12.035 12.035c9.196 9.196 25.825 7.529 37.069-3.716l107.044-107.044c11.245-11.244 12.912-27.874 3.716-37.069z" fill="url(#SVGID_25_)"/></g><g><path d="m246.576 128.048-40.299-40.299 22.614 22.614c3.603 3.603 2.952 10.096-1.454 14.503l-35.982 35.982c-4.406 4.406-10.899 5.057-14.503 1.454l17.685 17.685c3.603 3.603 10.097 2.952 14.503-1.454l35.982-35.982c4.406-4.407 5.057-10.9 1.454-14.503z" fill="url(#SVGID_26_)"/><path d="m181.247 62.719-17.685-17.685c3.603 3.603 2.952 10.097-1.454 14.503l-35.982 35.982c-4.406 4.406-10.899 5.057-14.503 1.454l17.685 17.685c3.603 3.603 10.097 2.953 14.503-1.454l35.982-35.982c4.406-4.407 5.057-10.9 1.454-14.503z" fill="url(#SVGID_27_)"/><g fill="url(#SVGID_28_)"><path d="m114.657 129.308-17.685-17.685c3.603 3.603 2.952 10.096-1.454 14.503l-35.982 35.982c-4.406 4.406-10.899 5.057-14.503 1.454l17.685 17.685c3.603 3.603 10.097 2.953 14.503-1.454l35.982-35.982c4.407-4.406 5.057-10.899 1.454-14.503z"/><path d="m179.986 194.637-17.685-17.685c3.603 3.603 2.952 10.097-1.454 14.503l-35.982 35.982c-4.406 4.406-10.899 5.057-14.503 1.454l17.685 17.685c3.603 3.603 10.097 2.953 14.503-1.454l35.982-35.982c4.407-4.406 5.058-10.899 1.454-14.503z"/></g></g></g></g></svg>