<svg xmlns="http://www.w3.org/2000/svg" height="512" width="512">
    <circle cx="256" cy="256" r="256" fill="#535e8a" />
    <path
        d="M360.392 22.192C328.516 7.923 293.184 0 256 0 114.606 0 0 114.606 0 256c0 91.833 48.344 172.376 120.989 217.548C160.18 497.926 206.452 512 256 512c141.381 0 256-114.607 256-256 0-104.21-62.262-193.867-151.608-233.808z"
        fill="#ff4f6f" />
    <path
        d="M470.473 256c0 116.832-93.392 211.833-209.578 214.432-1.623.04-3.258.052-4.894.052-27.213 0-53.252-5.066-77.206-14.326a213.32 213.32 0 01-34.916-17.293C82.46 401.154 41.49 333.379 41.49 256c0-118.455 96.043-214.485 214.511-214.485 29.337 0 57.289 5.883 82.747 16.554a213.598 213.598 0 0139.639 21.779 214.014 214.014 0 0125.907 21.224c40.773 39.02 66.179 94.013 66.179 154.928z"
        fill="#ededed" />
    <path
        d="M404.293 101.073a213.92 213.92 0 00-25.907-21.224 213.594 213.594 0 00-39.639-21.778C313.289 47.399 285.338 41.515 256 41.515a215.714 215.714 0 00-39.97 3.733 212.306 212.306 0 0142.778 12.822 213.652 213.652 0 0139.639 21.778 214.185 214.185 0 0125.907 21.224c40.773 39.019 66.18 94.012 66.18 154.928 0 104.816-75.174 192.045-174.533 210.76a215.639 215.639 0 0040.002 3.725c1.636 0 3.272-.014 4.894-.053C377.081 467.834 470.473 372.833 470.473 256c0-60.915-25.406-115.908-66.18-154.927z"
        fill="#c2c2c2" />
    <path
        d="M256.001 480.934c-60.089 0-116.58-23.395-159.069-65.877C54.441 372.574 31.041 316.087 31.041 256c0-124.029 100.917-224.934 224.96-224.934 124.022 0 224.921 100.905 224.921 224.934 0 60.085-23.397 116.573-65.881 159.056-42.482 42.483-98.964 65.878-159.04 65.878zm0-428.969C143.48 51.965 51.939 143.495 51.939 256c0 112.506 91.541 204.036 204.062 204.036 112.499 0 204.023-91.53 204.023-204.036 0-112.505-91.525-204.035-204.023-204.035z"
        fill="#e33958" />
    <g fill="#323b5b">
        <path
            d="M255.99 123.379c-5.771 0-10.449-4.678-10.449-10.449V77.416c0-5.771 4.678-10.449 10.449-10.449s10.449 4.678 10.449 10.449v35.514c0 5.771-4.68 10.449-10.449 10.449zM255.99 445.039c-5.771 0-10.449-4.678-10.449-10.449v-35.514c0-5.771 4.678-10.449 10.449-10.449s10.449 4.678 10.449 10.449v35.514c0 5.771-4.68 10.449-10.449 10.449zM434.576 266.452h-35.514c-5.771 0-10.449-4.678-10.449-10.449s4.678-10.449 10.449-10.449h35.514c5.771 0 10.449 4.678 10.449 10.449s-4.678 10.449-10.449 10.449zM112.916 266.452H77.402c-5.771 0-10.449-4.678-10.449-10.449s4.678-10.449 10.449-10.449h35.514c5.771 0 10.449 4.678 10.449 10.449s-4.678 10.449-10.449 10.449z" />
    </g>
    <g fill="#474f70">
        <path
            d="M379.897 194.914c-4.356 0-8.376-2.823-9.838-6.93-1.463-4.109-.176-8.828 3.209-11.594 3.436-2.807 8.371-3.116 12.142-.792 3.726 2.295 5.645 6.882 4.68 11.148-1.066 4.709-5.354 8.168-10.193 8.168zM132.089 337.992c-4.189 0-8.051-2.594-9.655-6.457-1.693-4.078-.568-8.941 2.762-11.845 3.3-2.878 8.123-3.398 11.958-1.281 3.787 2.091 5.942 6.49 5.25 10.765-.812 5.001-5.228 8.818-10.315 8.818zM327.526 142.544c-4.379 0-8.345-2.817-9.828-6.928-1.459-4.04-.209-8.711 3.07-11.486 3.43-2.903 8.454-3.262 12.273-.903 3.655 2.258 5.572 6.705 4.726 10.915-.97 4.827-5.317 8.402-10.241 8.402zM184.449 390.352c-4.31 0-8.248-2.736-9.77-6.764-1.597-4.226-.211-9.178 3.37-11.942 3.315-2.559 7.934-2.885 11.573-.815 3.862 2.196 5.951 6.755 5.077 11.119-.967 4.829-5.328 8.402-10.25 8.402zM184.449 142.544c-4.304 0-8.254-2.741-9.77-6.767-1.545-4.105-.3-8.917 3.094-11.716 3.234-2.668 7.902-3.15 11.599-1.172 3.907 2.089 6.108 6.539 5.389 10.914-.82 4.982-5.271 8.741-10.312 8.741zM327.526 390.352c-4.248 0-8.144-2.657-9.708-6.601-1.642-4.139-.408-9.044 3.033-11.884 3.236-2.672 7.895-3.145 11.598-1.172 3.976 2.118 6.194 6.742 5.337 11.171-.941 4.866-5.296 8.486-10.26 8.486zM132.089 194.914c-4.361 0-8.355-2.81-9.828-6.912-1.477-4.113-.185-8.84 3.197-11.612 3.296-2.7 8-3.093 11.717-1.038 3.802 2.102 5.939 6.532 5.216 10.819-.838 4.975-5.248 8.743-10.302 8.743zM379.897 337.992c-4.246 0-8.155-2.675-9.718-6.615-1.634-4.122-.413-8.932 2.958-11.798 3.42-2.907 8.458-3.283 12.272-.912 3.758 2.336 5.659 6.942 4.653 11.248-1.089 4.669-5.367 8.077-10.165 8.077zM302.528 266.452h-46.54c-5.771 0-10.449-4.678-10.449-10.449v-74.602c0-5.771 4.678-10.449 10.449-10.449s10.449 4.678 10.449 10.449v64.153h36.091c5.771 0 10.449 4.678 10.449 10.449s-4.678 10.449-10.449 10.449z" />
    </g>
    <path
        d="M279.25 256c0 12.675-10.131 22.981-22.736 23.263a23.197 23.197 0 01-12.695-3.425c-6.663-4.092-11.107-11.444-11.107-19.838 0-12.851 10.42-23.269 23.272-23.269a23.159 23.159 0 0113.277 4.159 23.19 23.19 0 012.811 2.303A23.196 23.196 0 01279.25 256z"
        fill="#ff4f6f" />
</svg>