<svg xmlns="http://www.w3.org/2000/svg" height="512" width="512">
    <path d="M256 0C115.3 0 0 115.3 0 256s115.3 256 256 256 256-115.3 256-256S396.7 0 256 0zm0 0" fill="#ffe470" />
    <path d="M512 256c0 140.7-115.3 256-256 256V0c140.7 0 256 115.3 256 256zm0 0" fill="#ffd400" />
    <path d="M256 61C148.598 61 61 148.598 61 256s87.598 195 195 195 195-87.598 195-195S363.402 61 256 61zm0 0"
        fill="#fdbf00" />
    <path d="M451 256c0 107.402-87.598 195-195 195V61c107.402 0 195 87.598 195 195zm0 0" fill="#ff9f00" />
    <path
        d="M331 301c0 33-27 60-60 60v15c0 8.402-6.598 15-15 15-8.402 0-15-6.598-15-15v-15h-45c-8.402 0-15-6.598-15-15 0-8.402 6.598-15 15-15h75c16.5 0 30-13.5 30-30s-13.5-30-30-30h-30c-33 0-60-27-60-60s27-60 60-60v-15c0-8.402 6.598-15 15-15 8.402 0 15 6.598 15 15v15h45c8.402 0 15 6.598 15 15 0 8.402-6.598 15-15 15h-75c-16.5 0-30 13.5-30 30s13.5 30 30 30h30c33 0 60 27 60 60zm0 0M150.973 256c0 8.285-6.72 15-15 15-8.286 0-15-6.715-15-15s6.715-15 15-15c8.28 0 15 6.715 15 15zm0 0"
        fill="#ffe470" />
    <path
        d="M390.973 256c0 8.285-6.72 15-15 15-8.286 0-15-6.715-15-15s6.714-15 15-15c8.28 0 15 6.715 15 15zm0 0M331 301c0 33-27 60-60 60v15c0 8.402-6.598 15-15 15v-60h15c16.5 0 30-13.5 30-30s-13.5-30-30-30h-15v-30h15c33 0 60 27 60 60zm0 0M316 181h-60v-60c8.402 0 15 6.598 15 15v15h45c8.402 0 15 6.598 15 15 0 8.402-6.598 15-15 15zm0 0"
        fill="#ffd400" /></svg>