<svg xmlns="http://www.w3.org/2000/svg" height="512" width="512">
    <circle cx="255.452" cy="256.409" r="255.452" fill="#484b7f" />
    <circle cx="255.452" cy="256.409" r="217.77" fill="#f0f0f0" />
    <path
        d="M255.452 422.038c-91.331 0-165.634-74.303-165.634-165.634S164.121 90.771 255.452 90.771s165.633 74.303 165.633 165.634-74.303 165.633-165.633 165.633z"
        fill="#ff668c" />
    <path
        d="M255.452 369.905c-62.585 0-113.501-50.916-113.501-113.501s50.916-113.501 113.501-113.501c62.584 0 113.5 50.916 113.5 113.501s-50.916 113.501-113.5 113.501z"
        fill="#f0f0f0" />
    <path
        d="M255.452 317.772c-33.838 0-61.368-27.529-61.368-61.368s27.529-61.368 61.368-61.368 61.367 27.529 61.367 61.368-27.529 61.368-61.367 61.368z"
        fill="#ff668c" />
    <path
        d="M465.661 66.431L265.049 267.042c-5.509 5.509-14.442 5.509-19.951 0s-5.509-14.442 0-19.951L445.709 46.479l19.952 19.952z"
        fill="#9fc5e6" />
    <path d="M465.661 66.431L265.049 267.042c-5.509 5.509-14.442 5.509-19.951 0L455.685 56.455l9.976 9.976z"
        fill="#5897d1" />
    <path fill="#ff668c" d="M350.457 77.372L427.688.14l18.021 46.339-77.232 77.232z" />
    <g fill="#ef487d">
        <path
            d="M367.834 59.995l11.585-11.585 18.02 46.339-11.584 11.585zM396.152 31.676l11.585-11.585 18.02 46.34-11.585 11.584zM465.661 66.431l-77.232 77.232 46.339 18.02L512 84.451z" />
    </g>
    <g fill="#ff668c">
        <path
            d="M445.709 86.382l-11.584 11.585 46.339 18.021 11.585-11.585zM417.391 114.701l-11.585 11.585 46.339 18.02 11.585-11.585z" />
    </g>
</svg>