<svg xmlns="http://www.w3.org/2000/svg" width="322" height="184" viewBox="0 0 322 184">
    <g id="Group_1" data-name="Group 1" transform="translate(-57.833 -46)">
        <circle id="Ellipse_1" data-name="Ellipse 1" cx="5.5" cy="5.5" r="5.5" transform="translate(89.833 142)"
            fill="#e85210" />
        <circle id="Ellipse_10" data-name="Ellipse 10" cx="7" cy="7" r="7" transform="translate(71.833 94)"
            fill="#ffb898" />
        <circle id="Ellipse_2" data-name="Ellipse 2" cx="3.5" cy="3.5" r="3.5" transform="translate(119.833 186)"
            fill="#ff9b70" />
        <circle id="Ellipse_9" data-name="Ellipse 9" cx="7" cy="7" r="7" transform="translate(57.833 194)"
            fill="#ffe8de" />
        <circle id="Ellipse_3" data-name="Ellipse 3" cx="2.5" cy="2.5" r="2.5" transform="translate(80.833 224)"
            fill="rgba(232,82,16,0.3)" />
        <circle id="Ellipse_8" data-name="Ellipse 8" cx="5.5" cy="5.5" r="5.5" transform="translate(228.833 46)"
            fill="#ffaf8b" />
        <circle id="Ellipse_6" data-name="Ellipse 6" cx="4" cy="4" r="4" transform="translate(125.833 222)"
            fill="#e85210" />
        <circle id="Ellipse_5" data-name="Ellipse 5" cx="5.5" cy="5.5" r="5.5" transform="translate(332.833 208)"
            fill="#e85210" />
        <circle id="Ellipse_4" data-name="Ellipse 4" cx="3" cy="3" r="3" transform="translate(340.833 160)"
            fill="#e85210" />
        <circle id="Ellipse_12" data-name="Ellipse 12" cx="8.5" cy="8.5" r="8.5" transform="translate(309.833 67)"
            fill="#e85210" />
        <circle id="Ellipse_11" data-name="Ellipse 11" cx="2.5" cy="2.5" r="2.5" transform="translate(358.833 88)"
            fill="#e85210" />
        <circle id="Ellipse_7" data-name="Ellipse 7" cx="5.5" cy="5.5" r="5.5" transform="translate(368.833 142)"
            fill="#ffaa85" />
    </g>
</svg>