<svg height="512" viewBox="0 0 510 510" width="512" xmlns="http://www.w3.org/2000/svg" xmlns:xlink="http://www.w3.org/1999/xlink"><linearGradient id="prefix__a"><stop offset="0" stop-color="#f8f6f7"/><stop offset=".179" stop-color="#f8f6f7"/><stop offset="1" stop-color="#e7e6f5"/></linearGradient><linearGradient id="prefix__e" gradientUnits="userSpaceOnUse" x1="-2.516" x2="508.783" xlink:href="#prefix__a" y1="305.201" y2="305.201"/><linearGradient id="prefix__b"><stop offset="0" stop-color="#f8f6f7"/><stop offset="1" stop-color="#d1ceeb"/></linearGradient><linearGradient id="prefix__f" gradientUnits="userSpaceOnUse" x1="63.1" x2="510.553" xlink:href="#prefix__b" y1="305.2" y2="305.2"/><linearGradient id="prefix__c"><stop offset="0" stop-color="#fe7d43"/><stop offset=".165" stop-color="#fe7645"/><stop offset=".408" stop-color="#fe624c"/><stop offset=".649" stop-color="#fd4755"/><stop offset=".823" stop-color="#f23543"/><stop offset="1" stop-color="#e41f2d"/></linearGradient><linearGradient id="prefix__g" gradientUnits="userSpaceOnUse" x1="40.334" x2="466.555" xlink:href="#prefix__c" y1="319.355" y2="319.355"/><linearGradient id="prefix__h" gradientUnits="userSpaceOnUse" x1="185" x2="299.756" xlink:href="#prefix__c" y1="352.375" y2="352.375"/><linearGradient id="prefix__i" gradientUnits="userSpaceOnUse" x1="88.324" x2="179.33" xlink:href="#prefix__c" y1="327.673" y2="327.673"/><linearGradient id="prefix__j" gradientUnits="userSpaceOnUse" x1="238" x2="365.566" xlink:href="#prefix__c" y1="273.984" y2="273.984"/><linearGradient id="prefix__k" gradientUnits="userSpaceOnUse" x1="133.195" x2="245.182" xlink:href="#prefix__c" y1="257" y2="257"/><linearGradient id="prefix__l" gradientUnits="userSpaceOnUse" x1="76" x2="372.675" xlink:href="#prefix__c" y1="319.356" y2="319.356"/><linearGradient id="prefix__m" gradientUnits="userSpaceOnUse" x1="183.5" x2="299.51" y1="39.826" y2="39.826"><stop offset="0" stop-color="#ffdcbd"/><stop offset=".003" stop-color="#ffdcbd"/><stop offset="1" stop-color="#ffa9b1"/></linearGradient><linearGradient id="prefix__d"><stop offset="0" stop-color="#ffc2b5"/><stop offset=".244" stop-color="#ffbbb3"/><stop offset=".61" stop-color="#ffa6af"/><stop offset="1" stop-color="#ff89a8"/></linearGradient><linearGradient id="prefix__n" gradientUnits="userSpaceOnUse" x1="127.5" x2="325.253" xlink:href="#prefix__d" y1="39.826" y2="39.826"/><linearGradient id="prefix__o" gradientUnits="userSpaceOnUse" x1="127.5" x2="325.253" xlink:href="#prefix__d" y1="34" y2="34"/><linearGradient id="prefix__p" gradientUnits="userSpaceOnUse" x1="127.5" x2="325.253" xlink:href="#prefix__d" y1="19.667" y2="19.667"/><linearGradient id="prefix__q" gradientUnits="userSpaceOnUse" x1="152.067" x2="359.252" xlink:href="#prefix__a" y1="83.731" y2="83.731"/><linearGradient id="prefix__r" gradientUnits="userSpaceOnUse" x1="194.421" x2="403.175" xlink:href="#prefix__b" y1="83.731" y2="83.731"/><path d="M471.245 164.132c-28.238-28.238-66.062-41.039-102.996-38.413-14.708 1.046-27.225-10.572-27.225-25.318H168.976c0 14.746-12.516 26.364-27.225 25.318-36.934-2.626-74.758 10.175-102.996 38.413-51.673 51.673-51.673 135.453 0 187.126l118.081 118.081c54.215 54.215 142.114 54.215 196.328 0l118.081-118.081c51.673-51.673 51.673-135.452 0-187.126z" fill="url(#prefix__e)"/><path d="M471.245 164.132c-28.238-28.238-66.062-41.04-102.996-38.413-14.708 1.046-27.225-10.572-27.225-25.318L168.98 100.4c0 3.34-.64 6.52-1.81 9.42-3.75 9.4-12.96 15.97-23.57 15.97-.62 0-1.23-.03-1.85-.07-19.82-1.41-39.9 1.62-58.62 9.11h276.75c26.519 0 52.123 10.236 70.952 28.911l.393.391c51.673 51.673 51.673 135.452 0 187.126L313.144 469.339c-22.004 22.004-49.557 35.076-78.154 39.219 41.862 6.064 85.963-7.008 118.174-39.219l118.081-118.081c51.673-51.673 51.673-135.452 0-187.126z" fill="url(#prefix__f)"/><path d="M279.274 191.35l-17.815 17.815a9.135 9.135 0 01-12.918 0l-17.815-17.815c-43.075-43.075-112.914-43.075-155.989 0s-43.075 112.914 0 155.989l98.433 98.433c45.193 45.193 118.466 45.193 163.66 0l98.433-98.433c43.075-43.075 43.075-112.914 0-155.989-43.076-43.075-112.914-43.075-155.989 0z" fill="url(#prefix__g)"/><circle cx="269.503" cy="352.375" fill="url(#prefix__h)" r="30.768"/><circle cx="138.649" cy="327.673" fill="url(#prefix__i)" r="21.738"/><circle cx="345.396" cy="273.984" fill="url(#prefix__j)" r="21.738"/><circle cx="205.424" cy="257" fill="url(#prefix__k)" r="24.849"/><path d="M435.263 191.35c-26.65-26.65-63.542-36.804-98.004-30.479 21.241 3.898 41.559 14.053 57.984 30.479 43.075 43.075 43.075 112.914 0 155.989l-98.433 98.433c-17.487 17.487-39.178 28.202-61.82 32.156 35.874 6.265 74.133-4.449 101.84-32.156l98.433-98.433c43.075-43.075 43.075-112.914 0-155.989z" fill="url(#prefix__l)"/><g><path d="M317.06 79.653H192.936l-13.291-45.174C174.578 17.256 187.488 0 205.441 0h99.114c17.952 0 30.863 17.256 25.796 34.479z" fill="url(#prefix__m)"/><path d="M304.555 0h-40.02c17.953 0 30.863 17.256 25.796 34.479L277.04 79.653h40.02l13.291-45.174C335.418 17.256 322.507 0 304.555 0z" fill="url(#prefix__n)"/><circle cx="260.998" cy="34" fill="url(#prefix__o)" r="14.333"/><path d="M214.694 10.396a9.271 9.271 0 100 18.543 9.271 9.271 0 000-18.543z" fill="url(#prefix__p)"/><g><path d="M347.051 109.823H162.945c-14.41 0-26.092-11.682-26.092-26.092 0-14.41 11.682-26.092 26.092-26.092h184.107c14.41 0 26.092 11.682 26.092 26.092-.001 14.41-11.683 26.092-26.093 26.092z" fill="url(#prefix__q)"/><path d="M347.051 57.639h-40.02c14.41 0 26.092 11.682 26.092 26.092 0 14.41-11.682 26.092-26.092 26.092h40.02c14.41 0 26.092-11.682 26.092-26.092 0-14.41-11.682-26.092-26.092-26.092z" fill="url(#prefix__r)"/></g></g></svg>