<svg height="512" width="512" xmlns="http://www.w3.org/2000/svg">
    <path
        d="M473.574 117.254l-51.133-51.137c-17.152-17.148-44.957-17.148-62.109 0l-63.379 63.38 113.242 113.241 63.38-63.379c17.152-17.148 17.152-44.957 0-62.105zm0 0"
        fill="#eab9a4" />
    <path
        d="M470.508 114.188L422.44 66.12c-17.152-17.152-44.957-17.152-62.109 0l-63.379 63.375 48.067 48.07 63.378-63.379c17.153-17.152 44.961-17.152 62.11 0zm0 0"
        fill="#dd9f80" />
    <path
        d="M51.145 488.547c-31.27-31.27-31.27-81.973 0-113.242l253.132-253.13L417.52 235.419 164.39 488.547c-31.273 31.27-81.972 31.27-113.245 0zm0 0"
        fill="#abebf4" />
    <path
        d="M51.145 488.547A79.908 79.908 0 0074.62 504.84c-3.973-24.117-1.351-51.953 13.637-82.684 29.91-61.328 85.855-111.379 129.129-143.394 28.023-20.73 66.16-20.032 93.883 1.105 14.468 11.028 29.175 17.258 40.644 21.153l65.606-65.602-113.243-113.246L51.145 375.305c-31.27 31.27-31.27 81.972 0 113.242zm0 0"
        fill="#8ed7e8" />
    <path
        d="M51.145 375.305c-31.27 31.27-31.27 81.972 0 113.242 31.273 31.27 81.972 31.27 113.246 0l120.574-120.574c-59.555-46.371-90.883-135.606-90.883-135.606zm0 0"
        fill="#cf92ff" />
    <path
        d="M51.145 488.547A79.908 79.908 0 0074.62 504.84c-3.969-24.113-1.348-51.957 13.637-82.684 29.523-60.535 84.414-110.082 127.441-142.144-14.293-26.785-21.617-47.645-21.617-47.645L51.145 375.305c-31.27 31.27-31.27 81.972 0 113.242zm0 0"
        fill="#b86eff" />
    <path
        d="M371.813 277.586L262.108 167.879c-20.222-20.223-20.222-53.008 0-73.23 20.22-20.22 53.004-20.22 73.227 0l109.707 109.706c20.219 20.223 20.219 53.008 0 73.23-20.223 20.224-53.008 20.224-73.23 0zm0 0"
        fill="#ccf8ff" />
    <path
        d="M328.008 160.555c20.222-20.223 53.008-20.223 73.23 0l-65.902-65.903c-20.219-20.222-53.008-20.222-73.227 0-20.222 20.22-20.222 53.008 0 73.227l65.899 65.906c-20.219-20.222-20.219-53.012 0-73.23zm0 0"
        fill="#abebf4" />
    <path
        d="M194.082 232.367c-34.937 34.938 1.504 111.91 90.883 135.602 0 0-34.914-36.313-30.07-83.172 4.851-46.863-24.477-88.766-60.813-52.43zm0 0"
        fill="#dfaeff" />
    <path
        d="M190.39 299.934a603.38 603.38 0 0127-21.172 77.025 77.025 0 0137.45-14.688c-4.149-37.05-29.926-62.535-60.754-31.707-16.496 16.496-17.086 42.363-3.695 67.567zm0 0"
        fill="#cf92ff" />
    <path
        d="M154.879 7.5l5.344 9.77a58.102 58.102 0 0023.093 23.093l9.77 5.344c10 5.469 10 19.832 0 25.3l-9.77 5.345a58.102 58.102 0 00-23.093 23.093l-5.344 9.77c-5.469 10-19.832 10-25.3 0l-5.345-9.77a58.093 58.093 0 00-23.093-23.09l-9.77-5.347c-10-5.469-10-19.832 0-25.301l9.77-5.344a58.117 58.117 0 0023.093-23.09l5.344-9.773c5.469-10 19.832-10 25.3 0zm0 0"
        fill="#ffeb99" />
    <path
        d="M46.453 199.363l3.496 6.395a38.012 38.012 0 0015.11 15.105l6.39 3.496c6.543 3.578 6.543 12.977 0 16.551l-6.39 3.5a37.962 37.962 0 00-15.11 15.106l-3.496 6.39c-3.578 6.543-12.973 6.543-16.55 0l-3.497-6.39a37.987 37.987 0 00-15.11-15.106l-6.39-3.5c-6.543-3.574-6.543-12.972 0-16.55l6.39-3.497a38.012 38.012 0 0015.11-15.105l3.496-6.395c3.578-6.539 12.973-6.539 16.551 0zm0 0"
        fill="#ffde55" />
    <g fill="#ffeb99">
        <path
            d="M436.406 338.914l3.496 6.39a37.977 37.977 0 0015.106 15.106l6.394 3.5c6.54 3.574 6.54 12.973 0 16.55l-6.394 3.497a38.027 38.027 0 00-15.106 15.105l-3.496 6.395c-3.578 6.54-12.972 6.54-16.55 0l-3.497-6.395a38.012 38.012 0 00-15.109-15.105l-6.39-3.496c-6.544-3.578-6.544-12.977 0-16.55l6.39-3.5a37.987 37.987 0 0015.11-15.106l3.495-6.39c3.579-6.544 12.973-6.544 16.551 0zm0 0M141.453 362.563c0 8.53-6.918 15.453-15.45 15.453-8.534 0-15.452-6.922-15.452-15.454 0-8.535 6.918-15.453 15.453-15.453 8.531 0 15.45 6.918 15.45 15.454zm0 0M217.082 381.219c0 8.531-6.918 15.453-15.453 15.453s-15.453-6.922-15.453-15.453c0-8.535 6.918-15.453 15.453-15.453s15.453 6.918 15.453 15.453zm0 0M139.926 436.52c0 8.535-6.918 15.453-15.453 15.453-8.532 0-15.45-6.918-15.45-15.453 0-8.536 6.918-15.454 15.45-15.454 8.535 0 15.453 6.918 15.453 15.454zm0 0" />
    </g>
</svg>