<svg xmlns="http://www.w3.org/2000/svg" viewBox="0 0 512 512"><path d="M511.759 256.241c0 12.903-.95 25.576-2.798 37.967-12.746 85.622-67.927 157.401-143.476 193.239a253.586 253.586 0 01-68.616 21.296c-.01.01-.01.01-.01 0A255.848 255.848 0 01256 512c-12.172 0-24.135-.846-35.858-2.495h-.01a253.304 253.304 0 01-65.412-18.352 252.26 252.26 0 01-29.417-15.032C60.746 437.674 14.553 371.604 3.039 294.208a258.73 258.73 0 01-2.798-37.967C.241 114.989 114.748.482 256 .482s255.759 114.507 255.759 255.759z" fill="#48d1c2"/><path d="M365.486 487.447a253.369 253.369 0 01-68.616 21.296c-6.065-2.714-10.283-8.811-10.283-15.878V429.51H185.296c-34.783 0-62.604-26.202-66.612-58.825-.772-6.117-.689-12.464.344-18.895l10.022-62.572c10.084-63.042 64.462-109.402 128.297-109.402h29.24v190.869h32.226c11.869 0 21.494 9.625 21.494 21.484v85.956h10.596c4.437 0 8.456 1.796 11.368 4.698a16.232 16.232 0 013.215 4.624z" fill="#f9cebb"/><g fill="#f4b298"><path d="M305.816 507.146c-2.965.585-5.95 1.117-8.946 1.597-.01.01-.01.01-.01 0-6.055-2.725-10.272-8.821-10.272-15.878V429.51h11.765v63.355c-.001 5.909 2.953 11.139 7.463 14.281zM206.468 429.509h-21.177c-34.777 0-62.6-26.2-66.612-58.823a66.648 66.648 0 01.353-18.894l10.012-62.576c10.095-63.036 64.471-109.4 128.306-109.4h21.177c-63.835 0-118.212 46.364-128.306 109.4l-10.012 62.576a66.648 66.648 0 00-.353 18.894c4.012 32.623 31.837 58.823 66.612 58.823z"/></g><path d="M286.587 179.814v190.871H118.681a66.648 66.648 0 01.353-18.894l10.012-62.576c5.047-31.518 21.164-58.883 44.011-78.353 22.836-19.459 52.376-31.047 84.294-31.047h29.236v-.001z" fill="#ff80b0"/><path d="M278.528 179.814c-63.835 0-118.212 46.364-128.306 109.4L140.21 351.79a66.648 66.648 0 00-.353 18.894H118.68a66.648 66.648 0 01.353-18.894l10.012-62.576c5.047-31.518 21.164-58.883 44.011-78.353 22.836-19.459 52.376-31.047 84.294-31.047h21.178z" fill="#f567a7"/><g fill="#f4b298"><path d="M286.587 179.814v96.023c-50.695-3.07-93.518-25.694-113.53-64.976 22.836-19.459 52.376-31.047 84.294-31.047h29.236z"/><circle cx="375.11" cy="132.869" r="33.531"/></g><circle cx="369.243" cy="138.454" r="22.079" fill="#d88f7c"/><circle cx="99.861" cy="132.869" r="33.531" fill="#eaa48c"/><circle cx="105.728" cy="138.454" r="22.079" fill="#d88f7c"/><path d="M375.229 139.556c0 76.072-61.669 118.615-137.741 118.615S99.746 215.628 99.746 139.556 161.415 1.814 237.487 1.814s137.742 61.669 137.742 137.742z" fill="#f9cebb"/><path d="M237.492 258.166c-76.074 0-137.745-42.545-137.745-118.611 0-75.65 60.981-137.055 136.465-137.737-54.071.956-97.687 62.254-97.687 137.737-.002 76.067 44.306 118.611 98.967 118.611z" fill="#f4b298"/><g fill="#39b7dd"><path d="M313.725 139.9v-24.73c0-6.449-5.228-11.678-11.678-11.678-6.449 0-11.678 5.228-11.678 11.678v24.73c0 6.449 5.228 11.678 11.678 11.678 6.449 0 11.678-5.227 11.678-11.678zM184.605 139.9v-24.73c0-6.449-5.228-11.678-11.678-11.678-6.449 0-11.678 5.228-11.678 11.678v24.73c0 6.449 5.228 11.678 11.678 11.678 6.45 0 11.678-5.227 11.678-11.678z"/></g><path d="M197.367 176.673c-6.08 0-10.664 5.645-9.282 11.567 5.234 22.443 25.366 39.161 49.403 39.161s44.169-16.718 49.403-39.161c1.381-5.921-3.203-11.567-9.282-11.567h-80.242z" fill="#53506d"/><path d="M249.298 191.642a5.988 5.988 0 01-5.988-5.988v-8.981h11.975v8.981a5.987 5.987 0 01-5.987 5.988z" fill="#fff"/><g fill="#f4b298"><path d="M250.377 129.272h-25.779a8.316 8.316 0 000 16.632h25.779a8.317 8.317 0 000-16.632z"/><path d="M237.487 111.939a9.563 9.563 0 00-9.563 9.563v16.087h19.127v-16.087c0-5.282-4.283-9.563-9.564-9.563z"/></g><path d="M237.487 1.814c-34.509 15.609-35.07 65.322-4.156 80.057 44.491 21.206 60.707-36.59 60.707-36.59s-29.106 19.127-37.422 0c-8.316-19.127 25.303-36.518 44.668-27.822l-.053-.045a73.53 73.53 0 00-63.744-15.6z" fill="#53506d"/><path d="M249.964 81.871c3.567 1.696 6.952 2.894 10.162 3.642-7.477 1.963-16.357 1.331-26.794-3.642-30.919-14.736-30.353-64.449 4.158-80.058A73.407 73.407 0 01262.03.474c-2.644.3-5.281.748-7.909 1.339-34.511 15.609-35.076 65.322-4.157 80.058z" fill="#393751"/><g fill="#fcb8d2"><ellipse cx="324.334" cy="169.135" rx="19.059" ry="11.598"/><path d="M169.698 169.139c0 6.403-8.532 11.593-19.051 11.593-2.628 0-5.131-.325-7.401-.914-6.852-1.746-11.658-5.871-11.658-10.678 0-3.9 3.168-7.36 8.033-9.455 3.11-1.348 6.919-2.137 11.027-2.137 10.518-.001 19.05 5.188 19.05 11.591z"/></g><path d="M143.245 179.816c-6.852-1.746-11.658-5.871-11.658-10.678 0-3.9 3.168-7.36 8.033-9.455.798 7.07 2.012 13.78 3.625 20.133z" fill="#ef9bbe"/><path d="M249.311 236.058a43.514 43.514 0 01-23.648 0 4.106 4.106 0 00-4.951 2.506l-.029.078c-.848 2.242.385 4.758 2.692 5.411a51.828 51.828 0 0028.224 0c2.307-.652 3.539-3.168 2.692-5.411l-.029-.078a4.104 4.104 0 00-4.951-2.506z" fill="#f4b298"/><path d="M251.292 442.037v29.355c0 18.822-13.383 34.522-31.15 38.113-34.261-4.802-66.341-16.4-94.84-33.384a39.374 39.374 0 01-.282-4.729v-29.355h126.272z" fill="#edac4f"/><g fill="#ffc25f"><path d="M251.292 460.723v10.669c0 18.822-13.383 34.522-31.15 38.113h-.01a253.304 253.304 0 01-65.412-18.352 38.623 38.623 0 01-5.397-19.761c0-2.954 1.2-5.616 3.132-7.548a10.644 10.644 0 017.548-3.121h91.289zM115.205 450.665h145.899c5.843 0 10.58-4.736 10.58-10.58 0-5.843-4.736-10.58-10.58-10.58h-145.9c-5.843 0-10.58 4.736-10.58 10.58.001 5.844 4.739 10.58 10.581 10.58z"/></g><path d="M135.214 440.085c0-5.843 4.737-10.58 10.58-10.58h-30.589c-5.843 0-10.58 4.737-10.58 10.58s4.736 10.58 10.58 10.58h30.589c-5.844.001-10.58-4.736-10.58-10.58z" fill="#edac4f"/><path d="M342.921 478.116h-57.767c-6.356 0-11.509-5.153-11.509-11.509v-13.828c0-6.356 5.153-11.509 11.509-11.509h57.767c6.356 0 11.509 5.153 11.509 11.509v13.828c0 6.357-5.153 11.509-11.509 11.509z" fill="#f9f9f9"/><path d="M290.115 466.608V452.78c0-6.355 5.153-11.508 11.509-11.508h-16.471c-6.356 0-11.509 5.153-11.509 11.508v13.828c0 6.356 5.153 11.509 11.509 11.509h16.471c-6.356-.001-11.509-5.154-11.509-11.509z" fill="#e8e8e8"/><path d="M202.273 442.822c-15.377 0-27.843-12.465-27.843-27.843V296.548c0-15.377 12.465-27.843 27.843-27.843 15.377 0 27.843 12.465 27.843 27.843v118.431c-.001 15.378-12.466 27.843-27.843 27.843z" fill="#f9cebb"/><path d="M188.547 414.979V296.548c0-12.938 8.825-23.813 20.784-26.938a27.845 27.845 0 00-7.059-.905c-15.377 0-27.843 12.466-27.843 27.843v118.431c0 15.378 12.465 27.843 27.843 27.843 2.44 0 4.804-.316 7.059-.905-11.958-3.125-20.784-14-20.784-26.938z" fill="#f4b298"/></svg>