<svg id="Layer_1" enable-background="new 0 0 512 512" height="512" viewBox="0 0 512 512" width="512"
    xmlns="http://www.w3.org/2000/svg">
    <g>
        <path
            d="m240.961 511.135 258.29-184.808c4.725-18.998 7.249-38.866 7.249-59.325 0-135.309-109.689-244.998-244.998-244.998s-244.999 109.689-244.999 244.998c0 128.39 98.763 233.698 224.458 244.133z"
            fill="#fcb1df" />
        <path
            d="m223.652 53.266c9.623-5.551 18.082-10.136 25.09-13.783-24.699-21.962-45.324-33.588-54.6-38.239-.35-.176-.708-.329-1.07-.468 6.073 8.817 17.711 26.875 30.58 52.49z"
            fill="#ff7186" />
        <path
            d="m184.768.74c-.394.147-.783.313-1.163.504-9.276 4.651-29.901 16.278-54.6 38.239 7.008 3.646 15.468 8.232 25.09 13.783 12.896-25.652 24.605-43.724 30.673-52.526z"
            fill="#cc0053" />
        <path
            d="m262.529 128.608c-26.344-21.68-51.517-39.613-73.655-54.006-22.139 14.393-47.311 32.325-73.655 54.006-10.956 31.382-20.722 67.897-27.203 109.334 10.329 4.17 87.716 35.418 100.849 40.72l100.866-40.728c-6.482-41.433-16.246-77.946-27.202-109.326z"
            fill="#e80054" />
        <g>
            <path
                d="m288.237 236.49-99.364 40.121-1.279-.516v43.227c.428.001.85.007 1.279.007 16.727 0 32.201-1 46.484-2.737 24.395-26.442 41.692-53.801 53.885-80.15z"
                fill="#cc0053" />
        </g>
        <g>
            <path
                d="m89.51 236.49-.646-.031c12.038 26.323 29.157 53.676 53.353 80.112 14.331 1.75 29.862 2.758 46.656 2.758v-42.718z"
                fill="#b20453" />
        </g>
        <g>
            <path
                d="m117.835 126.472c-16.44 13.415-33.364 28.296-50.315 44.697 4.222 20.604 11.033 43.313 21.76 66.838 6.707-42.588 17.035-79.845 28.555-111.535z"
                fill="#b20453" />
        </g>
        <g>
            <path
                d="m310.349 171.286c-16.991-16.448-33.956-31.368-50.436-44.815 11.6 31.913 21.994 69.468 28.696 112.43 10.843-23.852 17.619-46.85 21.74-67.615z"
                fill="#b20453" />
        </g>
        <g>
            <path
                d="m367.418 233.549c-.088-.284-.174-.57-.263-.854-18.817-22.803-38.274-43.529-57.685-62.263-4.007 20.49-10.715 43.297-21.642 66.944z"
                fill="#e80054" />
        </g>
        <path
            d="m315.541 119.096c-22.258-35.229-45.976-61.098-66.799-79.613-6.589 3.429-14.461 7.687-23.376 12.797 10.735 19.847 22.243 44.186 32.917 72.861 17.019 13.814 34.574 29.209 52.157 46.236 3.572-19.948 4.877-37.753 5.101-52.281z"
            fill="#e80054" />
        <path
            d="m309.47 170.432c19.411 18.734 38.868 39.46 57.685 62.263-14.393-46.223-32.773-83.971-52.238-114.59-.174 14.268-1.506 32.176-5.447 52.327z"
            fill="#ff7186" />
        <path
            d="m129.005 39.483c-20.89 18.575-44.694 44.551-67.013 79.954.532 14.783 2.143 32.25 5.746 51.521 17.296-16.723 34.561-31.865 51.312-45.479 10.726-28.977 22.333-53.469 33.117-73.321-8.826-5.056-16.625-9.274-23.162-12.675z"
            fill="#e80054" />
        <path
            d="m10.592 232.696c18.817-22.803 38.274-43.529 57.685-62.263-3.941-20.151-5.272-38.059-5.447-52.326-19.464 30.617-37.845 68.366-52.238 114.589z"
            fill="#cc0053" />
        <path
            d="m117.835 126.472c25.393-20.72 49.635-37.954 71.039-51.869-13.767-8.951-26.359-16.534-37.332-22.804-10.92 19.821-22.84 44.773-33.707 74.673z"
            fill="#b20453" />
        <path
            d="m188.874 74.602c21.404 13.916 45.647 31.149 71.039 51.869-10.868-29.899-22.787-54.851-33.707-74.673-10.973 6.271-23.565 13.854-37.332 22.804z"
            fill="#b20453" />
        <path
            d="m188.874 74.602c13.767-8.951 26.359-16.534 37.332-22.804-14.262-25.888-26.815-43.025-33.087-51.003-2.733-1.06-5.758-1.06-8.491 0-6.272 7.978-18.825 25.115-33.087 51.004 10.974 6.27 23.566 13.853 37.333 22.803z"
            fill="#e80054" />
        <g>
            <path
                d="m89.866 237.261c-10.896-23.606-17.588-46.372-21.589-66.828-19.411 18.734-38.868 39.46-57.685 62.263-.077.246-.152.496-.228.742z"
                fill="#e80054" />
        </g>
        <path
            d="m371.568 247.577c-1.424-5.057-2.897-10.014-4.412-14.882l-78.918 3.795c-.173.377-.35.754-.525 1.132 3.219 20.833 5.617 42.857 6.941 66.061 36.479-11.904 59.549-27.803 71.038-37.267 5.523-4.549 7.815-11.952 5.876-18.839z"
            fill="#ff7186" />
        <path
            d="m288.237 236.49c-12.074 26.36-29.379 53.789-54.035 80.241 23.565-2.786 43.888-7.591 61.175-13.285-1.301-23.608-3.777-45.938-7.14-66.956z"
            fill="#e80054" />
        <path
            d="m90.056 237.666c-.182-.392-.366-.784-.545-1.176l-78.918-3.795c-1.516 4.868-2.989 9.825-4.412 14.882-1.939 6.887.353 14.29 5.875 18.838 11.494 9.468 34.579 25.376 71.084 37.282 1.343-23.16 3.727-45.175 6.916-66.031z"
            fill="#cc0053" />
        <path
            d="m143.545 316.731c-24.655-26.451-41.961-53.881-54.035-80.241-3.362 21.017-5.838 43.347-7.14 66.956 17.288 5.694 37.61 10.499 61.175 13.285z"
            fill="#e80054" />
        <path
            d="m456.57 323.267c9.623-5.551 18.083-10.136 25.091-13.783-24.699-21.961-45.324-33.588-54.6-38.239-.35-.176-.708-.329-1.07-.468 6.072 8.818 17.71 26.876 30.579 52.49z"
            fill="#ff7186" />
        <path
            d="m417.686 270.741c-.394.147-.783.313-1.163.504-9.276 4.651-29.901 16.277-54.6 38.239 7.008 3.647 15.468 8.232 25.09 13.783 12.896-25.651 24.605-43.723 30.673-52.526z"
            fill="#cc0053" />
        <path
            d="m476.914 383.81c-19.587-15.186-38.238-28.228-55.122-39.205-22.139 14.393-47.311 32.325-73.655 54.006-10.659 30.529-20.181 65.931-26.658 105.982 67.08-16.882 123.174-61.414 155.435-120.783z"
            fill="#e80054" />
        <path
            d="m320.751 504.77c.686-.17 1.377-.329 2.061-.505 6.714-41.024 16.761-77.036 27.94-107.791-16.44 13.415-33.364 28.296-50.315 44.697 4.029 19.656 10.422 41.23 20.314 63.599z"
            fill="#b20453" />
        <path
            d="m481.66 309.485c-6.589 3.428-14.461 7.687-23.376 12.797 7.851 14.515 16.115 31.444 24.164 50.703 7.107-14.788 12.759-30.404 16.802-46.658-6.018-6.18-11.914-11.795-17.59-16.842z"
            fill="#e80054" />
        <path
            d="m361.923 309.485c-20.89 18.575-44.694 44.551-67.013 79.954.532 14.783 2.143 32.25 5.746 51.521 17.296-16.723 34.561-31.865 51.312-45.479 10.726-28.977 22.333-53.469 33.117-73.321-8.826-5.056-16.625-9.274-23.162-12.675z"
            fill="#e80054" />
        <path
            d="m243.51 502.698c18.817-22.803 38.274-43.529 57.685-62.263-3.941-20.151-5.272-38.059-5.447-52.326-19.464 30.617-37.845 68.366-52.238 114.589z"
            fill="#cc0053" />
        <path
            d="m350.752 396.474c25.393-20.72 49.636-37.954 71.039-51.869-13.767-8.951-26.359-16.534-37.332-22.804-10.92 19.821-22.838 44.773-33.707 74.673z"
            fill="#b20453" />
        <path
            d="m476.911 383.815c2.178-4.007 4.234-8.09 6.19-12.228-8.008-19.121-16.243-35.747-23.977-49.787-10.973 6.27-23.565 13.853-37.332 22.804 16.882 10.976 35.534 24.025 55.119 39.211z"
            fill="#b20453" />
        <path
            d="m421.792 344.604c13.767-8.951 26.359-16.534 37.332-22.804-14.262-25.889-26.815-43.026-33.087-51.004-2.733-1.06-5.758-1.06-8.491 0-6.272 7.978-18.824 25.115-33.087 51.004 10.974 6.271 23.566 13.854 37.333 22.804z"
            fill="#e80054" />
        <path
            d="m321.568 504.57c-10.174-22.643-16.525-44.459-20.373-64.136-19.411 18.734-38.868 39.46-57.685 62.263-.077.247-.152.496-.228.742l68.845 3.311c3.17-.666 6.318-1.392 9.441-2.18z"
            fill="#e80054" />
        <path
            d="m261.501 512c18.364 0 36.25-2.036 53.461-5.867l-71.451-3.436c-.865 2.78-1.713 5.598-2.549 8.438 6.773.563 13.62.865 20.539.865z"
            fill="#cc0053" />
        <g fill="#fcc8ea">
            <path
                d="m201.792 360.921c-30.612 2.695-65.955 2.201-94.711-8.113-33.159-11.894-58.764-8.548-75.974-2.34 26.44 72.961 86.545 129.775 161.554 151.695 6.114-7.3 11.552-17.655 14.954-32.348 4.599-19.869 14.579-41.499 25.357-60.903 12.604-22.696-5.318-50.267-31.18-47.991z" />
            <path
                d="m353.637 39.938c-8.326 15.07-11.728 35.756.76 62.566 30.358 65.173 41.179 121.245 113.975 140.92 13.682 3.698 25.973 2.876 36.914-.893-9.13-92.055-69.214-169.109-151.649-202.593z" />
        </g>
    </g>
</svg>