<svg height="512" width="512" xmlns="http://www.w3.org/2000/svg"><path d="M240.961 511.135l258.29-184.808a245.508 245.508 0 007.249-59.325c0-135.309-109.689-244.998-244.998-244.998S16.503 131.693 16.503 267.002c0 128.39 98.763 233.698 224.458 244.133z" fill="#fcb1df"/><path d="M223.652 53.266a662.068 662.068 0 0125.09-13.783c-24.699-21.962-45.324-33.588-54.6-38.239-.35-.176-.708-.329-1.07-.468 6.073 8.817 17.711 26.875 30.58 52.49z" fill="#ff7186"/><path d="M184.768.74c-.394.147-.783.313-1.163.504-9.276 4.651-29.901 16.278-54.6 38.239a659.883 659.883 0 0125.09 13.783C166.991 27.614 178.7 9.542 184.768.74z" fill="#cc0053"/><path d="M262.529 128.608a817.703 817.703 0 00-73.655-54.006 817.367 817.367 0 00-73.655 54.006c-10.956 31.382-20.722 67.897-27.203 109.334l100.849 40.72 100.866-40.728c-6.482-41.433-16.246-77.946-27.202-109.326z" fill="#e80054"/><path d="M288.237 236.49l-99.364 40.121-1.279-.516v43.227c.428.001.85.007 1.279.007 16.727 0 32.201-1 46.484-2.737 24.395-26.442 41.692-53.801 53.885-80.15z" fill="#cc0053"/><path d="M89.51 236.49l-.646-.031c12.038 26.323 29.157 53.676 53.353 80.112 14.331 1.75 29.862 2.758 46.656 2.758v-42.718z" fill="#b20453"/><path d="M117.835 126.472a797.377 797.377 0 00-50.315 44.697 312.03 312.03 0 0021.76 66.838c6.707-42.588 17.035-79.845 28.555-111.535zM310.349 171.286a796.78 796.78 0 00-50.436-44.815c11.6 31.913 21.994 69.468 28.696 112.43a308.446 308.446 0 0021.74-67.615z" fill="#b20453"/><path d="M367.418 233.549c-.088-.284-.174-.57-.263-.854-18.817-22.803-38.274-43.529-57.685-62.263a294.114 294.114 0 01-21.642 66.944z" fill="#e80054"/><path d="M315.541 119.096c-22.258-35.229-45.976-61.098-66.799-79.613a657.869 657.869 0 00-23.376 12.797c10.735 19.847 22.243 44.186 32.917 72.861a797.433 797.433 0 0152.157 46.236c3.572-19.948 4.877-37.753 5.101-52.281z" fill="#e80054"/><path d="M309.47 170.432c19.411 18.734 38.868 39.46 57.685 62.263-14.393-46.223-32.773-83.971-52.238-114.59-.174 14.268-1.506 32.176-5.447 52.327z" fill="#ff7186"/><path d="M129.005 39.483c-20.89 18.575-44.694 44.551-67.013 79.954.532 14.783 2.143 32.25 5.746 51.521a797.22 797.22 0 0151.312-45.479c10.726-28.977 22.333-53.469 33.117-73.321a654.213 654.213 0 00-23.162-12.675z" fill="#e80054"/><path d="M10.592 232.696c18.817-22.803 38.274-43.529 57.685-62.263-3.941-20.151-5.272-38.059-5.447-52.326-19.464 30.617-37.845 68.366-52.238 114.589z" fill="#cc0053"/><path d="M117.835 126.472c25.393-20.72 49.635-37.954 71.039-51.869a764.141 764.141 0 00-37.332-22.804c-10.92 19.821-22.84 44.773-33.707 74.673zM188.874 74.602a817.907 817.907 0 0171.039 51.869c-10.868-29.899-22.787-54.851-33.707-74.673a765.714 765.714 0 00-37.332 22.804z" fill="#b20453"/><path d="M188.874 74.602a764.141 764.141 0 0137.332-22.804C211.944 25.91 199.391 8.773 193.119.795a11.734 11.734 0 00-8.491 0c-6.272 7.978-18.825 25.115-33.087 51.004a764.351 764.351 0 0137.333 22.803zM89.866 237.261a294.131 294.131 0 01-21.589-66.828c-19.411 18.734-38.868 39.46-57.685 62.263-.077.246-.152.496-.228.742z" fill="#e80054"/><path d="M371.568 247.577a569.723 569.723 0 00-4.412-14.882l-78.918 3.795c-.173.377-.35.754-.525 1.132 3.219 20.833 5.617 42.857 6.941 66.061 36.479-11.904 59.549-27.803 71.038-37.267 5.523-4.549 7.815-11.952 5.876-18.839z" fill="#ff7186"/><path d="M288.237 236.49c-12.074 26.36-29.379 53.789-54.035 80.241 23.565-2.786 43.888-7.591 61.175-13.285-1.301-23.608-3.777-45.938-7.14-66.956z" fill="#e80054"/><path d="M90.056 237.666c-.182-.392-.366-.784-.545-1.176l-78.918-3.795a562.078 562.078 0 00-4.412 14.882c-1.939 6.887.353 14.29 5.875 18.838 11.494 9.468 34.579 25.376 71.084 37.282 1.343-23.16 3.727-45.175 6.916-66.031z" fill="#cc0053"/><path d="M143.545 316.731C118.89 290.28 101.584 262.85 89.51 236.49c-3.362 21.017-5.838 43.347-7.14 66.956 17.288 5.694 37.61 10.499 61.175 13.285z" fill="#e80054"/><path d="M456.57 323.267a662.022 662.022 0 0125.091-13.783c-24.699-21.961-45.324-33.588-54.6-38.239-.35-.176-.708-.329-1.07-.468 6.072 8.818 17.71 26.876 30.579 52.49z" fill="#ff7186"/><path d="M417.686 270.741c-.394.147-.783.313-1.163.504-9.276 4.651-29.901 16.277-54.6 38.239a661.294 661.294 0 0125.09 13.783c12.896-25.651 24.605-43.723 30.673-52.526z" fill="#cc0053"/><path d="M476.914 383.81a816.709 816.709 0 00-55.122-39.205 817.367 817.367 0 00-73.655 54.006c-10.659 30.529-20.181 65.931-26.658 105.982 67.08-16.882 123.174-61.414 155.435-120.783z" fill="#e80054"/><path d="M320.751 504.77c.686-.17 1.377-.329 2.061-.505 6.714-41.024 16.761-77.036 27.94-107.791a797.377 797.377 0 00-50.315 44.697 312.323 312.323 0 0020.314 63.599z" fill="#b20453"/><path d="M481.66 309.485a656.258 656.258 0 00-23.376 12.797c7.851 14.515 16.115 31.444 24.164 50.703a243.197 243.197 0 0016.802-46.658 339.528 339.528 0 00-17.59-16.842zM361.923 309.485c-20.89 18.575-44.694 44.551-67.013 79.954.532 14.783 2.143 32.25 5.746 51.521a797.22 797.22 0 0151.312-45.479c10.726-28.977 22.333-53.469 33.117-73.321a654.213 654.213 0 00-23.162-12.675z" fill="#e80054"/><path d="M243.51 502.698c18.817-22.803 38.274-43.529 57.685-62.263-3.941-20.151-5.272-38.059-5.447-52.326-19.464 30.617-37.845 68.366-52.238 114.589z" fill="#cc0053"/><path d="M350.752 396.474a818.002 818.002 0 0171.039-51.869 764.141 764.141 0 00-37.332-22.804c-10.92 19.821-22.838 44.773-33.707 74.673zM476.911 383.815a243.459 243.459 0 006.19-12.228c-8.008-19.121-16.243-35.747-23.977-49.787a764.141 764.141 0 00-37.332 22.804 816.575 816.575 0 0155.119 39.211z" fill="#b20453"/><path d="M421.792 344.604a764.141 764.141 0 0137.332-22.804c-14.262-25.889-26.815-43.026-33.087-51.004a11.734 11.734 0 00-8.491 0c-6.272 7.978-18.824 25.115-33.087 51.004a765.224 765.224 0 0137.333 22.804zM321.568 504.57a294.326 294.326 0 01-20.373-64.136c-19.411 18.734-38.868 39.46-57.685 62.263-.077.247-.152.496-.228.742l68.845 3.311c3.17-.666 6.318-1.392 9.441-2.18z" fill="#e80054"/><path d="M261.501 512c18.364 0 36.25-2.036 53.461-5.867l-71.451-3.436a574.108 574.108 0 00-2.549 8.438c6.773.563 13.62.865 20.539.865z" fill="#cc0053"/><g fill="#fcc8ea"><path d="M201.792 360.921c-30.612 2.695-65.955 2.201-94.711-8.113-33.159-11.894-58.764-8.548-75.974-2.34 26.44 72.961 86.545 129.775 161.554 151.695 6.114-7.3 11.552-17.655 14.954-32.348 4.599-19.869 14.579-41.499 25.357-60.903 12.604-22.696-5.318-50.267-31.18-47.991zM353.637 39.938c-8.326 15.07-11.728 35.756.76 62.566 30.358 65.173 41.179 121.245 113.975 140.92 13.682 3.698 25.973 2.876 36.914-.893-9.13-92.055-69.214-169.109-151.649-202.593z"/></g></svg>