<svg xmlns="http://www.w3.org/2000/svg" xmlns:xlink="http://www.w3.org/1999/xlink" width="408" height="812"
    viewBox="0 0 408 812">
    <defs>
        <clipPath id="clip-iPhone_X_XS_11_Pro_3">
            <rect width="408" height="812" />
        </clipPath>
    </defs>
    <g id="iPhone_X_XS_11_Pro_3" data-name="iPhone X, XS, 11 Pro – 3" clip-path="url(#clip-iPhone_X_XS_11_Pro_3)">
        <rect width="408" height="812" fill="#0d3114" />
        <path id="Path_30" data-name="Path 30"
            d="M277.386,60.846l-.788.43a.833.833,0,0,0-.331.33l-.431.786a.833.833,0,0,1-1.461,0l-.431-.786a.832.832,0,0,0-.331-.33l-.788-.43a.83.83,0,0,1,0-1.458l.788-.43a.833.833,0,0,0,.331-.33l.431-.786a.833.833,0,0,1,1.461,0l.431.786a.833.833,0,0,0,.331.33l.788.43A.83.83,0,0,1,277.386,60.846ZM262.4,76.006l-.788-.43a.832.832,0,0,1-.331-.33l-.431-.786a.833.833,0,0,0-1.461,0l-.431.786a.832.832,0,0,1-.331.33l-.788.43a.83.83,0,0,0,0,1.458l.788.43a.832.832,0,0,1,.331.33l.431.786a.833.833,0,0,0,1.461,0l.431-.786a.832.832,0,0,1,.331-.33l.788-.43A.83.83,0,0,0,262.4,76.006Z"
            transform="translate(-247.549 13.755)" fill="#d29137" />
        <path id="Path_20" data-name="Path 20"
            d="M1007.242,586.779c0,26.7-23.4,48.347-52.27,48.347,0,0-225.962-.13-326.205-.329-25.466-.053-44.016,22.1-37.89,44.973.063.242.13.484.193.725,4.322,16,19.988,27.157,37.817,27.157H848.639c27.839,0,52.15,19.431,53.948,45.132,1.97,28.153-22.137,51.557-52.155,51.557H735.073c-34.916,0-52.541,39.485-27.321,61.817,52.165,46.181,117.236,80,189.719,96.332a451.147,451.147,0,0,1-99.313,11.067C567.214,973.557,380,800.391,380,586.779S567.214,200,798.157,200a451.42,451.42,0,0,1,99.313,11.067C824.988,227.4,759.917,261.217,707.751,307.4c-25.225,22.327-7.595,61.817,27.321,61.817H848.639c26.292,0,49.86,17.241,53.524,41.322,4.542,29.826-20.369,55.372-51.732,55.372H628.892c-17.829,0-33.5,11.159-37.817,27.157-.063.242-.131.483-.194.725-6.126,22.868,12.424,45.021,37.89,44.973,100.238-.2,326.2-.333,326.2-.333C983.841,538.431,1007.242,560.076,1007.242,586.779Z"
            transform="matrix(0.766, -0.643, 0.643, 0.766, -608.289, 335.244)" fill="#240211" opacity="0.57" />
        <g id="Group_2" data-name="Group 2" transform="translate(-272.026 -149)">
            <path id="Path_18" data-name="Path 18"
                d="M248.97,0A127.97,127.97,0,1,1,121,127.97,127.97,127.97,0,0,1,248.97,0Z"
                transform="translate(167.886 196.514)" fill="#374fd8" />
            <path id="Path_19" data-name="Path 19"
                d="M279.363,252.278a127.97,127.97,0,1,1,0-248.616,128.226,128.226,0,0,0-90.407,82.014,31.979,31.979,0,1,1-5.644,61.931A128.077,128.077,0,0,0,279.363,252.278ZM246.837,63.985a21.328,21.328,0,1,0,21.328-21.328A21.328,21.328,0,0,0,246.837,63.985Zm42.657,106.642a21.328,21.328,0,1,0,21.328,21.328A21.328,21.328,0,0,0,289.494,170.627Z"
                transform="translate(167.886 196.514)" fill="#383fb0" />
        </g>
        <g id="_1068561" data-name="1068561" transform="translate(229 724.143)">
            <path id="Path_2" data-name="Path 2"
                d="M153.823,76.912A76.912,76.912,0,1,1,76.912,0,76.912,76.912,0,0,1,153.823,76.912Z"
                transform="translate(0 -96.967)" fill="#415f78" />
            <path id="Path_3" data-name="Path 3"
                d="M94.823,249.78a77.447,77.447,0,0,1-.148,34.895A76.964,76.964,0,0,1,2.065,192.066,77.113,77.113,0,0,1,19.829,190q1.98,0,3.936.1a5.7,5.7,0,0,0-.057.762c0,5.885,9.085,10.656,20.293,10.656a33.4,33.4,0,0,0,12.461-2.249,77.156,77.156,0,0,1,16.86,12.388,33.588,33.588,0,0,0-3.72,15.774c0,14.007,7.667,25.362,17.125,25.362A12.93,12.93,0,0,0,94.823,249.78Z"
                transform="translate(0 -229.884)" fill="#64d2cd" />
            <path id="Path_4" data-name="Path 4"
                d="M97.9,249.78a77.447,77.447,0,0,1-.148,34.895c-1.175.278-2.363.522-3.558.745a103.228,103.228,0,0,1-89.8-89.8c.224-1.2.467-2.383.745-3.558A77.113,77.113,0,0,1,22.9,190q1.845,0,3.668.086c.09,0,.178.011.267.016a5.711,5.711,0,0,0-.057.759c0,5.885,9.085,10.656,20.293,10.656A33.408,33.408,0,0,0,59.53,199.27,77.155,77.155,0,0,1,76.4,211.655a33.589,33.589,0,0,0-3.72,15.774c0,14.007,7.667,25.362,17.125,25.362A12.931,12.931,0,0,0,97.9,249.78Z"
                transform="translate(-3.074 -229.884)" fill="#8cebeb" />
            <path id="Path_5" data-name="Path 5"
                d="M92.221,264.845a6.008,6.008,0,0,1,0,8.5l-9.594,9.594a76.89,76.89,0,0,1-28.66-17.393l8.984-8.984a6.008,6.008,0,0,1,8.5,0L75.7,260.81a5.977,5.977,0,0,1,1.387,2.178l2.391-2.391a6.008,6.008,0,0,1,8.5,0Zm11.19-53.176a5.981,5.981,0,0,0-3.786,1.738L76.363,236.668a6.008,6.008,0,0,0,0,8.5l4.249,4.249a6.008,6.008,0,0,0,8.5,0l3.921-3.921c.087.1.171.2.266.294l14.635,14.635a6.008,6.008,0,0,0,8.5,0l9-9A76.778,76.778,0,0,0,103.411,211.668Zm-39.235,27.72,14.871-14.871a6.009,6.009,0,0,0,0-8.5L74.8,211.771,86.972,199.6l-.016-.009A76.476,76.476,0,0,0,53.785,190.3l-8.729,8.729a6.008,6.008,0,0,0,0,8.5l4.249,4.249L47.181,213.9a6.008,6.008,0,0,0,0,8.5l4.249,4.249a6.009,6.009,0,0,0,0,8.5l4.249,4.249A6.008,6.008,0,0,0,64.176,239.389Z"
                transform="translate(-30.289 -230.091)" fill="#3caf96" />
            <path id="Path_6" data-name="Path 6"
                d="M114.177,432.242l-6.707,6.707a76.89,76.89,0,0,1-28.66-17.393l8.248-8.248A103.409,103.409,0,0,0,114.177,432.242Z"
                transform="translate(-55.133 -386.102)" fill="#1e9682" />
            <path id="Path_7" data-name="Path 7"
                d="M404.035,200a23.924,23.924,0,0,1,14.726,5.046,77.471,77.471,0,0,1,.9,11.778,76.683,76.683,0,0,1-5.7,29.1A24.034,24.034,0,1,1,404.035,200Z"
                transform="translate(-265.834 -236.879)" fill="#e65aa0" />
            <path id="Path_8" data-name="Path 8"
                d="M416.052,224.035a3,3,0,0,1-3,3s-12.988-.008-18.75-.02a2.246,2.246,0,0,0-2.178,2.795l.011.045a2.238,2.238,0,0,0,2.174,1.688h12.631a3.073,3.073,0,0,1,3.1,2.8,3,3,0,0,1-3,3.2h-6.631a2.24,2.24,0,0,0-1.57,3.841,23.987,23.987,0,0,0,10.9,5.986,24.035,24.035,0,1,1,0-46.694,23.987,23.987,0,0,0-10.9,5.986,2.24,2.24,0,0,0,1.57,3.841h6.528a3.072,3.072,0,0,1,3.076,2.568,3.006,3.006,0,0,1-2.973,3.441H394.3a2.237,2.237,0,0,0-2.174,1.688l-.011.045a2.246,2.246,0,0,0,2.178,2.795c5.761-.013,18.749-.021,18.749-.021A3,3,0,0,1,416.052,224.035Z"
                transform="translate(-265.834 -236.879)" fill="#be4178" />
            <path id="Path_9" data-name="Path 9"
                d="M139.026,0A18.026,18.026,0,1,1,121,18.026,18.026,18.026,0,0,1,139.026,0Z"
                transform="translate(-84.647 -96.967)" fill="#dca041" />
            <path id="Path_10" data-name="Path 10"
                d="M143.307,35.537a18.026,18.026,0,1,1,0-35.021,18.062,18.062,0,0,0-12.735,11.553,4.5,4.5,0,1,1-.795,8.724A18.041,18.041,0,0,0,143.307,35.537ZM138.726,9.013a3,3,0,1,0,3-3A3,3,0,0,0,138.726,9.013Zm6.009,15.022a3,3,0,1,0,3,3A3,3,0,0,0,144.734,24.035Z"
                transform="translate(-84.647 -96.967)" fill="#b97d23" />
            <path id="Path_11" data-name="Path 11"
                d="M402.017,386.009A6.009,6.009,0,1,1,396.009,380,6.009,6.009,0,0,1,402.017,386.009Z"
                transform="translate(-272.83 -362.801)" fill="#6c9baa" />
            <path id="Path_12" data-name="Path 12"
                d="M289.009,33.623l-1.422.778a1.5,1.5,0,0,0-.6.6l-.778,1.422a1.5,1.5,0,0,1-2.636,0L282.8,35a1.5,1.5,0,0,0-.6-.6l-1.422-.778a1.5,1.5,0,0,1,0-2.636l1.422-.778a1.5,1.5,0,0,0,.6-.6l.778-1.422a1.5,1.5,0,0,1,2.636,0l.778,1.422a1.5,1.5,0,0,0,.6.6l1.422.778A1.5,1.5,0,0,1,289.009,33.623Zm9.013,52.221-1.422-.778a1.5,1.5,0,0,1-.6-.6l-.778-1.422a1.5,1.5,0,0,0-2.636,0l-.778,1.422a1.5,1.5,0,0,1-.6.6l-1.422.778a1.5,1.5,0,0,0,0,2.636l1.422.778a1.5,1.5,0,0,1,.6.6l.778,1.422a1.5,1.5,0,0,0,2.636,0L296,89.855a1.5,1.5,0,0,1,.6-.6l1.422-.778A1.5,1.5,0,0,0,298.022,85.844Z"
                transform="translate(-195.877 -116.141)" fill="#b4d7dc" />
            <path id="Path_13" data-name="Path 13"
                d="M293.458,63.623l-1.422.778a1.5,1.5,0,0,0-.6.6l-.778,1.422a1.5,1.5,0,0,1-2.636,0L287.248,65a1.5,1.5,0,0,0-.6-.6l-1.422-.778a1.5,1.5,0,0,1,0-2.636l1.422-.778a1.5,1.5,0,0,0,.6-.6l.778-1.422a1.5,1.5,0,0,1,2.636,0l.778,1.422a1.5,1.5,0,0,0,.6.6l1.422.778A1.5,1.5,0,0,1,293.458,63.623ZM266.418,91.031,265,90.253a1.5,1.5,0,0,1-.6-.6l-.778-1.422a1.5,1.5,0,0,0-2.636,0l-.777,1.422a1.5,1.5,0,0,1-.6.6l-1.422.778a1.5,1.5,0,0,0,0,2.636l1.422.778a1.5,1.5,0,0,1,.6.6l.777,1.422a1.5,1.5,0,0,0,2.636,0l.778-1.422a1.5,1.5,0,0,1,.6-.6l1.422-.778A1.5,1.5,0,0,0,266.418,91.031Z"
                transform="translate(-252.371 -262.726)" fill="#d29137" />
            <path id="Path_14" data-name="Path 14"
                d="M79.009,133.623l-1.422.778a1.5,1.5,0,0,0-.6.6l-.778,1.422a1.5,1.5,0,0,1-2.636,0L72.8,135a1.5,1.5,0,0,0-.6-.6l-1.422-.778a1.5,1.5,0,0,1,0-2.636l1.422-.778a1.5,1.5,0,0,0,.6-.6l.778-1.422a1.5,1.5,0,0,1,2.636,0l.778,1.422a1.5,1.5,0,0,0,.6.6l1.422.778A1.5,1.5,0,0,1,79.009,133.623Zm77.335,51.443-1.422-.778a1.5,1.5,0,0,1-.6-.6l-.778-1.422a1.5,1.5,0,0,0-2.636,0l-.778,1.422a1.5,1.5,0,0,1-.6.6l-1.422.778a1.5,1.5,0,0,0,0,2.636l1.422.778a1.5,1.5,0,0,1,.6.6l.778,1.422a1.5,1.5,0,0,0,2.636,0l.778-1.422a1.5,1.5,0,0,1,.6-.6l1.422-.778A1.5,1.5,0,0,0,156.344,185.065Z"
                transform="translate(-48.969 -186.097)" fill="#ffc772" />
            <path id="Path_15" data-name="Path 15"
                d="M252.1,128.44l-1.422.778a1.5,1.5,0,0,0-.6.6l-.778,1.422a1.5,1.5,0,0,1-2.636,0l-.778-1.422a1.5,1.5,0,0,0-.6-.6l-1.422-.778a1.5,1.5,0,0,1,0-2.636l1.422-.778a1.5,1.5,0,0,0,.6-.6l.778-1.422a1.5,1.5,0,0,1,2.636,0l.778,1.422a1.5,1.5,0,0,0,.6.6l1.422.778A1.5,1.5,0,0,1,252.1,128.44Zm-63.092,4.151-1.422-.778a1.5,1.5,0,0,1-.6-.6l-.778-1.422a1.5,1.5,0,0,0-2.636,0l-.778,1.422a1.5,1.5,0,0,1-.6.6l-1.422.778a1.5,1.5,0,0,0,0,2.636L182.2,136a1.5,1.5,0,0,1,.6.6l.778,1.422a1.5,1.5,0,0,0,2.636,0l.778-1.422a1.5,1.5,0,0,1,.6-.6l1.422-.778A1.5,1.5,0,0,0,189.009,132.591ZM228.069,120a6.009,6.009,0,1,0,6.009,6.009A6.009,6.009,0,0,0,228.069,120Z"
                transform="translate(-125.921 -180.914)" fill="#3c5064" />
        </g>
        <g id="_1068561-2" data-name="1068561" transform="translate(93.622 378.51) rotate(30)">
            <path id="Path_2-2" data-name="Path 2" d="M104,52A52,52,0,1,1,52,0,52,52,0,0,1,104,52Z"
                transform="translate(0 -132.061)" fill="#1c1c8b" />
            <path id="Path_3-2" data-name="Path 3"
                d="M64.11,230.417a52.362,52.362,0,0,1-.1,23.592A52.035,52.035,0,0,1,1.4,191.4a52.136,52.136,0,0,1,12.01-1.4q1.338,0,2.661.067a3.852,3.852,0,0,0-.039.515c0,3.979,6.143,7.2,13.72,7.2a22.584,22.584,0,0,0,8.425-1.52,52.166,52.166,0,0,1,11.4,8.375,22.709,22.709,0,0,0-2.515,10.665c0,9.47,5.184,17.147,11.578,17.147A8.742,8.742,0,0,0,64.11,230.417Z"
                transform="translate(0 -283.467)" fill="#64d2cd" />
            <path id="Path_4-2" data-name="Path 4"
                d="M67.611,230.417a52.362,52.362,0,0,1-.1,23.592c-.794.188-1.6.353-2.406.5A69.793,69.793,0,0,1,4.394,193.8c.151-.808.316-1.611.5-2.406a52.136,52.136,0,0,1,12.01-1.4q1.247,0,2.48.058l.181.011a3.861,3.861,0,0,0-.039.513c0,3.979,6.143,7.2,13.72,7.2a22.587,22.587,0,0,0,8.422-1.519,52.165,52.165,0,0,1,11.4,8.374,22.709,22.709,0,0,0-2.515,10.665c0,9.47,5.184,17.147,11.578,17.147A8.742,8.742,0,0,0,67.611,230.417Z"
                transform="translate(-3.501 -283.467)" fill="#8cebeb" />
            <path id="Path_5-2" data-name="Path 5"
                d="M76.374,240.7a4.062,4.062,0,0,1,0,5.745l-6.487,6.487a51.985,51.985,0,0,1-19.377-11.759l6.074-6.074a4.062,4.062,0,0,1,5.745,0L65.2,237.97a4.041,4.041,0,0,1,.937,1.472l1.617-1.617a4.062,4.062,0,0,1,5.745,0Zm7.566-35.953a4.044,4.044,0,0,0-2.56,1.175L65.653,221.648a4.062,4.062,0,0,0,0,5.745l2.873,2.873a4.062,4.062,0,0,0,5.745,0l2.651-2.651c.059.067.116.135.18.2L87,237.709a4.062,4.062,0,0,0,5.745,0l6.082-6.082A51.91,51.91,0,0,0,83.94,204.746ZM57.413,223.488l10.054-10.054a4.063,4.063,0,0,0,0-5.745l-2.873-2.873,8.23-8.23-.011-.006A51.705,51.705,0,0,0,50.388,190.3l-5.9,5.9a4.062,4.062,0,0,0,0,5.745l2.873,2.873-1.436,1.436a4.062,4.062,0,0,0,0,5.745l2.873,2.873a4.063,4.063,0,0,0,0,5.745l2.873,2.873A4.062,4.062,0,0,0,57.413,223.488Z"
                transform="translate(-34.502 -283.703)" fill="#3caf96" />
            <path id="Path_6-2" data-name="Path 6"
                d="M102.722,426.109l-4.534,4.534a51.985,51.985,0,0,1-19.377-11.759l5.576-5.576A69.914,69.914,0,0,0,102.722,426.109Z"
                transform="translate(-62.803 -461.416)" fill="#1e9682" />
            <path id="Path_7-2" data-name="Path 7"
                d="M396.25,200a16.175,16.175,0,0,1,9.956,3.412,52.379,52.379,0,0,1,.607,7.963,51.845,51.845,0,0,1-3.855,19.675A16.25,16.25,0,1,1,396.25,200Z"
                transform="translate(-302.813 -291.436)" fill="#e65aa0" />
            <path id="Path_8-2" data-name="Path 8"
                d="M404.374,216.25a2.031,2.031,0,0,1-2.031,2.031s-8.781-.005-12.677-.014a1.518,1.518,0,0,0-1.472,1.889l.008.03a1.513,1.513,0,0,0,1.47,1.141h8.54a2.078,2.078,0,0,1,2.1,1.9,2.031,2.031,0,0,1-2.027,2.166H393.8a1.514,1.514,0,0,0-1.062,2.6,16.218,16.218,0,0,0,7.373,4.047,16.25,16.25,0,1,1,0-31.57,16.218,16.218,0,0,0-7.373,4.047,1.514,1.514,0,0,0,1.062,2.6h4.413a2.077,2.077,0,0,1,2.08,1.736,2.032,2.032,0,0,1-2.01,2.326h-8.609a1.513,1.513,0,0,0-1.47,1.141l-.008.03a1.518,1.518,0,0,0,1.472,1.889c3.9-.009,12.676-.014,12.676-.014A2.031,2.031,0,0,1,404.374,216.25Z"
                transform="translate(-302.812 -291.436)" fill="#be4178" />
            <path id="Path_9-2" data-name="Path 9"
                d="M133.188,0A12.188,12.188,0,1,1,121,12.188,12.188,12.188,0,0,1,133.188,0Z"
                transform="translate(-96.422 -132.061)" fill="#dca041" />
            <path id="Path_10-2" data-name="Path 10"
                d="M136.082,24.026a12.187,12.187,0,1,1,0-23.677,12.212,12.212,0,0,0-8.61,7.811,3.046,3.046,0,1,1-.537,5.9A12.2,12.2,0,0,0,136.082,24.026Zm-3.1-17.932a2.031,2.031,0,1,0,2.031-2.031A2.031,2.031,0,0,0,132.984,6.094Zm4.063,10.156a2.031,2.031,0,1,0,2.031,2.031A2.031,2.031,0,0,0,137.047,16.25Z"
                transform="translate(-96.422 -132.061)" fill="#b97d23" />
            <path id="Path_11-2" data-name="Path 11"
                d="M398.125,384.063A4.063,4.063,0,1,1,394.063,380,4.062,4.062,0,0,1,398.125,384.063Z"
                transform="translate(-310.781 -434.874)" fill="#6c9baa" />
            <path id="Path_12-2" data-name="Path 12"
                d="M286.091,31.61l-.961.526a1.016,1.016,0,0,0-.4.4l-.526.961a1.016,1.016,0,0,1-1.782,0l-.526-.961a1.017,1.017,0,0,0-.4-.4l-.961-.526a1.015,1.015,0,0,1,0-1.782l.961-.526a1.017,1.017,0,0,0,.4-.4l.526-.961a1.016,1.016,0,0,1,1.782,0l.526.961a1.016,1.016,0,0,0,.4.4l.961.526A1.015,1.015,0,0,1,286.091,31.61Zm6.094,35.307-.961-.526a1.015,1.015,0,0,1-.4-.4l-.526-.961a1.016,1.016,0,0,0-1.782,0l-.526.961a1.016,1.016,0,0,1-.4.4l-.961.526a1.016,1.016,0,0,0,0,1.782l.961.526a1.016,1.016,0,0,1,.4.4l.526.961a1.016,1.016,0,0,0,1.782,0l.526-.961a1.016,1.016,0,0,1,.4-.4l.961-.526A1.016,1.016,0,0,0,292.185,66.917Z"
                transform="translate(-223.124 -153.903)" fill="#b4d7dc" />
            <path id="Path_13-2" data-name="Path 13"
                d="M281.781,61.61l-.961.526a1.016,1.016,0,0,0-.4.4l-.526.961a1.016,1.016,0,0,1-1.782,0l-.526-.961a1.017,1.017,0,0,0-.4-.4l-.961-.526a1.015,1.015,0,0,1,0-1.782l.961-.526a1.017,1.017,0,0,0,.4-.4l.526-.961a1.016,1.016,0,0,1,1.782,0l.526.961a1.016,1.016,0,0,0,.4.4l.961.526A1.015,1.015,0,0,1,281.781,61.61ZM263.5,80.141l-.961-.526a1.017,1.017,0,0,1-.4-.4l-.526-.961a1.016,1.016,0,0,0-1.782,0l-.526.961a1.016,1.016,0,0,1-.4.4l-.961.526a1.015,1.015,0,0,0,0,1.782l.961.526a1.016,1.016,0,0,1,.4.4l.526.961a1.016,1.016,0,0,0,1.782,0l.526-.961a1.017,1.017,0,0,1,.4-.4l.961-.526A1.016,1.016,0,0,0,263.5,80.141Z"
                transform="translate(-254.003 -262.726)" fill="#d29137" />
            <path id="Path_14-2" data-name="Path 14"
                d="M76.091,131.61l-.961.526a1.016,1.016,0,0,0-.4.4l-.526.961a1.016,1.016,0,0,1-1.782,0l-.526-.961a1.016,1.016,0,0,0-.4-.4l-.961-.526a1.015,1.015,0,0,1,0-1.782l.961-.526a1.016,1.016,0,0,0,.4-.4l.526-.961a1.016,1.016,0,0,1,1.782,0l.526.961a1.016,1.016,0,0,0,.4.4l.961.526A1.015,1.015,0,0,1,76.091,131.61Zm52.286,34.78-.961-.526a1.016,1.016,0,0,1-.4-.4l-.526-.961a1.016,1.016,0,0,0-1.782,0l-.526.961a1.016,1.016,0,0,1-.4.4l-.961.526a1.015,1.015,0,0,0,0,1.782l.961.526a1.016,1.016,0,0,1,.4.4l.526.961a1.016,1.016,0,0,0,1.782,0l.526-.961a1.016,1.016,0,0,1,.4-.4l.961-.526A1.015,1.015,0,0,0,128.377,166.391Z"
                transform="translate(-55.78 -233.59)" fill="#ffc772" />
            <path id="Path_15-2" data-name="Path 15"
                d="M228.747,125.706l-.961.526a1.016,1.016,0,0,0-.4.4l-.526.961a1.016,1.016,0,0,1-1.782,0l-.526-.961a1.016,1.016,0,0,0-.4-.4l-.961-.526a1.015,1.015,0,0,1,0-1.782l.961-.526a1.016,1.016,0,0,0,.4-.4l.526-.961a1.016,1.016,0,0,1,1.782,0l.526.961a1.016,1.016,0,0,0,.4.4l.961.526A1.015,1.015,0,0,1,228.747,125.706Zm-42.656,2.807-.961-.526a1.015,1.015,0,0,1-.4-.4l-.526-.961a1.016,1.016,0,0,0-1.782,0l-.526.961a1.016,1.016,0,0,1-.4.4l-.961.526a1.016,1.016,0,0,0,0,1.782l.961.526a1.016,1.016,0,0,1,.4.4l.526.961a1.016,1.016,0,0,0,1.782,0l.526-.961a1.016,1.016,0,0,1,.4-.4l.961-.526A1.016,1.016,0,0,0,186.091,128.513ZM212.5,120a4.063,4.063,0,1,0,4.063,4.063A4.062,4.062,0,0,0,212.5,120Z"
                transform="translate(-143.437 -227.686)" fill="#222324" />
        </g>
        <path id="Path_41" data-name="Path 41"
            d="M311.86,974.976,503.135,737.284c30.181-37.509,30.181-98.317,0-135.821l-54.65-67.91,156.58-194.575c-.066-.048-.135-.091-.2-.139C477.112,252.055,332.272,199.285,178.207,190.3L65.935,329.815c-30.185,37.5-30.185,98.317,0,135.821l54.65,67.911L93.26,567.5c-30.185,37.508-30.185,98.318,0,135.822l54.65,67.911c-30.181,37.509-30.181,98.317,0,135.822l54.65,67.91C232.745,1012.481,281.68,1012.481,311.86,974.976Z"
            transform="matrix(-0.934, 0.358, -0.358, -0.934, 498.255, 1156.839)" fill="#0061d5" opacity="0.53" />
        <g id="Group_5" data-name="Group 5" transform="translate(-280.291 479)">
            <circle id="Ellipse_12" data-name="Ellipse 12" cx="45.5" cy="45.5" r="45.5"
                transform="translate(337.379 -87)" fill="#47109b" />
            <g id="Group_4" data-name="Group 4" transform="translate(337.291 -87)">
                <path id="Path_24" data-name="Path 24"
                    d="M425.689,200a45.477,45.477,0,0,1,27.993,9.593,147.27,147.27,0,0,1,1.705,22.39,145.774,145.774,0,0,1-10.84,55.32A45.688,45.688,0,1,1,425.689,200Z"
                    transform="translate(-379.999 -200)" fill="#e65aa0" />
                <path id="Path_25" data-name="Path 25"
                    d="M448.534,245.689a5.711,5.711,0,0,1-5.711,5.711s-24.689-.015-35.642-.039a4.269,4.269,0,0,0-4.14,5.313l.021.086a4.254,4.254,0,0,0,4.132,3.208H431.2A5.841,5.841,0,0,1,437.1,265.3a5.711,5.711,0,0,1-5.7,6.09H418.8a4.257,4.257,0,0,0-2.985,7.3,45.6,45.6,0,0,0,20.729,11.38,45.689,45.689,0,1,1,0-88.764,45.6,45.6,0,0,0-20.729,11.379,4.257,4.257,0,0,0,2.985,7.3H431.2a5.84,5.84,0,0,1,5.848,4.881,5.714,5.714,0,0,1-5.652,6.541H407.194a4.253,4.253,0,0,0-4.132,3.208l-.021.086a4.27,4.27,0,0,0,4.14,5.313c10.952-.024,35.642-.039,35.642-.039A5.711,5.711,0,0,1,448.534,245.689Z"
                    transform="translate(-379.999 -200)" fill="#be4178" />
            </g>
        </g>
        <path id="Path_26" data-name="Path 26"
            d="M209.135,449.6a21.288,21.288,0,0,1,0,29.558l-32.522,33.373a259.525,259.525,0,0,1-97.148-60.5l30.452-31.249a20,20,0,0,1,28.8,0l14.4,14.78a20.868,20.868,0,0,1,4.7,7.574l8.105-8.318a20,20,0,0,1,28.8,0Zm37.932-184.967a20.051,20.051,0,0,0-12.835,6.044l-78.85,80.912a21.288,21.288,0,0,0,0,29.558l14.4,14.779a20,20,0,0,0,28.8,0l13.29-13.638c.294.345.581.694.9,1.023l49.609,50.907a20,20,0,0,0,28.8,0l30.495-31.292A269.026,269.026,0,0,0,247.067,264.637ZM114.072,361.059l50.407-51.727a21.29,21.29,0,0,0,0-29.558L150.077,265l41.264-42.344-.053-.03A254.241,254.241,0,0,0,78.85,190.3L49.263,220.658a21.288,21.288,0,0,0,0,29.558l14.4,14.779-7.2,7.389a21.288,21.288,0,0,0,0,29.558l14.4,14.779a21.29,21.29,0,0,0,0,29.558l14.4,14.779A20,20,0,0,0,114.072,361.059Z"
            transform="matrix(0.719, 0.695, -0.695, 0.719, 403.892, -112.377)" fill="#3caf96" opacity="0.53" />
        <path id="Path_16" data-name="Path 16"
            d="M297.073,39.183l-2.694,1.473a2.849,2.849,0,0,0-1.132,1.132l-1.473,2.694a2.847,2.847,0,0,1-5,0l-1.473-2.694a2.849,2.849,0,0,0-1.132-1.132l-2.694-1.473a2.846,2.846,0,0,1,0-4.995l2.694-1.473a2.849,2.849,0,0,0,1.132-1.132l1.473-2.694a2.847,2.847,0,0,1,5,0l1.473,2.694a2.849,2.849,0,0,0,1.132,1.132l2.694,1.473A2.846,2.846,0,0,1,297.073,39.183Zm17.079,98.956-2.694-1.473a2.845,2.845,0,0,1-1.132-1.132l-1.473-2.694a2.847,2.847,0,0,0-5,0l-1.473,2.694a2.849,2.849,0,0,1-1.132,1.132l-2.694,1.473a2.847,2.847,0,0,0,0,5l2.694,1.473a2.849,2.849,0,0,1,1.132,1.132l1.473,2.694a2.847,2.847,0,0,0,5,0l1.473-2.694a2.848,2.848,0,0,1,1.132-1.132l2.694-1.473A2.847,2.847,0,0,0,314.152,138.139Z"
            transform="translate(-146.593 85.709)" fill="#b4d7dc" />
        <path id="Path_17" data-name="Path 17"
            d="M325.412,69.108l-2.682,1.464A2.833,2.833,0,0,0,321.6,71.7l-1.467,2.677a2.836,2.836,0,0,1-4.973,0L313.7,71.7a2.833,2.833,0,0,0-1.127-1.124l-2.682-1.464a2.825,2.825,0,0,1,0-4.962l2.682-1.464a2.834,2.834,0,0,0,1.127-1.125l1.467-2.677a2.836,2.836,0,0,1,4.973,0l1.467,2.677a2.833,2.833,0,0,0,1.127,1.125l2.682,1.464A2.825,2.825,0,0,1,325.412,69.108Zm-51.007,51.6-2.682-1.464a2.833,2.833,0,0,1-1.127-1.125l-1.467-2.677a2.836,2.836,0,0,0-4.973,0l-1.467,2.677a2.833,2.833,0,0,1-1.127,1.125l-2.682,1.464a2.825,2.825,0,0,0,0,4.962l2.682,1.464a2.833,2.833,0,0,1,1.127,1.125l1.467,2.677a2.836,2.836,0,0,0,4.973,0l1.467-2.677a2.833,2.833,0,0,1,1.127-1.125l2.682-1.464A2.825,2.825,0,0,0,274.405,120.71Z"
            transform="translate(62.451 -6.211)" fill="#d29137" />
        <path id="Path_27" data-name="Path 27"
            d="M288.048,32.959l-1.27.695a1.343,1.343,0,0,0-.534.534l-.695,1.27a1.342,1.342,0,0,1-2.355,0l-.695-1.27a1.343,1.343,0,0,0-.534-.534l-1.27-.695a1.342,1.342,0,0,1,0-2.354l1.27-.695a1.343,1.343,0,0,0,.534-.534l.695-1.27a1.342,1.342,0,0,1,2.355,0l.695,1.27a1.343,1.343,0,0,0,.534.534l1.27.695A1.342,1.342,0,0,1,288.048,32.959ZM296.1,79.607l-1.27-.695a1.341,1.341,0,0,1-.534-.534l-.695-1.27a1.342,1.342,0,0,0-2.355,0l-.695,1.27a1.343,1.343,0,0,1-.534.534l-1.27.695a1.342,1.342,0,0,0,0,2.355l1.27.695a1.343,1.343,0,0,1,.534.534l.695,1.27a1.342,1.342,0,0,0,2.355,0l.695-1.27a1.343,1.343,0,0,1,.534-.534l1.27-.695A1.342,1.342,0,0,0,296.1,79.607Z"
            transform="translate(9.243 222.466)" fill="#b4d7dc" />
        <path id="Path_28" data-name="Path 28"
            d="M284.529,30.533l-.715.391a.756.756,0,0,0-.3.3l-.391.715a.755.755,0,0,1-1.325,0l-.391-.715a.756.756,0,0,0-.3-.3l-.715-.391a.755.755,0,0,1,0-1.325l.715-.391a.756.756,0,0,0,.3-.3l.391-.715a.755.755,0,0,1,1.325,0l.391.715a.756.756,0,0,0,.3.3l.715.391A.755.755,0,0,1,284.529,30.533Zm4.532,26.257-.715-.391a.755.755,0,0,1-.3-.3l-.391-.715a.755.755,0,0,0-1.325,0l-.391.715a.756.756,0,0,1-.3.3l-.715.391a.755.755,0,0,0,0,1.325l.715.391a.756.756,0,0,1,.3.3l.391.715a.755.755,0,0,0,1.325,0l.391-.715a.756.756,0,0,1,.3-.3l.715-.391A.755.755,0,0,0,289.061,56.79Z"
            transform="translate(-63.593 105.709)" fill="#b4d7dc" />
        <path id="Path_31" data-name="Path 31"
            d="M277.386,60.846l-.788.43a.833.833,0,0,0-.331.33l-.431.786a.833.833,0,0,1-1.461,0l-.431-.786a.832.832,0,0,0-.331-.33l-.788-.43a.83.83,0,0,1,0-1.458l.788-.43a.833.833,0,0,0,.331-.33l.431-.786a.833.833,0,0,1,1.461,0l.431.786a.833.833,0,0,0,.331.33l.788.43A.83.83,0,0,1,277.386,60.846ZM262.4,76.006l-.788-.43a.832.832,0,0,1-.331-.33l-.431-.786a.833.833,0,0,0-1.461,0l-.431.786a.832.832,0,0,1-.331.33l-.788.43a.83.83,0,0,0,0,1.458l.788.43a.832.832,0,0,1,.331.33l.431.786a.833.833,0,0,0,1.461,0l.431-.786a.832.832,0,0,1,.331-.33l.788-.43A.83.83,0,0,0,262.4,76.006Z"
            transform="translate(-139.549 -30.245)" fill="#d29137" />
        <path id="Path_32" data-name="Path 32"
            d="M276.6,61.276a.833.833,0,0,0-.331.33l-.431.786a.833.833,0,0,1-1.461,0l-.431-.786a.832.832,0,0,0-.331-.33l-.788-.43a.83.83,0,0,1,0-1.458l.788-.43a.833.833,0,0,0,.331-.33l.431-.786a.833.833,0,0,1,1.461,0l.431.786a.833.833,0,0,0,.331.33l.788.43Z"
            transform="translate(-38.549 112.755)" fill="#d29137" />
        <path id="Path_32-2" data-name="Path 32"
            d="M276.6,61.276a.833.833,0,0,0-.331.33l-.431.786a.833.833,0,0,1-1.461,0l-.431-.786a.832.832,0,0,0-.331-.33l-.788-.43a.83.83,0,0,1,0-1.458l.788-.43a.833.833,0,0,0,.331-.33l.431-.786a.833.833,0,0,1,1.461,0l.431.786a.833.833,0,0,0,.331.33l.788.43Z"
            transform="translate(-82.549 13.755)" fill="#d29137" />
        <g id="Group_6" data-name="Group 6" transform="translate(-145 138)">
            <path id="Path_32-3" data-name="Path 32"
                d="M276.6,61.276a.833.833,0,0,0-.331.33l-.431.786a.833.833,0,0,1-1.461,0l-.431-.786a.832.832,0,0,0-.331-.33l-.788-.43a.83.83,0,0,1,0-1.458l.788-.43a.833.833,0,0,0,.331-.33l.431-.786a.833.833,0,0,1,1.461,0l.431.786a.833.833,0,0,0,.331.33l.788.43Z"
                transform="translate(-90.549 -133.245)" fill="#d29137" />
            <path id="Path_35" data-name="Path 35"
                d="M276.6,61.276a.833.833,0,0,0-.331.33l-.431.786a.833.833,0,0,1-1.461,0l-.431-.786a.832.832,0,0,0-.331-.33l-.788-.43a.83.83,0,0,1,0-1.458l.788-.43a.833.833,0,0,0,.331-.33l.431-.786a.833.833,0,0,1,1.461,0l.431.786a.833.833,0,0,0,.331.33l.788.43Z"
                transform="translate(-78.549 -142.245)" fill="#d29137" />
            <path id="Path_39" data-name="Path 39"
                d="M276.6,61.276a.833.833,0,0,0-.331.33l-.431.786a.833.833,0,0,1-1.461,0l-.431-.786a.832.832,0,0,0-.331-.33l-.788-.43a.83.83,0,0,1,0-1.458l.788-.43a.833.833,0,0,0,.331-.33l.431-.786a.833.833,0,0,1,1.461,0l.431.786a.833.833,0,0,0,.331.33l.788.43Z"
                transform="translate(-80.549 -173.245)" fill="#d29137" />
            <path id="Path_40" data-name="Path 40"
                d="M276.6,61.276a.833.833,0,0,0-.331.33l-.431.786a.833.833,0,0,1-1.461,0l-.431-.786a.832.832,0,0,0-.331-.33l-.788-.43a.83.83,0,0,1,0-1.458l.788-.43a.833.833,0,0,0,.331-.33l.431-.786a.833.833,0,0,1,1.461,0l.431.786a.833.833,0,0,0,.331.33l.788.43Z"
                transform="translate(-51.549 -184.245)" fill="#d29137" />
            <path id="Path_37" data-name="Path 37"
                d="M276.6,61.276a.833.833,0,0,0-.331.33l-.431.786a.833.833,0,0,1-1.461,0l-.431-.786a.832.832,0,0,0-.331-.33l-.788-.43a.83.83,0,0,1,0-1.458l.788-.43a.833.833,0,0,0,.331-.33l.431-.786a.833.833,0,0,1,1.461,0l.431.786a.833.833,0,0,0,.331.33l.788.43Z"
                transform="translate(-44.549 -153.245)" fill="#d29137" />
            <path id="Path_36" data-name="Path 36"
                d="M281.541,65.82a1.812,1.812,0,0,0-.72.719l-.937,1.71a1.813,1.813,0,0,1-3.178,0l-.937-1.71a1.811,1.811,0,0,0-.72-.719l-1.714-.935a1.805,1.805,0,0,1,0-3.171l1.714-.935a1.811,1.811,0,0,0,.72-.719l.937-1.71a1.813,1.813,0,0,1,3.178,0l.937,1.71a1.811,1.811,0,0,0,.72.719l1.714.935Z"
                transform="translate(-54.417 -128.245)" fill="#d29137" />
            <path id="Path_33" data-name="Path 33"
                d="M284.529,30.533l-.715.391a.756.756,0,0,0-.3.3l-.391.715a.755.755,0,0,1-1.325,0l-.391-.715a.756.756,0,0,0-.3-.3l-.715-.391a.755.755,0,0,1,0-1.325l.715-.391a.756.756,0,0,0,.3-.3l.391-.715a.755.755,0,0,1,1.325,0l.391.715a.756.756,0,0,0,.3.3l.715.391A.755.755,0,0,1,284.529,30.533Zm4.532,26.257-.715-.391a.755.755,0,0,1-.3-.3l-.391-.715a.755.755,0,0,0-1.325,0l-.391.715a.756.756,0,0,1-.3.3l-.715.391a.755.755,0,0,0,0,1.325l.715.391a.756.756,0,0,1,.3.3l.391.715a.755.755,0,0,0,1.325,0l.391-.715a.756.756,0,0,1,.3-.3l.715-.391A.755.755,0,0,0,289.061,56.79Z"
                transform="translate(-51.593 -139.291)" fill="#b4d7dc" />
            <path id="Path_38" data-name="Path 38"
                d="M284.529,30.533l-.715.391a.756.756,0,0,0-.3.3l-.391.715a.755.755,0,0,1-1.325,0l-.391-.715a.756.756,0,0,0-.3-.3l-.715-.391a.755.755,0,0,1,0-1.325l.715-.391a.756.756,0,0,0,.3-.3l.391-.715a.755.755,0,0,1,1.325,0l.391.715a.756.756,0,0,0,.3.3l.715.391A.755.755,0,0,1,284.529,30.533Zm4.532,26.257-.715-.391a.755.755,0,0,1-.3-.3l-.391-.715a.755.755,0,0,0-1.325,0l-.391.715a.756.756,0,0,1-.3.3l-.715.391a.755.755,0,0,0,0,1.325l.715.391a.756.756,0,0,1,.3.3l.391.715a.755.755,0,0,0,1.325,0l.391-.715a.756.756,0,0,1,.3-.3l.715-.391A.755.755,0,0,0,289.061,56.79Z"
                transform="translate(79.113 -363.093) rotate(56)" fill="#b4d7dc" />
            <path id="Path_34" data-name="Path 34"
                d="M286.612,31.969l-1.043.571a1.1,1.1,0,0,0-.438.438l-.571,1.043a1.1,1.1,0,0,1-1.935,0l-.571-1.043a1.1,1.1,0,0,0-.438-.438l-1.043-.571a1.1,1.1,0,0,1,0-1.934l1.043-.571a1.1,1.1,0,0,0,.438-.438l.571-1.043a1.1,1.1,0,0,1,1.935,0l.571,1.043a1.1,1.1,0,0,0,.438.438l1.043.571A1.1,1.1,0,0,1,286.612,31.969Zm6.615,38.325-1.043-.571a1.1,1.1,0,0,1-.438-.438l-.571-1.043a1.1,1.1,0,0,0-1.935,0l-.571,1.043a1.1,1.1,0,0,1-.438.438l-1.043.571a1.1,1.1,0,0,0,0,1.935l1.043.571a1.1,1.1,0,0,1,.438.438l.571,1.043a1.1,1.1,0,0,0,1.935,0l.571-1.043a1.1,1.1,0,0,1,.438-.438l1.043-.571A1.1,1.1,0,0,0,293.227,70.295Z"
                transform="matrix(0.454, -0.891, 0.891, 0.454, 12.338, 127.723)" fill="#b4d7dc" />
        </g>
        <g id="Group_7" data-name="Group 7" transform="matrix(0.602, -0.799, 0.799, 0.602, 150.213, 513.411)">
            <path id="Path_32-4" data-name="Path 32"
                d="M276.6,61.276a.833.833,0,0,0-.331.33l-.431.786a.833.833,0,0,1-1.461,0l-.431-.786a.832.832,0,0,0-.331-.33l-.788-.43a.83.83,0,0,1,0-1.458l.788-.43a.833.833,0,0,0,.331-.33l.431-.786a.833.833,0,0,1,1.461,0l.431.786a.833.833,0,0,0,.331.33l.788.43Z"
                transform="translate(-90.549 -133.245)" fill="#d29137" />
            <path id="Path_35-2" data-name="Path 35"
                d="M276.6,61.276a.833.833,0,0,0-.331.33l-.431.786a.833.833,0,0,1-1.461,0l-.431-.786a.832.832,0,0,0-.331-.33l-.788-.43a.83.83,0,0,1,0-1.458l.788-.43a.833.833,0,0,0,.331-.33l.431-.786a.833.833,0,0,1,1.461,0l.431.786a.833.833,0,0,0,.331.33l.788.43Z"
                transform="translate(-78.549 -142.245)" fill="#d29137" />
            <path id="Path_39-2" data-name="Path 39"
                d="M276.6,61.276a.833.833,0,0,0-.331.33l-.431.786a.833.833,0,0,1-1.461,0l-.431-.786a.832.832,0,0,0-.331-.33l-.788-.43a.83.83,0,0,1,0-1.458l.788-.43a.833.833,0,0,0,.331-.33l.431-.786a.833.833,0,0,1,1.461,0l.431.786a.833.833,0,0,0,.331.33l.788.43Z"
                transform="translate(-80.549 -173.245)" fill="#d29137" />
            <path id="Path_40-2" data-name="Path 40"
                d="M276.6,61.276a.833.833,0,0,0-.331.33l-.431.786a.833.833,0,0,1-1.461,0l-.431-.786a.832.832,0,0,0-.331-.33l-.788-.43a.83.83,0,0,1,0-1.458l.788-.43a.833.833,0,0,0,.331-.33l.431-.786a.833.833,0,0,1,1.461,0l.431.786a.833.833,0,0,0,.331.33l.788.43Z"
                transform="translate(-51.549 -184.245)" fill="#d29137" />
            <path id="Path_37-2" data-name="Path 37"
                d="M276.6,61.276a.833.833,0,0,0-.331.33l-.431.786a.833.833,0,0,1-1.461,0l-.431-.786a.832.832,0,0,0-.331-.33l-.788-.43a.83.83,0,0,1,0-1.458l.788-.43a.833.833,0,0,0,.331-.33l.431-.786a.833.833,0,0,1,1.461,0l.431.786a.833.833,0,0,0,.331.33l.788.43Z"
                transform="translate(-44.549 -153.245)" fill="#d29137" />
            <path id="Path_36-2" data-name="Path 36"
                d="M281.541,65.82a1.812,1.812,0,0,0-.72.719l-.937,1.71a1.813,1.813,0,0,1-3.178,0l-.937-1.71a1.811,1.811,0,0,0-.72-.719l-1.714-.935a1.805,1.805,0,0,1,0-3.171l1.714-.935a1.811,1.811,0,0,0,.72-.719l.937-1.71a1.813,1.813,0,0,1,3.178,0l.937,1.71a1.811,1.811,0,0,0,.72.719l1.714.935Z"
                transform="translate(-54.417 -128.245)" fill="#d29137" />
            <path id="Path_33-2" data-name="Path 33"
                d="M284.529,30.533l-.715.391a.756.756,0,0,0-.3.3l-.391.715a.755.755,0,0,1-1.325,0l-.391-.715a.756.756,0,0,0-.3-.3l-.715-.391a.755.755,0,0,1,0-1.325l.715-.391a.756.756,0,0,0,.3-.3l.391-.715a.755.755,0,0,1,1.325,0l.391.715a.756.756,0,0,0,.3.3l.715.391A.755.755,0,0,1,284.529,30.533Zm4.532,26.257-.715-.391a.755.755,0,0,1-.3-.3l-.391-.715a.755.755,0,0,0-1.325,0l-.391.715a.756.756,0,0,1-.3.3l-.715.391a.755.755,0,0,0,0,1.325l.715.391a.756.756,0,0,1,.3.3l.391.715a.755.755,0,0,0,1.325,0l.391-.715a.756.756,0,0,1,.3-.3l.715-.391A.755.755,0,0,0,289.061,56.79Z"
                transform="translate(-51.593 -139.291)" fill="#b4d7dc" />
            <path id="Path_38-2" data-name="Path 38"
                d="M284.529,30.533l-.715.391a.756.756,0,0,0-.3.3l-.391.715a.755.755,0,0,1-1.325,0l-.391-.715a.756.756,0,0,0-.3-.3l-.715-.391a.755.755,0,0,1,0-1.325l.715-.391a.756.756,0,0,0,.3-.3l.391-.715a.755.755,0,0,1,1.325,0l.391.715a.756.756,0,0,0,.3.3l.715.391A.755.755,0,0,1,284.529,30.533Zm4.532,26.257-.715-.391a.755.755,0,0,1-.3-.3l-.391-.715a.755.755,0,0,0-1.325,0l-.391.715a.756.756,0,0,1-.3.3l-.715.391a.755.755,0,0,0,0,1.325l.715.391a.756.756,0,0,1,.3.3l.391.715a.755.755,0,0,0,1.325,0l.391-.715a.756.756,0,0,1,.3-.3l.715-.391A.755.755,0,0,0,289.061,56.79Z"
                transform="translate(79.113 -363.093) rotate(56)" fill="#b4d7dc" />
            <path id="Path_34-2" data-name="Path 34"
                d="M286.612,31.969l-1.043.571a1.1,1.1,0,0,0-.438.438l-.571,1.043a1.1,1.1,0,0,1-1.935,0l-.571-1.043a1.1,1.1,0,0,0-.438-.438l-1.043-.571a1.1,1.1,0,0,1,0-1.934l1.043-.571a1.1,1.1,0,0,0,.438-.438l.571-1.043a1.1,1.1,0,0,1,1.935,0l.571,1.043a1.1,1.1,0,0,0,.438.438l1.043.571A1.1,1.1,0,0,1,286.612,31.969Zm6.615,38.325-1.043-.571a1.1,1.1,0,0,1-.438-.438l-.571-1.043a1.1,1.1,0,0,0-1.935,0l-.571,1.043a1.1,1.1,0,0,1-.438.438l-1.043.571a1.1,1.1,0,0,0,0,1.935l1.043.571a1.1,1.1,0,0,1,.438.438l.571,1.043a1.1,1.1,0,0,0,1.935,0l.571-1.043a1.1,1.1,0,0,1,.438-.438l1.043-.571A1.1,1.1,0,0,0,293.227,70.295Z"
                transform="matrix(0.454, -0.891, 0.891, 0.454, 12.338, 127.723)" fill="#b4d7dc" />
        </g>
        <g id="Group_3" data-name="Group 3" transform="translate(-253 491)">
            <path id="Path_18-2" data-name="Path 18"
                d="M155.159,0A34.158,34.158,0,1,1,121,34.158,34.159,34.159,0,0,1,155.159,0Z"
                transform="translate(167.886 196.514)" fill="#dca041" />
            <path id="Path_19-2" data-name="Path 19"
                d="M163.271,67.339a34.158,34.158,0,1,1,0-66.362,34.227,34.227,0,0,0-24.132,21.892A8.536,8.536,0,1,1,137.633,39.4,34.187,34.187,0,0,0,163.271,67.339Zm-8.682-50.26a5.693,5.693,0,1,0,5.693-5.693A5.693,5.693,0,0,0,154.589,17.079Zm11.386,28.465a5.693,5.693,0,1,0,5.693,5.693A5.693,5.693,0,0,0,165.975,45.545Z"
                transform="translate(167.886 196.514)" fill="#b97d23" />
        </g>
        <g id="Group_11" data-name="Group 11" transform="translate(-16 242)">
            <path id="Path_18-3" data-name="Path 18"
                d="M155.159,0A34.158,34.158,0,1,1,121,34.158,34.159,34.159,0,0,1,155.159,0Z"
                transform="translate(167.886 196.514)" fill="#150341" />
            <path id="Path_19-3" data-name="Path 19"
                d="M163.271,67.339a34.158,34.158,0,1,1,0-66.362,34.227,34.227,0,0,0-24.132,21.892A8.536,8.536,0,1,1,137.633,39.4,34.187,34.187,0,0,0,163.271,67.339Zm-8.682-50.26a5.693,5.693,0,1,0,5.693-5.693A5.693,5.693,0,0,0,154.589,17.079Zm11.386,28.465a5.693,5.693,0,1,0,5.693,5.693A5.693,5.693,0,0,0,165.975,45.545Z"
                transform="translate(167.886 196.514)" fill="#1b3962" />
        </g>
        <path id="Path_21" data-name="Path 21"
            d="M325.412,69.108l-2.682,1.464A2.833,2.833,0,0,0,321.6,71.7l-1.467,2.677a2.836,2.836,0,0,1-4.973,0L313.7,71.7a2.833,2.833,0,0,0-1.127-1.124l-2.682-1.464a2.825,2.825,0,0,1,0-4.962l2.682-1.464a2.834,2.834,0,0,0,1.127-1.125l1.467-2.677a2.836,2.836,0,0,1,4.973,0l1.467,2.677a2.833,2.833,0,0,0,1.127,1.125l2.682,1.464A2.825,2.825,0,0,1,325.412,69.108Zm-51.007,51.6-2.682-1.464a2.833,2.833,0,0,1-1.127-1.125l-1.467-2.677a2.836,2.836,0,0,0-4.973,0l-1.467,2.677a2.833,2.833,0,0,1-1.127,1.125l-2.682,1.464a2.825,2.825,0,0,0,0,4.962l2.682,1.464a2.833,2.833,0,0,1,1.127,1.125l1.467,2.677a2.836,2.836,0,0,0,4.973,0l1.467-2.677a2.833,2.833,0,0,1,1.127-1.125l2.682-1.464A2.825,2.825,0,0,0,274.405,120.71Z"
            transform="matrix(0.719, 0.695, -0.695, 0.719, -85.626, 259.483)" fill="#d29137" />
        <path id="Path_42" data-name="Path 42"
            d="M325.412,69.108l-2.682,1.464A2.833,2.833,0,0,0,321.6,71.7l-1.467,2.677a2.836,2.836,0,0,1-4.973,0L313.7,71.7a2.833,2.833,0,0,0-1.127-1.124l-2.682-1.464a2.825,2.825,0,0,1,0-4.962l2.682-1.464a2.834,2.834,0,0,0,1.127-1.125l1.467-2.677a2.836,2.836,0,0,1,4.973,0l1.467,2.677a2.833,2.833,0,0,0,1.127,1.125l2.682,1.464A2.825,2.825,0,0,1,325.412,69.108Zm-51.007,51.6-2.682-1.464a2.833,2.833,0,0,1-1.127-1.125l-1.467-2.677a2.836,2.836,0,0,0-4.973,0l-1.467,2.677a2.833,2.833,0,0,1-1.127,1.125l-2.682,1.464a2.825,2.825,0,0,0,0,4.962l2.682,1.464a2.833,2.833,0,0,1,1.127,1.125l1.467,2.677a2.836,2.836,0,0,0,4.973,0l1.467-2.677a2.833,2.833,0,0,1,1.127-1.125l2.682-1.464A2.825,2.825,0,0,0,274.405,120.71Z"
            transform="translate(-65.549 612.789)" fill="#d29137" />
        <g id="Group_8" data-name="Group 8" transform="translate(-10.575 723.62) rotate(-11)">
            <path id="Path_32-5" data-name="Path 32"
                d="M276.6,61.276a.833.833,0,0,0-.331.33l-.431.786a.833.833,0,0,1-1.461,0l-.431-.786a.832.832,0,0,0-.331-.33l-.788-.43a.83.83,0,0,1,0-1.458l.788-.43a.833.833,0,0,0,.331-.33l.431-.786a.833.833,0,0,1,1.461,0l.431.786a.833.833,0,0,0,.331.33l.788.43Z"
                transform="translate(-90.549 -133.245)" fill="#d29137" />
            <path id="Path_35-3" data-name="Path 35"
                d="M276.6,61.276a.833.833,0,0,0-.331.33l-.431.786a.833.833,0,0,1-1.461,0l-.431-.786a.832.832,0,0,0-.331-.33l-.788-.43a.83.83,0,0,1,0-1.458l.788-.43a.833.833,0,0,0,.331-.33l.431-.786a.833.833,0,0,1,1.461,0l.431.786a.833.833,0,0,0,.331.33l.788.43Z"
                transform="translate(-78.549 -142.245)" fill="#d29137" />
            <path id="Path_39-3" data-name="Path 39"
                d="M276.6,61.276a.833.833,0,0,0-.331.33l-.431.786a.833.833,0,0,1-1.461,0l-.431-.786a.832.832,0,0,0-.331-.33l-.788-.43a.83.83,0,0,1,0-1.458l.788-.43a.833.833,0,0,0,.331-.33l.431-.786a.833.833,0,0,1,1.461,0l.431.786a.833.833,0,0,0,.331.33l.788.43Z"
                transform="translate(-80.549 -173.245)" fill="#d29137" />
            <path id="Path_40-3" data-name="Path 40"
                d="M276.6,61.276a.833.833,0,0,0-.331.33l-.431.786a.833.833,0,0,1-1.461,0l-.431-.786a.832.832,0,0,0-.331-.33l-.788-.43a.83.83,0,0,1,0-1.458l.788-.43a.833.833,0,0,0,.331-.33l.431-.786a.833.833,0,0,1,1.461,0l.431.786a.833.833,0,0,0,.331.33l.788.43Z"
                transform="translate(-51.549 -184.245)" fill="#d29137" />
            <path id="Path_37-3" data-name="Path 37"
                d="M276.6,61.276a.833.833,0,0,0-.331.33l-.431.786a.833.833,0,0,1-1.461,0l-.431-.786a.832.832,0,0,0-.331-.33l-.788-.43a.83.83,0,0,1,0-1.458l.788-.43a.833.833,0,0,0,.331-.33l.431-.786a.833.833,0,0,1,1.461,0l.431.786a.833.833,0,0,0,.331.33l.788.43Z"
                transform="translate(-44.549 -153.245)" fill="#d29137" />
            <path id="Path_36-3" data-name="Path 36"
                d="M281.541,65.82a1.812,1.812,0,0,0-.72.719l-.937,1.71a1.813,1.813,0,0,1-3.178,0l-.937-1.71a1.811,1.811,0,0,0-.72-.719l-1.714-.935a1.805,1.805,0,0,1,0-3.171l1.714-.935a1.811,1.811,0,0,0,.72-.719l.937-1.71a1.813,1.813,0,0,1,3.178,0l.937,1.71a1.811,1.811,0,0,0,.72.719l1.714.935Z"
                transform="translate(-54.417 -128.245)" fill="#d29137" />
            <path id="Path_33-3" data-name="Path 33"
                d="M284.529,30.533l-.715.391a.756.756,0,0,0-.3.3l-.391.715a.755.755,0,0,1-1.325,0l-.391-.715a.756.756,0,0,0-.3-.3l-.715-.391a.755.755,0,0,1,0-1.325l.715-.391a.756.756,0,0,0,.3-.3l.391-.715a.755.755,0,0,1,1.325,0l.391.715a.756.756,0,0,0,.3.3l.715.391A.755.755,0,0,1,284.529,30.533Zm4.532,26.257-.715-.391a.755.755,0,0,1-.3-.3l-.391-.715a.755.755,0,0,0-1.325,0l-.391.715a.756.756,0,0,1-.3.3l-.715.391a.755.755,0,0,0,0,1.325l.715.391a.756.756,0,0,1,.3.3l.391.715a.755.755,0,0,0,1.325,0l.391-.715a.756.756,0,0,1,.3-.3l.715-.391A.755.755,0,0,0,289.061,56.79Z"
                transform="translate(-51.593 -139.291)" fill="#b4d7dc" />
            <path id="Path_38-3" data-name="Path 38"
                d="M284.529,30.533l-.715.391a.756.756,0,0,0-.3.3l-.391.715a.755.755,0,0,1-1.325,0l-.391-.715a.756.756,0,0,0-.3-.3l-.715-.391a.755.755,0,0,1,0-1.325l.715-.391a.756.756,0,0,0,.3-.3l.391-.715a.755.755,0,0,1,1.325,0l.391.715a.756.756,0,0,0,.3.3l.715.391A.755.755,0,0,1,284.529,30.533Zm4.532,26.257-.715-.391a.755.755,0,0,1-.3-.3l-.391-.715a.755.755,0,0,0-1.325,0l-.391.715a.756.756,0,0,1-.3.3l-.715.391a.755.755,0,0,0,0,1.325l.715.391a.756.756,0,0,1,.3.3l.391.715a.755.755,0,0,0,1.325,0l.391-.715a.756.756,0,0,1,.3-.3l.715-.391A.755.755,0,0,0,289.061,56.79Z"
                transform="translate(79.113 -363.093) rotate(56)" fill="#b4d7dc" />
            <path id="Path_34-3" data-name="Path 34"
                d="M286.612,31.969l-1.043.571a1.1,1.1,0,0,0-.438.438l-.571,1.043a1.1,1.1,0,0,1-1.935,0l-.571-1.043a1.1,1.1,0,0,0-.438-.438l-1.043-.571a1.1,1.1,0,0,1,0-1.934l1.043-.571a1.1,1.1,0,0,0,.438-.438l.571-1.043a1.1,1.1,0,0,1,1.935,0l.571,1.043a1.1,1.1,0,0,0,.438.438l1.043.571A1.1,1.1,0,0,1,286.612,31.969Zm6.615,38.325-1.043-.571a1.1,1.1,0,0,1-.438-.438l-.571-1.043a1.1,1.1,0,0,0-1.935,0l-.571,1.043a1.1,1.1,0,0,1-.438.438l-1.043.571a1.1,1.1,0,0,0,0,1.935l1.043.571a1.1,1.1,0,0,1,.438.438l.571,1.043a1.1,1.1,0,0,0,1.935,0l.571-1.043a1.1,1.1,0,0,1,.438-.438l1.043-.571A1.1,1.1,0,0,0,293.227,70.295Z"
                transform="matrix(0.454, -0.891, 0.891, 0.454, 12.338, 127.723)" fill="#b4d7dc" />
        </g>
        <g id="Group_10" data-name="Group 10" transform="translate(62.425 889.62) rotate(-11)">
            <path id="Path_32-6" data-name="Path 32"
                d="M276.6,61.276a.833.833,0,0,0-.331.33l-.431.786a.833.833,0,0,1-1.461,0l-.431-.786a.832.832,0,0,0-.331-.33l-.788-.43a.83.83,0,0,1,0-1.458l.788-.43a.833.833,0,0,0,.331-.33l.431-.786a.833.833,0,0,1,1.461,0l.431.786a.833.833,0,0,0,.331.33l.788.43Z"
                transform="translate(-90.549 -133.245)" fill="#d29137" />
            <path id="Path_35-4" data-name="Path 35"
                d="M276.6,61.276a.833.833,0,0,0-.331.33l-.431.786a.833.833,0,0,1-1.461,0l-.431-.786a.832.832,0,0,0-.331-.33l-.788-.43a.83.83,0,0,1,0-1.458l.788-.43a.833.833,0,0,0,.331-.33l.431-.786a.833.833,0,0,1,1.461,0l.431.786a.833.833,0,0,0,.331.33l.788.43Z"
                transform="translate(-78.549 -142.245)" fill="#d29137" />
            <path id="Path_39-4" data-name="Path 39"
                d="M276.6,61.276a.833.833,0,0,0-.331.33l-.431.786a.833.833,0,0,1-1.461,0l-.431-.786a.832.832,0,0,0-.331-.33l-.788-.43a.83.83,0,0,1,0-1.458l.788-.43a.833.833,0,0,0,.331-.33l.431-.786a.833.833,0,0,1,1.461,0l.431.786a.833.833,0,0,0,.331.33l.788.43Z"
                transform="translate(-80.549 -173.245)" fill="#d29137" />
            <path id="Path_40-4" data-name="Path 40"
                d="M276.6,61.276a.833.833,0,0,0-.331.33l-.431.786a.833.833,0,0,1-1.461,0l-.431-.786a.832.832,0,0,0-.331-.33l-.788-.43a.83.83,0,0,1,0-1.458l.788-.43a.833.833,0,0,0,.331-.33l.431-.786a.833.833,0,0,1,1.461,0l.431.786a.833.833,0,0,0,.331.33l.788.43Z"
                transform="translate(-51.549 -184.245)" fill="#d29137" />
            <path id="Path_37-4" data-name="Path 37"
                d="M276.6,61.276a.833.833,0,0,0-.331.33l-.431.786a.833.833,0,0,1-1.461,0l-.431-.786a.832.832,0,0,0-.331-.33l-.788-.43a.83.83,0,0,1,0-1.458l.788-.43a.833.833,0,0,0,.331-.33l.431-.786a.833.833,0,0,1,1.461,0l.431.786a.833.833,0,0,0,.331.33l.788.43Z"
                transform="translate(-44.549 -153.245)" fill="#d29137" />
            <path id="Path_36-4" data-name="Path 36"
                d="M281.541,65.82a1.812,1.812,0,0,0-.72.719l-.937,1.71a1.813,1.813,0,0,1-3.178,0l-.937-1.71a1.811,1.811,0,0,0-.72-.719l-1.714-.935a1.805,1.805,0,0,1,0-3.171l1.714-.935a1.811,1.811,0,0,0,.72-.719l.937-1.71a1.813,1.813,0,0,1,3.178,0l.937,1.71a1.811,1.811,0,0,0,.72.719l1.714.935Z"
                transform="translate(-54.417 -128.245)" fill="#d29137" />
            <path id="Path_33-4" data-name="Path 33"
                d="M284.529,30.533l-.715.391a.756.756,0,0,0-.3.3l-.391.715a.755.755,0,0,1-1.325,0l-.391-.715a.756.756,0,0,0-.3-.3l-.715-.391a.755.755,0,0,1,0-1.325l.715-.391a.756.756,0,0,0,.3-.3l.391-.715a.755.755,0,0,1,1.325,0l.391.715a.756.756,0,0,0,.3.3l.715.391A.755.755,0,0,1,284.529,30.533Zm4.532,26.257-.715-.391a.755.755,0,0,1-.3-.3l-.391-.715a.755.755,0,0,0-1.325,0l-.391.715a.756.756,0,0,1-.3.3l-.715.391a.755.755,0,0,0,0,1.325l.715.391a.756.756,0,0,1,.3.3l.391.715a.755.755,0,0,0,1.325,0l.391-.715a.756.756,0,0,1,.3-.3l.715-.391A.755.755,0,0,0,289.061,56.79Z"
                transform="translate(-51.593 -139.291)" fill="#b4d7dc" />
            <path id="Path_38-4" data-name="Path 38"
                d="M284.529,30.533l-.715.391a.756.756,0,0,0-.3.3l-.391.715a.755.755,0,0,1-1.325,0l-.391-.715a.756.756,0,0,0-.3-.3l-.715-.391a.755.755,0,0,1,0-1.325l.715-.391a.756.756,0,0,0,.3-.3l.391-.715a.755.755,0,0,1,1.325,0l.391.715a.756.756,0,0,0,.3.3l.715.391A.755.755,0,0,1,284.529,30.533Zm4.532,26.257-.715-.391a.755.755,0,0,1-.3-.3l-.391-.715a.755.755,0,0,0-1.325,0l-.391.715a.756.756,0,0,1-.3.3l-.715.391a.755.755,0,0,0,0,1.325l.715.391a.756.756,0,0,1,.3.3l.391.715a.755.755,0,0,0,1.325,0l.391-.715a.756.756,0,0,1,.3-.3l.715-.391A.755.755,0,0,0,289.061,56.79Z"
                transform="translate(79.113 -363.093) rotate(56)" fill="#b4d7dc" />
            <path id="Path_34-4" data-name="Path 34"
                d="M286.612,31.969l-1.043.571a1.1,1.1,0,0,0-.438.438l-.571,1.043a1.1,1.1,0,0,1-1.935,0l-.571-1.043a1.1,1.1,0,0,0-.438-.438l-1.043-.571a1.1,1.1,0,0,1,0-1.934l1.043-.571a1.1,1.1,0,0,0,.438-.438l.571-1.043a1.1,1.1,0,0,1,1.935,0l.571,1.043a1.1,1.1,0,0,0,.438.438l1.043.571A1.1,1.1,0,0,1,286.612,31.969Zm6.615,38.325-1.043-.571a1.1,1.1,0,0,1-.438-.438l-.571-1.043a1.1,1.1,0,0,0-1.935,0l-.571,1.043a1.1,1.1,0,0,1-.438.438l-1.043.571a1.1,1.1,0,0,0,0,1.935l1.043.571a1.1,1.1,0,0,1,.438.438l.571,1.043a1.1,1.1,0,0,0,1.935,0l.571-1.043a1.1,1.1,0,0,1,.438-.438l1.043-.571A1.1,1.1,0,0,0,293.227,70.295Z"
                transform="matrix(0.454, -0.891, 0.891, 0.454, 12.338, 127.723)" fill="#b4d7dc" />
        </g>
        <g id="Group_9" data-name="Group 9" transform="translate(155.576 311.034) rotate(88)">
            <path id="Path_32-7" data-name="Path 32"
                d="M277.532,62.134a1.017,1.017,0,0,0-.4.4l-.527.961a1.018,1.018,0,0,1-1.785,0l-.527-.961a1.017,1.017,0,0,0-.4-.4l-.963-.526a1.014,1.014,0,0,1,0-1.782l.963-.526a1.018,1.018,0,0,0,.4-.4l.527-.961a1.018,1.018,0,0,1,1.785,0l.527.961a1.017,1.017,0,0,0,.4.4l.963.526Z"
                transform="translate(-86.56 -121.922)" fill="#d29137" />
            <path id="Path_35-5" data-name="Path 35"
                d="M277.532,62.134a1.017,1.017,0,0,0-.4.4l-.527.961a1.018,1.018,0,0,1-1.785,0l-.527-.961a1.017,1.017,0,0,0-.4-.4l-.963-.526a1.014,1.014,0,0,1,0-1.782l.963-.526a1.018,1.018,0,0,0,.4-.4l.527-.961a1.018,1.018,0,0,1,1.785,0l.527.961a1.017,1.017,0,0,0,.4.4l.963.526Z"
                transform="translate(-71.896 -132.92)" fill="#d29137" />
            <path id="Path_39-5" data-name="Path 39"
                d="M277.532,62.134a1.017,1.017,0,0,0-.4.4l-.527.961a1.018,1.018,0,0,1-1.785,0l-.527-.961a1.017,1.017,0,0,0-.4-.4l-.963-.526a1.014,1.014,0,0,1,0-1.782l.963-.526a1.018,1.018,0,0,0,.4-.4l.527-.961a1.018,1.018,0,0,1,1.785,0l.527.961a1.017,1.017,0,0,0,.4.4l.963.526Z"
                transform="translate(-74.34 -170.803)" fill="#d29137" />
            <path id="Path_40-5" data-name="Path 40"
                d="M277.532,62.134a1.017,1.017,0,0,0-.4.4l-.527.961a1.018,1.018,0,0,1-1.785,0l-.527-.961a1.017,1.017,0,0,0-.4-.4l-.963-.526a1.014,1.014,0,0,1,0-1.782l.963-.526a1.018,1.018,0,0,0,.4-.4l.527-.961a1.018,1.018,0,0,1,1.785,0l.527.961a1.017,1.017,0,0,0,.4.4l.963.526Z"
                transform="translate(-38.902 -184.245)" fill="#d29137" />
            <path id="Path_37-5" data-name="Path 37"
                d="M277.532,62.134a1.017,1.017,0,0,0-.4.4l-.527.961a1.018,1.018,0,0,1-1.785,0l-.527-.961a1.017,1.017,0,0,0-.4-.4l-.963-.526a1.014,1.014,0,0,1,0-1.782l.963-.526a1.018,1.018,0,0,0,.4-.4l.527-.961a1.018,1.018,0,0,1,1.785,0l.527.961a1.017,1.017,0,0,0,.4.4l.963.526Z"
                transform="translate(-30.347 -146.363)" fill="#d29137" />
            <path id="Path_36-5" data-name="Path 36"
                d="M283.572,67.688a2.214,2.214,0,0,0-.88.878l-1.145,2.09a2.215,2.215,0,0,1-3.883,0l-1.145-2.09a2.213,2.213,0,0,0-.88-.878l-2.094-1.143a2.206,2.206,0,0,1,0-3.875l2.094-1.143a2.213,2.213,0,0,0,.88-.878l1.145-2.09a2.215,2.215,0,0,1,3.883,0l1.145,2.09a2.213,2.213,0,0,0,.88.878l2.094,1.143Z"
                transform="translate(-42.407 -115.812)" fill="#d29137" />
            <path id="Path_33-5" data-name="Path 33"
                d="M285.535,31.227l-.874.478a.924.924,0,0,0-.367.367l-.478.874a.923.923,0,0,1-1.62,0l-.478-.874a.923.923,0,0,0-.367-.367l-.874-.478a.923.923,0,0,1,0-1.619l.874-.478a.923.923,0,0,0,.367-.367l.478-.874a.923.923,0,0,1,1.62,0l.478.874a.924.924,0,0,0,.367.367l.874.478A.923.923,0,0,1,285.535,31.227Zm5.538,32.086-.874-.478a.922.922,0,0,1-.367-.367l-.478-.874a.923.923,0,0,0-1.62,0l-.478.874a.923.923,0,0,1-.367.367l-.874.478a.923.923,0,0,0,0,1.62l.874.478a.923.923,0,0,1,.367.367l.478.874a.923.923,0,0,0,1.62,0l.478-.874a.924.924,0,0,1,.367-.367l.874-.478A.923.923,0,0,0,291.073,63.313Z"
                transform="translate(-37.267 -135.971)" fill="#b4d7dc" />
            <path id="Path_38-5" data-name="Path 38"
                d="M5.536,3.818,4.663,4.3a.924.924,0,0,0-.367.367l-.478.874a.923.923,0,0,1-1.62,0l-.478-.874A.923.923,0,0,0,1.354,4.3L.48,3.818A.923.923,0,0,1,.48,2.2l.874-.478a.923.923,0,0,0,.367-.367L2.2.48a.923.923,0,0,1,1.62,0l.478.874a.924.924,0,0,0,.367.367l.874.478A.923.923,0,0,1,5.536,3.818ZM11.074,35.9l-.874-.478a.922.922,0,0,1-.367-.367l-.478-.874a.923.923,0,0,0-1.62,0l-.478.874a.923.923,0,0,1-.367.367l-.874.478a.923.923,0,0,0,0,1.62L6.892,38a.923.923,0,0,1,.367.367l.478.874a.923.923,0,0,0,1.62,0l.478-.874A.924.924,0,0,1,10.2,38l.874-.478A.923.923,0,0,0,11.074,35.9Z"
                transform="translate(223.862 -113.15) rotate(56)" fill="#b4d7dc" />
            <path id="Path_34-5" data-name="Path 34"
                d="M8.081,5.573l-1.275.7a1.348,1.348,0,0,0-.536.536l-.7,1.275a1.347,1.347,0,0,1-2.364,0l-.7-1.275a1.348,1.348,0,0,0-.536-.536L.7,5.573a1.347,1.347,0,0,1,0-2.364l1.275-.7a1.348,1.348,0,0,0,.536-.536L3.209.7A1.347,1.347,0,0,1,5.573.7l.7,1.275a1.348,1.348,0,0,0,.536.536l1.275.7A1.347,1.347,0,0,1,8.081,5.573Zm8.083,46.834-1.275-.7a1.346,1.346,0,0,1-.536-.536l-.7-1.275a1.347,1.347,0,0,0-2.364,0l-.7,1.275a1.348,1.348,0,0,1-.536.536l-1.275.7a1.347,1.347,0,0,0,0,2.364l1.275.7a1.348,1.348,0,0,1,.536.536l.7,1.275a1.347,1.347,0,0,0,2.364,0l.7-1.275a1.348,1.348,0,0,1,.536-.536l1.275-.7A1.347,1.347,0,0,0,16.164,52.407Z"
                transform="matrix(0.454, -0.891, 0.891, 0.454, 163.877, -105.424)" fill="#b4d7dc" />
        </g>
        <path id="Path_22" data-name="Path 22"
            d="M297.073,39.183l-2.694,1.473a2.849,2.849,0,0,0-1.132,1.132l-1.473,2.694a2.847,2.847,0,0,1-5,0l-1.473-2.694a2.849,2.849,0,0,0-1.132-1.132l-2.694-1.473a2.846,2.846,0,0,1,0-4.995l2.694-1.473a2.849,2.849,0,0,0,1.132-1.132l1.473-2.694a2.847,2.847,0,0,1,5,0l1.473,2.694a2.849,2.849,0,0,0,1.132,1.132l2.694,1.473A2.846,2.846,0,0,1,297.073,39.183Zm17.079,98.956-2.694-1.473a2.845,2.845,0,0,1-1.132-1.132l-1.473-2.694a2.847,2.847,0,0,0-5,0l-1.473,2.694a2.849,2.849,0,0,1-1.132,1.132l-2.694,1.473a2.847,2.847,0,0,0,0,5l2.694,1.473a2.849,2.849,0,0,1,1.132,1.132l1.473,2.694a2.847,2.847,0,0,0,5,0l1.473-2.694a2.848,2.848,0,0,1,1.132-1.132l2.694-1.473A2.847,2.847,0,0,0,314.152,138.139Z"
            transform="translate(20.407 364.709)" fill="#b4d7dc" />
        <path id="Path_29" data-name="Path 29"
            d="M280.1,61.312l-.895.488a.945.945,0,0,0-.376.375l-.489.893a.946.946,0,0,1-1.659,0l-.489-.893a.945.945,0,0,0-.376-.375l-.895-.488a.943.943,0,0,1,0-1.656l.895-.488a.945.945,0,0,0,.376-.375l.489-.893a.946.946,0,0,1,1.659,0l.489.893a.945.945,0,0,0,.376.375l.895.488A.943.943,0,0,1,280.1,61.312ZM263.079,78.529l-.895-.488a.945.945,0,0,1-.376-.375l-.489-.893a.946.946,0,0,0-1.659,0l-.489.893a.945.945,0,0,1-.376.375l-.895.488a.943.943,0,0,0,0,1.656l.895.488a.945.945,0,0,1,.376.375l.489.893a.946.946,0,0,0,1.659,0l.489-.893a.945.945,0,0,1,.376-.375l.895-.488A.943.943,0,0,0,263.079,78.529Z"
            transform="translate(55.451 281.765)" fill="#d29137" />
        <g id="Group_12" data-name="Group 12">
            <path id="Path_44" data-name="Path 44"
                d="M77.5,290.239l24.362-30.274a14.417,14.417,0,0,0,0-17.3l-6.961-8.65,19.943-24.783-.026-.018A107.482,107.482,0,0,0,60.48,190.3l-14.3,17.77a14.415,14.415,0,0,0,0,17.3l6.961,8.65-3.48,4.325a14.415,14.415,0,0,0,0,17.3l6.961,8.65a14.417,14.417,0,0,0,0,17.3l6.961,8.65C67.426,295.016,73.659,295.016,77.5,290.239Z"
                transform="translate(-121.235 635.705) rotate(-73)" fill="#2b2324" opacity="0.53" />
            <path id="Path_43" data-name="Path 43"
                d="M77.5,290.239l24.362-30.274a14.417,14.417,0,0,0,0-17.3l-6.961-8.65,19.943-24.783-.026-.018A107.482,107.482,0,0,0,60.48,190.3l-14.3,17.77a14.415,14.415,0,0,0,0,17.3l6.961,8.65-3.48,4.325a14.415,14.415,0,0,0,0,17.3l6.961,8.65a14.417,14.417,0,0,0,0,17.3l6.961,8.65C67.426,295.016,73.659,295.016,77.5,290.239Z"
                transform="translate(-125.235 649.705) rotate(-73)" fill="#9e5f69" opacity="0.53" />
        </g>
        <g id="Group_13" data-name="Group 13" transform="matrix(0.53, 0.848, -0.848, 0.53, 664.734, 270.444)">
            <path id="Path_44-2" data-name="Path 44"
                d="M9.092,26.565l6.476-8.047a3.832,3.832,0,0,0,0-4.6l-1.85-2.3,5.3-6.587-.007,0A28.569,28.569,0,0,0,4.567,0L.766,4.723a3.832,3.832,0,0,0,0,4.6l1.85,2.3-.925,1.15a3.832,3.832,0,0,0,0,4.6l1.85,2.3a3.832,3.832,0,0,0,0,4.6l1.85,2.3A2.273,2.273,0,0,0,9.092,26.565Z"
                transform="translate(70.468 599.7) rotate(-73)" fill="#2b2324" opacity="0.53" />
            <path id="Path_43-2" data-name="Path 43"
                d="M9.092,26.565l6.476-8.047a3.832,3.832,0,0,0,0-4.6l-1.85-2.3,5.3-6.587-.007,0A28.569,28.569,0,0,0,4.567,0L.766,4.723a3.832,3.832,0,0,0,0,4.6l1.85,2.3-.925,1.15a3.832,3.832,0,0,0,0,4.6l1.85,2.3a3.832,3.832,0,0,0,0,4.6l1.85,2.3A2.273,2.273,0,0,0,9.092,26.565Z"
                transform="translate(69.405 603.421) rotate(-73)" fill="#9e5f69" opacity="0.53" />
        </g>
    </g>
</svg>