<svg xmlns="http://www.w3.org/2000/svg" width="375" height="812"><defs><radialGradient id="prefix__b" cx=".5" cy=".5" r="1.224" gradientTransform="matrix(.561 .828 -.507 .343 .473 -.085)" gradientUnits="objectBoundingBox"><stop offset="0" stop-color="#441b5e"/><stop offset="0" stop-color="#a335af"/><stop offset=".259" stop-color="#7c2987"/><stop offset="1" stop-color="#0e0513"/></radialGradient><clipPath id="prefix__a"><path d="M0 0h375v812H0z"/></clipPath></defs><g data-name="iPhone X, XS, 11 Pro – 2" clip-path="url(#prefix__a)"><path fill="url(#prefix__b)" d="M0 0h375v812H0z"/><path data-name="Path 16" d="M138.48 126.892l-2.694 1.473a2.849 2.849 0 00-1.132 1.132l-1.473 2.694a2.847 2.847 0 01-5 0l-1.473-2.694a2.849 2.849 0 00-1.132-1.132l-2.694-1.473a2.846 2.846 0 010-4.995l2.694-1.473a2.849 2.849 0 001.132-1.132l1.473-2.694a2.847 2.847 0 015 0l1.473 2.694a2.849 2.849 0 001.132 1.132l2.694 1.473a2.846 2.846 0 010 4.995zm17.079 98.956l-2.694-1.473a2.845 2.845 0 01-1.132-1.132l-1.473-2.694a2.847 2.847 0 00-5 0l-1.473 2.694a2.849 2.849 0 01-1.132 1.132l-2.694 1.473a2.847 2.847 0 000 5l2.694 1.473a2.849 2.849 0 011.132 1.132l1.473 2.694a2.847 2.847 0 005 0l1.473-2.694a2.848 2.848 0 011.132-1.132l2.694-1.473a2.847 2.847 0 000-5z" fill="#b4d7dc"/><path data-name="Path 41" d="M481.03 445.057l-18.808-235.204c-2.97-37.114-35.36-70.654-72.345-74.916l-66.97-7.712L307.51-65.318c-.062.009-.125.023-.187.032C189.1-43.623 79.365 6.097-12.249 84.99l11.038 138.055c2.964 37.114 35.356 70.657 72.345 74.916l66.972 7.716 2.686 33.599c2.967 37.116 35.357 70.658 72.345 74.916l66.972 7.715c2.97 37.114 35.359 70.655 72.345 74.915l66.971 7.715c36.994 4.264 64.573-22.368 61.605-59.48z" fill="#1671d8" opacity=".53"/><path data-name="Path 17" d="M375.863 64.897l-2.682 1.464a2.833 2.833 0 00-1.13 1.128l-1.467 2.677a2.836 2.836 0 01-4.973 0l-1.46-2.677a2.833 2.833 0 00-1.127-1.124l-2.682-1.464a2.825 2.825 0 010-4.962l2.682-1.464a2.834 2.834 0 001.127-1.125l1.467-2.677a2.836 2.836 0 014.973 0l1.467 2.677a2.833 2.833 0 001.127 1.125l2.682 1.464a2.825 2.825 0 01-.004 4.958zm-51.007 51.6l-2.682-1.464a2.833 2.833 0 01-1.127-1.125l-1.467-2.677a2.836 2.836 0 00-4.973 0l-1.467 2.677a2.833 2.833 0 01-1.127 1.125l-2.682 1.464a2.825 2.825 0 000 4.962l2.682 1.464a2.833 2.833 0 011.127 1.125l1.467 2.677a2.836 2.836 0 004.973 0l1.467-2.677a2.833 2.833 0 011.127-1.125l2.682-1.464a2.825 2.825 0 000-4.96z" fill="#d29137"/><g data-name="Group 5" transform="translate(-43 718)"><circle data-name="Ellipse 12" cx="26" cy="26" r="26" transform="translate(337 -87)" fill="#47109b"/><g data-name="Group 4"><path data-name="Path 24" d="M363.166-87a25.879 25.879 0 0115.93 5.459 83.8 83.8 0 01.97 12.741 82.954 82.954 0 01-6.168 31.48A26 26 0 11363.166-87z" fill="#e65aa0"/><path data-name="Path 25" d="M376.166-61a3.25 3.25 0 01-3.25 3.25s-14.05-.009-20.283-.022a2.43 2.43 0 00-2.356 3.023l.012.049a2.421 2.421 0 002.351 1.826h13.664a3.324 3.324 0 013.354 3.034 3.25 3.25 0 01-3.243 3.466h-7.173a2.423 2.423 0 00-1.7 4.155 25.949 25.949 0 0011.8 6.476 26 26 0 110-50.512 25.948 25.948 0 00-11.8 6.476 2.423 2.423 0 001.7 4.155h7.061a3.323 3.323 0 013.328 2.778 3.251 3.251 0 01-3.217 3.722h-13.773a2.42 2.42 0 00-2.351 1.826l-.012.049a2.43 2.43 0 002.356 3.023c6.233-.014 20.282-.022 20.282-.022a3.25 3.25 0 013.25 3.248z" fill="#be4178"/></g></g><path data-name="Path 27" d="M285.291 257.425l-1.27.695a1.343 1.343 0 00-.534.534l-.695 1.27a1.342 1.342 0 01-2.355 0l-.695-1.27a1.343 1.343 0 00-.534-.534l-1.27-.695a1.342 1.342 0 010-2.354l1.27-.695a1.343 1.343 0 00.534-.534l.695-1.27a1.342 1.342 0 012.355 0l.695 1.27a1.343 1.343 0 00.534.534l1.27.695a1.342 1.342 0 010 2.354zm8.052 46.648l-1.27-.695a1.341 1.341 0 01-.534-.534l-.695-1.27a1.342 1.342 0 00-2.355 0l-.695 1.27a1.343 1.343 0 01-.534.534l-1.27.695a1.342 1.342 0 000 2.355l1.27.695a1.343 1.343 0 01.534.534l.695 1.27a1.342 1.342 0 002.355 0l.695-1.27a1.343 1.343 0 01.534-.534l1.27-.695a1.342 1.342 0 000-2.355z" fill="#b4d7dc"/><path data-name="Path 28" d="M208.936 138.242l-.715.391a.756.756 0 00-.3.3l-.391.715a.755.755 0 01-1.325 0l-.391-.715a.756.756 0 00-.3-.3l-.715-.391a.755.755 0 010-1.325l.715-.391a.756.756 0 00.3-.3l.391-.715a.755.755 0 011.325 0l.391.715a.756.756 0 00.3.3l.715.391a.755.755 0 010 1.325zm4.532 26.257l-.715-.391a.755.755 0 01-.3-.3l-.391-.715a.755.755 0 00-1.325 0l-.391.715a.756.756 0 01-.3.3l-.715.391a.755.755 0 000 1.325l.715.391a.756.756 0 01.3.3l.391.715a.755.755 0 001.325 0l.391-.715a.756.756 0 01.3-.3l.715-.391a.755.755 0 000-1.325z" fill="#b4d7dc"/><path data-name="Path 30" d="M29.837 74.601l-.788.43a.833.833 0 00-.331.33l-.431.786a.833.833 0 01-1.461 0l-.431-.786a.832.832 0 00-.331-.33l-.788-.43a.83.83 0 010-1.458l.788-.43a.833.833 0 00.331-.33l.431-.786a.833.833 0 011.461 0l.431.786a.833.833 0 00.331.33l.788.43a.83.83 0 010 1.458zm-14.986 15.16l-.788-.43a.832.832 0 01-.331-.33l-.431-.786a.833.833 0 00-1.461 0l-.431.786a.832.832 0 01-.331.33l-.788.43a.83.83 0 000 1.458l.788.43a.832.832 0 01.331.33l.431.786a.833.833 0 001.461 0l.431-.786a.832.832 0 01.331-.33l.788-.43a.83.83 0 000-1.458z" fill="#d29137"/><path data-name="Path 31" d="M125.837 32.601l-.788.43a.833.833 0 00-.331.33l-.431.786a.833.833 0 01-1.461 0l-.431-.786a.832.832 0 00-.331-.33l-.788-.43a.83.83 0 010-1.458l.788-.43a.833.833 0 00.331-.33l.431-.786a.833.833 0 011.461 0l.431.786a.833.833 0 00.331.33l.788.43a.83.83 0 010 1.458zm-14.986 15.16l-.788-.43a.832.832 0 01-.331-.33l-.431-.786a.833.833 0 00-1.461 0l-.431.786a.832.832 0 01-.331.33l-.788.43a.83.83 0 000 1.458l.788.43a.832.832 0 01.331.33l.431.786a.833.833 0 001.461 0l.431-.786a.832.832 0 01.331-.33l.788-.43a.83.83 0 000-1.458z" fill="#d29137"/><path data-name="Path 32" d="M226.051 176.031a.833.833 0 00-.331.33l-.431.786a.833.833 0 01-1.461 0l-.431-.786a.832.832 0 00-.331-.33l-.788-.43a.83.83 0 010-1.458l.788-.43a.833.833 0 00.331-.33l.431-.786a.833.833 0 011.461 0l.431.786a.833.833 0 00.331.33l.788.43zM182.051 77.031a.833.833 0 00-.331.33l-.431.786a.833.833 0 01-1.461 0l-.431-.786a.832.832 0 00-.331-.33l-.788-.43a.83.83 0 010-1.458l.788-.43a.833.833 0 00.331-.33l.431-.786a.833.833 0 011.461 0l.431.786a.833.833 0 00.331.33l.788.43z" fill="#d29137"/><g data-name="Group 6"><path data-name="Path 32" d="M29.051 68.031a.833.833 0 00-.331.33l-.431.786a.833.833 0 01-1.461 0l-.431-.786a.832.832 0 00-.331-.33l-.788-.43a.83.83 0 010-1.458l.788-.43a.833.833 0 00.331-.33l.431-.786a.833.833 0 011.461 0l.431.786a.833.833 0 00.331.33l.788.43z" fill="#d29137"/><path data-name="Path 35" d="M41.051 59.031a.833.833 0 00-.331.33l-.431.786a.833.833 0 01-1.461 0l-.431-.786a.832.832 0 00-.331-.33l-.788-.43a.83.83 0 010-1.458l.788-.43a.833.833 0 00.331-.33l.431-.786a.833.833 0 011.461 0l.431.786a.833.833 0 00.331.33l.788.43z" fill="#d29137"/><path data-name="Path 39" d="M39.051 28.031a.833.833 0 00-.331.33l-.431.786a.833.833 0 01-1.461 0l-.431-.786a.832.832 0 00-.331-.33l-.788-.43a.83.83 0 010-1.458l.788-.43a.833.833 0 00.331-.33l.431-.786a.833.833 0 011.461 0l.431.786a.833.833 0 00.331.33l.788.43z" fill="#d29137"/><path data-name="Path 40" d="M68.051 17.031a.833.833 0 00-.331.33l-.431.786a.833.833 0 01-1.461 0l-.431-.786a.832.832 0 00-.331-.33l-.788-.43a.83.83 0 010-1.458l.788-.43a.833.833 0 00.331-.33l.431-.786a.833.833 0 011.461 0l.431.786a.833.833 0 00.331.33l.788.43z" fill="#d29137"/><path data-name="Path 37" d="M75.051 48.031a.833.833 0 00-.331.33l-.431.786a.833.833 0 01-1.461 0l-.431-.786a.832.832 0 00-.331-.33l-.788-.43a.83.83 0 010-1.458l.788-.43a.833.833 0 00.331-.33l.431-.786a.833.833 0 011.461 0l.431.786a.833.833 0 00.331.33l.788.43z" fill="#d29137"/><path data-name="Path 36" d="M70.124 77.575a1.812 1.812 0 00-.72.719l-.937 1.71a1.813 1.813 0 01-3.178 0l-.937-1.71a1.811 1.811 0 00-.72-.719l-1.714-.935a1.805 1.805 0 010-3.171l1.714-.935a1.811 1.811 0 00.72-.719l.937-1.71a1.813 1.813 0 013.178 0l.937 1.71a1.811 1.811 0 00.72.719l1.714.935z" fill="#d29137"/><path data-name="Path 33" d="M75.936 31.242l-.715.391a.756.756 0 00-.3.3l-.391.715a.755.755 0 01-1.325 0l-.391-.715a.756.756 0 00-.3-.3l-.715-.391a.755.755 0 010-1.325l.715-.391a.756.756 0 00.3-.3l.391-.715a.755.755 0 011.325 0l.391.715a.756.756 0 00.3.3l.715.391a.755.755 0 010 1.325zm4.532 26.257l-.715-.391a.755.755 0 01-.3-.3l-.391-.715a.755.755 0 00-1.325 0l-.391.715a.756.756 0 01-.3.3l-.715.391a.755.755 0 000 1.325l.715.391a.756.756 0 01.3.3l.391.715a.755.755 0 001.325 0l.391-.715a.756.756 0 01.3-.3l.715-.391a.755.755 0 000-1.325z" fill="#b4d7dc"/><path data-name="Path 38" d="M55.907 29.866l-.724-.374a.756.756 0 00-.417-.081l-.811.076a.755.755 0 01-.741-1.099l.374-.724a.756.756 0 00.08-.416l-.075-.812a.755.755 0 011.099-.74l.724.374a.756.756 0 00.416.08l.812-.075a.755.755 0 01.74 1.098l-.374.724a.756.756 0 00-.08.417l.075.811a.755.755 0 01-1.098.741zm-19.234 18.44l-.076-.811a.755.755 0 01.081-.417l.374-.724a.755.755 0 00-.74-1.098l-.812.075a.756.756 0 01-.417-.08l-.724-.375a.755.755 0 00-1.098.741l.076.812a.756.756 0 01-.081.416l-.374.724a.755.755 0 00.74 1.099l.812-.076a.756.756 0 01.416.08l.724.375a.755.755 0 001.099-.741z" fill="#b4d7dc"/><path data-name="Path 34" d="M13.944 26.866l.035 1.188a1.1 1.1 0 00.192.59l.67.982a1.1 1.1 0 01-.879 1.724l-1.188.035a1.1 1.1 0 00-.59.191l-.981.67a1.1 1.1 0 01-1.724-.878l-.035-1.188a1.1 1.1 0 00-.191-.59l-.67-.982a1.1 1.1 0 01.878-1.724l1.189-.035a1.1 1.1 0 00.589-.191l.982-.67a1.1 1.1 0 011.723.878zM51.095 38.37l-.982.67a1.1 1.1 0 01-.59.192l-1.188.035a1.1 1.1 0 00-.878 1.724l.67.982a1.1 1.1 0 01.191.59l.035 1.188a1.1 1.1 0 001.724.878l.983-.67a1.1 1.1 0 01.589-.191l1.188-.035a1.1 1.1 0 00.879-1.724l-.67-.983a1.1 1.1 0 01-.192-.589l-.035-1.188a1.1 1.1 0 00-1.723-.878z" fill="#b4d7dc"/></g><g data-name="Group 7"><path data-name="Path 32" d="M192.712 323.43a.833.833 0 00.065.464l.368.818a.833.833 0 01-.88 1.167l-.887-.129a.832.832 0 00-.462.066l-.818.37a.83.83 0 01-1.165-.877l.13-.889a.833.833 0 00-.064-.463l-.369-.817a.833.833 0 01.88-1.168l.887.13a.833.833 0 00.463-.067l.818-.37z" fill="#d29137"/><path data-name="Path 35" d="M192.745 308.425a.833.833 0 00.065.463l.368.818a.833.833 0 01-.88 1.167l-.887-.129a.832.832 0 00-.462.066l-.818.37a.83.83 0 01-1.165-.877l.13-.889a.833.833 0 00-.064-.463l-.369-.817a.833.833 0 01.88-1.168l.887.13a.833.833 0 00.463-.067l.818-.37z" fill="#d29137"/><path data-name="Path 39" d="M166.772 291.36a.833.833 0 00.065.464l.368.818a.833.833 0 01-.88 1.167l-.887-.129a.832.832 0 00-.462.066l-.818.37a.83.83 0 01-1.165-.877l.13-.889a.833.833 0 00-.064-.463l-.369-.817a.833.833 0 01.88-1.168l.887.13a.833.833 0 00.463-.067l.818-.37z" fill="#d29137"/><path data-name="Path 40" d="M175.441 261.568a.833.833 0 00.065.463l.368.818a.833.833 0 01-.88 1.167l-.887-.129a.832.832 0 00-.462.066l-.818.37a.83.83 0 01-1.165-.877l.13-.889a.833.833 0 00-.064-.463l-.369-.817a.833.833 0 01.88-1.168l.887.13a.833.833 0 00.463-.067l.818-.37z" fill="#d29137"/><path data-name="Path 37" d="M204.424 274.637a.833.833 0 00.065.463l.368.818a.833.833 0 01-.88 1.167l-.887-.129a.832.832 0 00-.462.066l-.818.37a.83.83 0 01-1.165-.877l.13-.889a.833.833 0 00-.064-.463l-.369-.817a.833.833 0 01.88-1.168l.887.13a.833.833 0 00.463-.067l.818-.37z" fill="#d29137"/><path data-name="Path 36" d="M225.064 296.36a1.813 1.813 0 00.141 1.007l.802 1.778a1.814 1.814 0 01-1.913 2.54l-1.93-.281a1.812 1.812 0 00-1.008.142l-1.779.807a1.806 1.806 0 01-2.534-1.91l.285-1.932a1.812 1.812 0 00-.14-1.008l-.803-1.778a1.814 1.814 0 011.913-2.539l1.93.28a1.812 1.812 0 001.008-.142l1.78-.806z" fill="#d29137"/><path data-name="Path 33" d="M191.543 263.823l-.118.806a.756.756 0 00.059.42l.336.744a.755.755 0 01-.798 1.058l-.807-.118a.756.756 0 00-.42.06l-.743.335a.755.755 0 01-1.058-.797l.118-.807a.756.756 0 00-.06-.42l-.335-.743a.755.755 0 01.797-1.059l.807.118a.756.756 0 00.42-.059l.743-.336a.755.755 0 011.059.798zm23.707 12.185l-.742.336a.755.755 0 01-.42.06l-.807-.119a.755.755 0 00-.798 1.06l.336.742a.756.756 0 01.059.42l-.118.807a.755.755 0 001.059.798l.742-.336a.756.756 0 01.42-.06l.807.119a.755.755 0 00.798-1.06l-.336-.742a.756.756 0 01-.059-.42l.118-.807a.755.755 0 00-1.059-.798z" fill="#b4d7dc"/><path data-name="Path 38" d="M178.386 278.998l-.735.353a.756.756 0 00-.315.284l-.428.694a.755.755 0 01-1.324-.07l-.353-.734a.756.756 0 00-.284-.315l-.694-.428a.755.755 0 01.069-1.324l.735-.353a.756.756 0 00.315-.284l.428-.694a.755.755 0 011.324.07l.353.734a.756.756 0 00.284.315l.694.428a.755.755 0 01-.07 1.324zm3.155 26.469l-.694-.428a.755.755 0 01-.284-.316l-.354-.735a.755.755 0 00-1.323-.069l-.428.694a.756.756 0 01-.316.284l-.734.353a.755.755 0 00-.07 1.324l.694.428a.756.756 0 01.284.315l.353.735a.755.755 0 001.324.07l.428-.694a.756.756 0 01.315-.284l.735-.354a.755.755 0 00.07-1.323z" fill="#b4d7dc"/><path data-name="Path 34" d="M150.727 310.72l.97.687a1.1 1.1 0 00.587.202l1.188.056a1.1 1.1 0 01.849 1.74l-.688.97a1.1 1.1 0 00-.201.586l-.056 1.189a1.1 1.1 0 01-1.74.848l-.97-.688a1.1 1.1 0 00-.586-.201l-1.188-.056a1.1 1.1 0 01-.849-1.74l.688-.97a1.1 1.1 0 00.201-.587l.056-1.188a1.1 1.1 0 011.74-.848zm31.558-22.757l-.056 1.188a1.1 1.1 0 01-.202.586l-.687.97a1.1 1.1 0 00.848 1.74l1.189.056a1.1 1.1 0 01.586.202l.97.687a1.1 1.1 0 001.74-.848l.056-1.189a1.1 1.1 0 01.202-.585l.687-.971a1.1 1.1 0 00-.848-1.74l-1.189-.056a1.1 1.1 0 01-.586-.202l-.97-.687a1.1 1.1 0 00-1.74.848z" fill="#b4d7dc"/></g><path data-name="Path 20" d="M329.557 301.06c17.168 20.452 13.163 52.08-8.951 70.644 0 0-173.17 145.194-250.085 209.497-19.541 16.334-19.506 45.231-.106 58.813.204.145.41.287.614.431 13.599 9.477 32.773 7.95 46.43-3.514l168.33-141.3c21.324-17.9 52.44-18.649 70.344-.118 19.611 20.299 16.194 53.727-6.8 73.028l-88.365 74.176c-26.745 22.451-14.857 64.03 18.82 64.92 69.653 1.832 141.243-14.103 207.267-48.2a451.193 451.193 0 01-68.958 72.336C241.194 880.27-13.558 868.003-150.91 704.377S-256.203 287.725-79.3 139.229a451.466 451.466 0 0183.19-55.38c-45.02 59.116-73.12 126.86-83.384 195.78-4.966 33.322 33.931 52.235 60.677 29.784l86.992-73.024c20.14-16.905 49.279-18.853 67.57-2.763 22.657 19.926 20.001 55.512-4.023 75.679l-169.699 142.45c-13.657 11.463-18.486 30.088-11.506 45.118.108.226.21.454.318.68 10.011 21.456 38.465 26.497 57.941 10.086 76.654-64.606 249.655-210.002 249.655-210.002 22.113-18.565 53.956-17.031 71.126 3.423z" fill="#240211" opacity=".57"/><g data-name="Group 2"><path data-name="Path 18" d="M323.045 196.514a34.158 34.158 0 11-34.159 34.158 34.159 34.159 0 0134.159-34.158z" fill="#dca041"/><path data-name="Path 19" d="M331.157 263.853a34.158 34.158 0 110-66.362 34.227 34.227 0 00-24.132 21.892 8.536 8.536 0 11-1.506 16.531 34.187 34.187 0 0025.638 27.939zm-8.682-50.26a5.693 5.693 0 105.693-5.693 5.693 5.693 0 00-5.693 5.693zm11.386 28.465a5.693 5.693 0 105.693 5.693 5.693 5.693 0 00-5.693-5.692z" fill="#b97d23"/></g><g data-name="Group 3"><path data-name="Path 18" d="M58.045 689.514a34.158 34.158 0 11-34.159 34.158 34.159 34.159 0 0134.159-34.158z" fill="#dca041"/><path data-name="Path 19" d="M66.157 756.853a34.158 34.158 0 110-66.362 34.227 34.227 0 00-24.132 21.892 8.536 8.536 0 11-1.506 16.531 34.187 34.187 0 0025.638 27.939zm-8.682-50.26a5.693 5.693 0 105.693-5.693 5.693 5.693 0 00-5.693 5.693zm11.386 28.465a5.693 5.693 0 105.693 5.693 5.693 5.693 0 00-5.693-5.692z" fill="#b97d23"/></g><path data-name="Path 21" d="M140.863 567.897l-2.682 1.464a2.833 2.833 0 00-1.13 1.128l-1.467 2.677a2.836 2.836 0 01-4.973 0l-1.46-2.677a2.833 2.833 0 00-1.127-1.124l-2.682-1.464a2.825 2.825 0 010-4.962l2.682-1.464a2.834 2.834 0 001.127-1.125l1.467-2.677a2.836 2.836 0 014.973 0l1.467 2.677a2.833 2.833 0 001.127 1.125l2.682 1.464a2.825 2.825 0 01-.004 4.958zm-51.007 51.6l-2.682-1.464a2.833 2.833 0 01-1.127-1.125l-1.467-2.677a2.836 2.836 0 00-4.973 0l-1.467 2.677a2.833 2.833 0 01-1.127 1.125l-2.682 1.464a2.825 2.825 0 000 4.962l2.682 1.464a2.833 2.833 0 011.127 1.125l1.467 2.677a2.836 2.836 0 004.973 0l1.467-2.677a2.833 2.833 0 011.127-1.125l2.682-1.464a2.825 2.825 0 000-4.96z" fill="#d29137"/><path data-name="Path 42" d="M247.863 683.897l-2.682 1.464a2.833 2.833 0 00-1.13 1.128l-1.467 2.677a2.836 2.836 0 01-4.973 0l-1.46-2.677a2.833 2.833 0 00-1.127-1.124l-2.682-1.464a2.825 2.825 0 010-4.962l2.682-1.464a2.834 2.834 0 001.127-1.125l1.467-2.677a2.836 2.836 0 014.973 0l1.467 2.677a2.833 2.833 0 001.127 1.125l2.682 1.464a2.825 2.825 0 01-.004 4.958zm-51.007 51.6l-2.682-1.464a2.833 2.833 0 01-1.127-1.125l-1.467-2.677a2.836 2.836 0 00-4.973 0l-1.467 2.677a2.833 2.833 0 01-1.127 1.125l-2.682 1.464a2.825 2.825 0 000 4.962l2.682 1.464a2.833 2.833 0 011.127 1.125l1.467 2.677a2.836 2.836 0 004.973 0l1.467-2.677a2.833 2.833 0 011.127-1.125l2.682-1.464a2.825 2.825 0 000-4.96z" fill="#d29137"/><g data-name="Group 8"><path data-name="Path 32" d="M146.325 619.473a.833.833 0 00-.262.387l-.273.854a.833.833 0 01-1.434.279l-.573-.69a.832.832 0 00-.388-.26l-.855-.272a.83.83 0 01-.279-1.431l.692-.573a.833.833 0 00.262-.387l.273-.854a.833.833 0 011.434-.278l.573.689a.833.833 0 00.388.26l.856.272z" fill="#d29137"/><path data-name="Path 35" d="M156.388 608.349a.833.833 0 00-.262.387l-.273.854a.833.833 0 01-1.435.278l-.573-.689a.832.832 0 00-.388-.26l-.855-.272a.83.83 0 01-.278-1.432l.691-.572a.833.833 0 00.262-.387l.273-.854a.833.833 0 011.434-.279l.573.69a.833.833 0 00.388.26l.856.272z" fill="#d29137"/><path data-name="Path 39" d="M148.51 578.3a.833.833 0 00-.263.387l-.273.854a.833.833 0 01-1.434.279l-.573-.69a.832.832 0 00-.388-.26l-.855-.272a.83.83 0 01-.279-1.431l.692-.573a.833.833 0 00.262-.387l.273-.854a.833.833 0 011.434-.279l.573.69a.833.833 0 00.388.26l.856.272z" fill="#d29137"/><path data-name="Path 40" d="M174.878 561.969a.833.833 0 00-.262.387l-.273.853a.833.833 0 01-1.435.28l-.573-.69a.832.832 0 00-.388-.26l-.855-.273a.83.83 0 01-.278-1.43l.691-.573a.833.833 0 00.262-.387l.273-.854a.833.833 0 011.434-.279l.573.69a.833.833 0 00.388.26l.856.272z" fill="#d29137"/><path data-name="Path 37" d="M187.664 591.063a.833.833 0 00-.262.387l-.273.854a.833.833 0 01-1.434.279l-.573-.69a.832.832 0 00-.388-.26l-.856-.272a.83.83 0 01-.278-1.431l.692-.573a.833.833 0 00.262-.387l.273-.853a.833.833 0 011.434-.28l.573.69a.833.833 0 00.388.26l.855.273z" fill="#d29137"/><path data-name="Path 36" d="M188.465 621.005a1.812 1.812 0 00-.57.843l-.593 1.857a1.813 1.813 0 01-3.12.607l-1.246-1.5a1.811 1.811 0 00-.844-.569l-1.86-.59a1.805 1.805 0 01-.606-3.113l1.504-1.245a1.811 1.811 0 00.57-.843l.593-1.858a1.813 1.813 0 013.12-.606l1.246 1.5a1.811 1.811 0 00.844.568l1.86.591z" fill="#d29137"/><path data-name="Path 33" d="M185.33 574.414l-.628.52a.756.756 0 00-.237.352l-.248.776a.755.755 0 01-1.3.253l-.52-.627a.756.756 0 00-.352-.237l-.777-.248a.755.755 0 01-.253-1.3l.628-.52a.756.756 0 00.237-.352l.247-.777a.755.755 0 011.301-.253l.52.628a.756.756 0 00.352.237l.776.247a.755.755 0 01.253 1.3zm9.458 24.91l-.776-.248a.755.755 0 01-.352-.237l-.52-.627a.755.755 0 00-1.301.253l-.247.776a.756.756 0 01-.238.352l-.627.52a.755.755 0 00.253 1.3l.776.248a.756.756 0 01.352.237l.52.628a.755.755 0 001.301-.253l.247-.777a.756.756 0 01.238-.351l.627-.52a.755.755 0 00-.253-1.301z" fill="#b4d7dc"/><path data-name="Path 38" d="M165.405 576.885l-.782-.23a.756.756 0 00-.424 0l-.782.23a.755.755 0 01-.937-.937l.23-.782a.756.756 0 000-.424l-.23-.782a.755.755 0 01.937-.937l.782.229a.756.756 0 00.424 0l.782-.23a.755.755 0 01.937.938l-.229.782a.756.756 0 000 .424l.23.782a.755.755 0 01-.938.937zm-15.362 21.771l-.229-.782a.755.755 0 010-.424l.23-.782a.755.755 0 00-.937-.937l-.783.229a.756.756 0 01-.424 0l-.782-.23a.755.755 0 00-.937.938l.23.782a.756.756 0 010 .424l-.23.782a.755.755 0 00.937.937l.782-.229a.756.756 0 01.424 0l.783.23a.755.755 0 00.936-.938z" fill="#b4d7dc"/><path data-name="Path 34" d="M123.641 581.947l.262 1.16a1.1 1.1 0 00.3.541l.845.837a1.1 1.1 0 01-.533 1.86l-1.16.261a1.1 1.1 0 00-.542.3l-.836.846a1.1 1.1 0 01-1.86-.534l-.26-1.16a1.1 1.1 0 00-.3-.541l-.846-.837a1.1 1.1 0 01.533-1.86l1.16-.261a1.1 1.1 0 00.542-.3l.836-.846a1.1 1.1 0 011.86.534zm38.664 4.205l-.836.845a1.1 1.1 0 01-.542.3l-1.16.262a1.1 1.1 0 00-.533 1.86l.845.836a1.1 1.1 0 01.3.542l.261 1.16a1.1 1.1 0 001.86.533l.837-.845a1.1 1.1 0 01.542-.3l1.16-.261a1.1 1.1 0 00.533-1.86l-.845-.837a1.1 1.1 0 01-.3-.542l-.262-1.16a1.1 1.1 0 00-1.859-.533z" fill="#b4d7dc"/></g><g data-name="Group 10"><path data-name="Path 32" d="M219.325 785.473a.833.833 0 00-.262.387l-.273.854a.833.833 0 01-1.434.279l-.573-.69a.832.832 0 00-.388-.26l-.855-.272a.83.83 0 01-.279-1.431l.692-.573a.833.833 0 00.262-.387l.273-.854a.833.833 0 011.434-.278l.573.689a.833.833 0 00.388.26l.856.272z" fill="#d29137"/><path data-name="Path 35" d="M229.388 774.349a.833.833 0 00-.262.387l-.273.854a.833.833 0 01-1.435.278l-.573-.689a.832.832 0 00-.388-.26l-.855-.272a.83.83 0 01-.278-1.432l.691-.572a.833.833 0 00.262-.387l.273-.854a.833.833 0 011.434-.279l.573.69a.833.833 0 00.388.26l.856.272z" fill="#d29137"/><path data-name="Path 39" d="M221.51 744.3a.833.833 0 00-.263.387l-.273.854a.833.833 0 01-1.434.279l-.573-.69a.832.832 0 00-.388-.26l-.855-.272a.83.83 0 01-.279-1.431l.692-.573a.833.833 0 00.262-.387l.273-.854a.833.833 0 011.434-.279l.573.69a.833.833 0 00.388.26l.856.272z" fill="#d29137"/><path data-name="Path 40" d="M247.878 727.969a.833.833 0 00-.262.387l-.273.853a.833.833 0 01-1.435.28l-.573-.69a.832.832 0 00-.388-.26l-.855-.273a.83.83 0 01-.278-1.43l.691-.573a.833.833 0 00.262-.387l.273-.854a.833.833 0 011.434-.279l.573.69a.833.833 0 00.388.26l.856.272z" fill="#d29137"/><path data-name="Path 37" d="M260.664 757.063a.833.833 0 00-.262.387l-.273.854a.833.833 0 01-1.434.279l-.573-.69a.832.832 0 00-.388-.26l-.856-.272a.83.83 0 01-.278-1.431l.692-.573a.833.833 0 00.262-.387l.273-.853a.833.833 0 011.434-.28l.573.69a.833.833 0 00.388.26l.855.273z" fill="#d29137"/><path data-name="Path 36" d="M261.465 787.005a1.812 1.812 0 00-.57.843l-.593 1.857a1.813 1.813 0 01-3.12.607l-1.246-1.5a1.811 1.811 0 00-.844-.569l-1.86-.59a1.805 1.805 0 01-.606-3.113l1.504-1.245a1.811 1.811 0 00.57-.843l.593-1.858a1.813 1.813 0 013.12-.606l1.246 1.5a1.811 1.811 0 00.844.568l1.86.591z" fill="#d29137"/><path data-name="Path 33" d="M258.33 740.414l-.628.52a.756.756 0 00-.237.352l-.248.776a.755.755 0 01-1.3.253l-.52-.627a.756.756 0 00-.352-.237l-.777-.248a.755.755 0 01-.253-1.3l.628-.52a.756.756 0 00.237-.352l.247-.777a.755.755 0 011.301-.253l.52.628a.756.756 0 00.352.237l.776.247a.755.755 0 01.253 1.3zm9.458 24.91l-.776-.248a.755.755 0 01-.352-.237l-.52-.627a.755.755 0 00-1.301.253l-.247.776a.756.756 0 01-.238.352l-.627.52a.755.755 0 00.253 1.3l.776.248a.756.756 0 01.352.237l.52.628a.755.755 0 001.301-.253l.247-.777a.756.756 0 01.238-.351l.627-.52a.755.755 0 00-.253-1.301z" fill="#b4d7dc"/><path data-name="Path 38" d="M238.405 742.885l-.782-.23a.756.756 0 00-.424 0l-.782.23a.755.755 0 01-.937-.937l.23-.782a.756.756 0 000-.424l-.23-.782a.755.755 0 01.937-.937l.782.229a.756.756 0 00.424 0l.782-.23a.755.755 0 01.937.938l-.229.782a.756.756 0 000 .424l.23.782a.755.755 0 01-.938.937zm-15.362 21.771l-.229-.782a.755.755 0 010-.424l.23-.782a.755.755 0 00-.937-.937l-.783.229a.756.756 0 01-.424 0l-.782-.23a.755.755 0 00-.937.938l.23.782a.756.756 0 010 .424l-.23.782a.755.755 0 00.937.937l.782-.229a.756.756 0 01.424 0l.783.23a.755.755 0 00.936-.938z" fill="#b4d7dc"/><path data-name="Path 34" d="M196.641 747.947l.262 1.16a1.1 1.1 0 00.3.541l.845.837a1.1 1.1 0 01-.533 1.86l-1.16.261a1.1 1.1 0 00-.542.3l-.836.846a1.1 1.1 0 01-1.86-.534l-.26-1.16a1.1 1.1 0 00-.3-.541l-.846-.837a1.1 1.1 0 01.533-1.86l1.16-.261a1.1 1.1 0 00.542-.3l.836-.846a1.1 1.1 0 011.86.534zm38.664 4.205l-.836.845a1.1 1.1 0 01-.542.3l-1.16.262a1.1 1.1 0 00-.533 1.86l.845.836a1.1 1.1 0 01.3.542l.261 1.16a1.1 1.1 0 001.86.533l.837-.845a1.1 1.1 0 01.542-.3l1.16-.261a1.1 1.1 0 00.533-1.86l-.845-.837a1.1 1.1 0 01-.3-.542l-.262-1.16a1.1 1.1 0 00-1.859-.533z" fill="#b4d7dc"/></g><g data-name="Group 9"><path data-name="Path 32" d="M209.992 501.803a1.017 1.017 0 00-.413-.386l-.98-.493a1.018 1.018 0 01-.061-1.784l.942-.56a1.017 1.017 0 00.385-.414l.492-.98a1.014 1.014 0 011.781-.063l.56.944a1.018 1.018 0 00.413.386l.98.493a1.018 1.018 0 01.061 1.784l-.942.56a1.017 1.017 0 00-.385.414l-.492.981z" fill="#d29137"/><path data-name="Path 35" d="M221.495 516.074a1.017 1.017 0 00-.413-.385l-.98-.494a1.018 1.018 0 01-.061-1.784l.942-.56a1.017 1.017 0 00.385-.413l.493-.981a1.014 1.014 0 011.78-.062l.56.944a1.018 1.018 0 00.413.385l.98.494a1.018 1.018 0 01.062 1.783l-.942.56a1.017 1.017 0 00-.386.414l-.492.981z" fill="#d29137"/><path data-name="Path 39" d="M259.27 512.31a1.017 1.017 0 00-.414-.386l-.978-.493a1.018 1.018 0 01-.063-1.784l.942-.56a1.017 1.017 0 00.386-.414l.492-.98a1.014 1.014 0 011.781-.063l.56.944a1.018 1.018 0 00.413.386l.979.493a1.018 1.018 0 01.062 1.784l-.942.56a1.017 1.017 0 00-.386.414l-.492.98z" fill="#d29137"/><path data-name="Path 40" d="M273.94 547.257a1.017 1.017 0 00-.413-.386l-.979-.493a1.018 1.018 0 01-.062-1.784l.942-.56a1.017 1.017 0 00.386-.414l.492-.98a1.014 1.014 0 011.78-.063l.56.944a1.018 1.018 0 00.414.386l.978.493a1.018 1.018 0 01.063 1.784l-.942.56a1.017 1.017 0 00-.386.414l-.492.98z" fill="#d29137"/><path data-name="Path 37" d="M236.38 557.129a1.017 1.017 0 00-.413-.386l-.98-.493a1.018 1.018 0 01-.061-1.784l.942-.56a1.017 1.017 0 00.385-.414l.492-.98a1.014 1.014 0 011.781-.063l.56.944a1.018 1.018 0 00.413.386l.98.493a1.018 1.018 0 01.061 1.784l-.942.56a1.017 1.017 0 00-.385.414l-.492.98z" fill="#d29137"/><path data-name="Path 36" d="M200.087 552.373a2.214 2.214 0 00-.908-.85l-2.129-1.07a2.215 2.215 0 01-.135-3.881l2.049-1.217a2.213 2.213 0 00.846-.91l1.07-2.133a2.206 2.206 0 013.872-.135l1.216 2.052a2.213 2.213 0 00.908.85l2.128 1.07a2.215 2.215 0 01.136 3.881l-2.049 1.217a2.213 2.213 0 00-.847.91l-1.069 2.133z" fill="#d29137"/><path data-name="Path 33" d="M256.92 557.495l-.508-.857a.924.924 0 00-.38-.354l-.89-.447a.923.923 0 01-.056-1.619l.857-.508a.923.923 0 00.354-.38l.447-.89a.923.923 0 011.618-.056l.508.857a.923.923 0 00.38.354l.89.447a.923.923 0 01.057 1.619l-.857.508a.924.924 0 00-.354.38l-.447.89a.923.923 0 01-1.618.056zm-31.873 6.655l.448-.89a.922.922 0 01.354-.38l.856-.508a.923.923 0 00-.056-1.62l-.89-.447a.923.923 0 01-.38-.353l-.508-.857a.923.923 0 00-1.62.056l-.446.89a.923.923 0 01-.354.38l-.857.508a.923.923 0 00.056 1.62l.89.446a.924.924 0 01.38.354l.508.857a.923.923 0 001.62-.056z" fill="#b4d7dc"/><path data-name="Path 38" d="M257.747 532.976l.423-.903a.924.924 0 00.081-.513l-.127-.988a.923.923 0 011.31-.952l.901.426a.923.923 0 00.512.082l.99-.124a.923.923 0 01.951 1.31l-.426.9a.923.923 0 00-.081.512l.127.99a.923.923 0 01-1.31.952l-.901-.426a.924.924 0 00-.513-.082l-.988.127a.923.923 0 01-.95-1.311zm-23.338-22.7l.988-.127a.922.922 0 01.513.081l.9.426a.923.923 0 001.31-.952l-.126-.988a.923.923 0 01.081-.512l.426-.9a.923.923 0 00-.952-1.311l-.99.126a.923.923 0 01-.513-.081l-.9-.426a.923.923 0 00-1.312.952l.128.988a.924.924 0 01-.08.512l-.426.9a.923.923 0 00.953 1.312z" fill="#b4d7dc"/><path data-name="Path 34" d="M259.624 481.598l-1.452.096a1.348 1.348 0 00-.712.259l-1.173.86a1.347 1.347 0 01-2.143-1l-.095-1.451a1.348 1.348 0 00-.26-.712l-.855-1.171a1.347 1.347 0 011-2.143l1.45-.095a1.348 1.348 0 00.713-.26l1.17-.858a1.347 1.347 0 012.143.999l.096 1.451a1.348 1.348 0 00.259.712l.86 1.174a1.347 1.347 0 01-1.001 2.139zm-12.468 45.862l-.86-1.173a1.346 1.346 0 01-.26-.713l-.095-1.451a1.347 1.347 0 00-2.142-1l-1.173.86a1.348 1.348 0 01-.713.26l-1.451.095a1.347 1.347 0 00-1 2.143l.86 1.173a1.348 1.348 0 01.26.712l.095 1.452a1.347 1.347 0 002.143.999l1.173-.86a1.348 1.348 0 01.712-.26l1.452-.095a1.347 1.347 0 00.999-2.142z" fill="#b4d7dc"/></g><path data-name="Path 22" d="M305.48 405.892l-2.694 1.473a2.849 2.849 0 00-1.132 1.132l-1.473 2.694a2.847 2.847 0 01-5 0l-1.473-2.694a2.849 2.849 0 00-1.132-1.132l-2.694-1.473a2.846 2.846 0 010-4.995l2.694-1.473a2.849 2.849 0 001.132-1.132l1.473-2.694a2.847 2.847 0 015 0l1.473 2.694a2.849 2.849 0 001.132 1.132l2.694 1.473a2.846 2.846 0 010 4.995zm17.079 98.956l-2.694-1.473a2.845 2.845 0 01-1.132-1.132l-1.473-2.694a2.847 2.847 0 00-5 0l-1.473 2.694a2.849 2.849 0 01-1.132 1.132l-2.694 1.473a2.847 2.847 0 000 5l2.694 1.473a2.849 2.849 0 011.132 1.132l1.473 2.694a2.847 2.847 0 005 0l1.473-2.694a2.848 2.848 0 011.132-1.132l2.694-1.473a2.847 2.847 0 000-5z" fill="#b4d7dc"/><path data-name="Path 29" d="M323.551 345.077l-.895.488a.945.945 0 00-.376.375l-.489.893a.946.946 0 01-1.659 0l-.489-.893a.945.945 0 00-.376-.375l-.895-.488a.943.943 0 010-1.656l.895-.488a.945.945 0 00.376-.375l.489-.893a.946.946 0 011.659 0l.489.893a.945.945 0 00.376.375l.895.488a.943.943 0 010 1.656zm-17.021 17.217l-.895-.488a.945.945 0 01-.376-.375l-.489-.893a.946.946 0 00-1.659 0l-.489.893a.945.945 0 01-.376.375l-.895.488a.943.943 0 000 1.656l.895.488a.945.945 0 01.376.375l.489.893a.946.946 0 001.659 0l.489-.893a.945.945 0 01.376-.375l.895-.488a.943.943 0 000-1.656z" fill="#d29137"/><path data-name="Path 26" d="M62.65 823.234a21.288 21.288 0 01-20.544 21.252L-4.47 845.88A259.523 259.523 0 01-32.273 734.86l43.613-1.303a20 20 0 0120.707 20.016l.082 20.634a20.868 20.868 0 01-1.885 8.713l11.608-.348a20 20 0 0120.708 20.016zm155.824-106.628a20.05 20.05 0 00-13.429-4.575l-112.927 3.375a21.288 21.288 0 00-20.543 21.252l.083 20.634a20 20 0 0020.707 20.016l19.034-.569c-.029.452-.065.903-.064 1.361l.288 71.08a20 20 0 0020.708 20.017l43.673-1.305a269.024 269.024 0 0042.467-151.283zm-162.64-23.102l72.194-2.158a21.29 21.29 0 0020.542-21.253l-.087-20.631 59.098-1.767-.017-.059a254.24 254.24 0 00-58.376-101.387l-42.372 1.265a21.288 21.288 0 00-20.543 21.252l.082 20.634-10.312.309A21.288 21.288 0 0055.5 610.96l.082 20.634a21.29 21.29 0 00-20.542 21.252l.082 20.634a20 20 0 0020.713 20.023z" fill="#3caf96" opacity=".53"/><g data-name="1068561"><path data-name="Path 2" d="M234.823 120.088a76.912 76.912 0 11-76.911-76.912 76.912 76.912 0 0176.911 76.912z" fill="#415f78"/><path data-name="Path 3" d="M175.823 160.039a77.447 77.447 0 01-.148 34.895 76.964 76.964 0 01-92.61-92.609 77.113 77.113 0 0117.764-2.066q1.98 0 3.936.1a5.7 5.7 0 00-.057.762c0 5.885 9.085 10.656 20.293 10.656a33.4 33.4 0 0012.461-2.249 77.156 77.156 0 0116.86 12.388 33.588 33.588 0 00-3.72 15.774c0 14.007 7.667 25.362 17.125 25.362a12.93 12.93 0 008.096-3.013z" fill="#64d2cd"/><path data-name="Path 4" d="M175.826 160.039a77.447 77.447 0 01-.148 34.895 76.045 76.045 0 01-3.558.745 103.228 103.228 0 01-89.8-89.8c.224-1.2.467-2.383.745-3.558a77.113 77.113 0 0117.761-2.062q1.845 0 3.668.086c.09 0 .178.011.267.016a5.711 5.711 0 00-.057.759c0 5.885 9.085 10.656 20.293 10.656a33.408 33.408 0 0012.459-2.247 77.155 77.155 0 0116.87 12.385 33.589 33.589 0 00-3.72 15.774c0 14.007 7.667 25.362 17.125 25.362a12.931 12.931 0 008.095-3.011z" fill="#8cebeb"/><path data-name="Path 5" d="M142.932 174.897a6.008 6.008 0 010 8.5l-9.594 9.594a76.89 76.89 0 01-28.66-17.393l8.984-8.984a6.008 6.008 0 018.5 0l4.249 4.248a5.977 5.977 0 011.387 2.178l2.391-2.391a6.008 6.008 0 018.5 0zm11.19-53.176a5.981 5.981 0 00-3.786 1.738l-23.262 23.261a6.008 6.008 0 000 8.5l4.249 4.249a6.008 6.008 0 008.5 0l3.921-3.921c.087.1.171.2.266.294l14.635 14.635a6.008 6.008 0 008.5 0l9-9a76.778 76.778 0 00-22.023-39.757zm-39.235 27.72l14.871-14.871a6.009 6.009 0 000-8.5l-4.247-4.247 12.172-12.171-.016-.009a76.476 76.476 0 00-33.171-9.291l-8.729 8.729a6.008 6.008 0 000 8.5l4.249 4.249-2.124 2.122a6.008 6.008 0 000 8.5l4.249 4.249a6.009 6.009 0 000 8.5l4.249 4.249a6.008 6.008 0 008.497-.009z" fill="#3caf96"/><path data-name="Path 6" d="M140.044 186.283l-6.707 6.707a76.89 76.89 0 01-28.66-17.393l8.248-8.248a103.409 103.409 0 0027.119 18.934z" fill="#1e9682"/><path data-name="Path 7" d="M219.201 103.264a23.924 23.924 0 0114.726 5.046 77.471 77.471 0 01.9 11.778 76.683 76.683 0 01-5.7 29.1 24.034 24.034 0 11-9.926-45.924z" fill="#e65aa0"/><path data-name="Path 8" d="M231.218 127.299a3 3 0 01-3 3s-12.988-.008-18.75-.02a2.246 2.246 0 00-2.178 2.795l.011.045a2.238 2.238 0 002.174 1.688h12.631a3.073 3.073 0 013.1 2.8 3 3 0 01-3 3.2h-6.631a2.24 2.24 0 00-1.57 3.841 23.987 23.987 0 0010.9 5.986 24.035 24.035 0 110-46.694 23.987 23.987 0 00-10.9 5.986 2.24 2.24 0 001.57 3.841h6.528a3.072 3.072 0 013.076 2.568 3.006 3.006 0 01-2.973 3.441h-12.74a2.237 2.237 0 00-2.174 1.688l-.011.045a2.246 2.246 0 002.178 2.795c5.761-.013 18.749-.021 18.749-.021a3 3 0 013.01 3.016z" fill="#be4178"/><path data-name="Path 9" d="M135.379 43.176a18.026 18.026 0 11-18.026 18.026 18.026 18.026 0 0118.026-18.026z" fill="#dca041"/><path data-name="Path 10" d="M139.66 78.713a18.026 18.026 0 110-35.021 18.062 18.062 0 00-12.735 11.553 4.5 4.5 0 11-.795 8.724 18.041 18.041 0 0013.53 14.744zm-4.581-26.524a3 3 0 103-3 3 3 0 00-3 3zm6.009 15.022a3 3 0 103 3 3 3 0 00-3.001-3z" fill="#b97d23"/><path data-name="Path 11" d="M210.187 163.351a6.009 6.009 0 11-6.008-6.009 6.009 6.009 0 016.008 6.009z" fill="#6c9baa"/><path data-name="Path 12" d="M174.132 57.625l-1.422.778a1.5 1.5 0 00-.6.6l-.778 1.422a1.5 1.5 0 01-2.636 0l-.773-1.423a1.5 1.5 0 00-.6-.6l-1.422-.778a1.5 1.5 0 010-2.636l1.422-.778a1.5 1.5 0 00.6-.6l.778-1.422a1.5 1.5 0 012.636 0l.778 1.422a1.5 1.5 0 00.6.6l1.422.778a1.5 1.5 0 01-.005 2.637zm9.013 52.221l-1.422-.778a1.5 1.5 0 01-.6-.6l-.778-1.422a1.5 1.5 0 00-2.636 0l-.778 1.422a1.5 1.5 0 01-.6.6l-1.422.778a1.5 1.5 0 000 2.636l1.422.778a1.5 1.5 0 01.6.6l.778 1.422a1.5 1.5 0 002.636 0l.778-1.425a1.5 1.5 0 01.6-.6l1.422-.778a1.5 1.5 0 000-2.633z" fill="#b4d7dc"/><path data-name="Path 13" d="M122.087-58.96l-1.422.778a1.5 1.5 0 00-.6.6l-.778 1.422a1.5 1.5 0 01-2.636 0l-.774-1.423a1.5 1.5 0 00-.6-.6l-1.422-.778a1.5 1.5 0 010-2.636l1.422-.778a1.5 1.5 0 00.6-.6l.778-1.422a1.5 1.5 0 012.636 0l.778 1.422a1.5 1.5 0 00.6.6l1.422.778a1.5 1.5 0 01-.004 2.637zm-27.04 27.408l-1.418-.778a1.5 1.5 0 01-.6-.6l-.778-1.422a1.5 1.5 0 00-2.636 0l-.777 1.422a1.5 1.5 0 01-.6.6l-1.422.778a1.5 1.5 0 000 2.636l1.422.778a1.5 1.5 0 01.6.6l.777 1.422a1.5 1.5 0 002.636 0l.778-1.422a1.5 1.5 0 01.6-.6l1.422-.778a1.5 1.5 0 00-.004-2.636z" fill="#d29137"/><path data-name="Path 14" d="M111.04 87.669l-1.422.778a1.5 1.5 0 00-.6.6l-.778 1.422a1.5 1.5 0 01-2.636 0l-.773-1.423a1.5 1.5 0 00-.6-.6l-1.422-.778a1.5 1.5 0 010-2.636l1.422-.778a1.5 1.5 0 00.6-.6l.778-1.422a1.5 1.5 0 012.636 0l.778 1.422a1.5 1.5 0 00.6.6l1.422.778a1.5 1.5 0 01-.005 2.637zm77.335 51.443l-1.422-.778a1.5 1.5 0 01-.6-.6l-.778-1.422a1.5 1.5 0 00-2.636 0l-.778 1.422a1.5 1.5 0 01-.6.6l-1.422.778a1.5 1.5 0 000 2.636l1.422.778a1.5 1.5 0 01.6.6l.778 1.422a1.5 1.5 0 002.636 0l.778-1.422a1.5 1.5 0 01.6-.6l1.422-.778a1.5 1.5 0 000-2.637z" fill="#ffc772"/><path data-name="Path 15" d="M207.179 87.669l-1.422.778a1.5 1.5 0 00-.6.6l-.778 1.422a1.5 1.5 0 01-2.636 0l-.778-1.422a1.5 1.5 0 00-.6-.6l-1.422-.778a1.5 1.5 0 010-2.636l1.422-.778a1.5 1.5 0 00.6-.6l.778-1.422a1.5 1.5 0 012.636 0l.778 1.422a1.5 1.5 0 00.6.6l1.422.778a1.5 1.5 0 010 2.636zm-63.092 4.151l-1.422-.778a1.5 1.5 0 01-.6-.6l-.778-1.422a1.5 1.5 0 00-2.636 0l-.778 1.422a1.5 1.5 0 01-.6.6l-1.422.778a1.5 1.5 0 000 2.636l1.428.773a1.5 1.5 0 01.6.6l.778 1.422a1.5 1.5 0 002.636 0l.778-1.422a1.5 1.5 0 01.6-.6l1.422-.778a1.5 1.5 0 00-.005-2.631zm39.061-12.591a6.009 6.009 0 106.009 6.009 6.009 6.009 0 00-6.009-6.009z" fill="#3c5064"/></g></g></svg>